M48
; DRILL file {KiCad 8.0.6} date 2024-12-29T21:13:34+0100
; FORMAT={-:-/ absolute / metric / decimal}
; #@! TF.CreationDate,2024-12-29T21:13:34+01:00
; #@! TF.GenerationSoftware,Kicad,Pcbnew,8.0.6
; #@! TF.FileFunction,Plated,1,2,PTH
FMAT,2
METRIC
; #@! TA.AperFunction,Plated,PTH,ViaDrill
T1C0.300
; #@! TA.AperFunction,Plated,PTH,ComponentDrill
T2C0.600
; #@! TA.AperFunction,Plated,PTH,ComponentDrill
T3C0.750
; #@! TA.AperFunction,Plated,PTH,ComponentDrill
T4C0.800
; #@! TA.AperFunction,Plated,PTH,ComponentDrill
T5C0.900
; #@! TA.AperFunction,Plated,PTH,ComponentDrill
T6C1.000
; #@! TA.AperFunction,Plated,PTH,ComponentDrill
T7C1.016
; #@! TA.AperFunction,Plated,PTH,ComponentDrill
T8C1.100
; #@! TA.AperFunction,Plated,PTH,ComponentDrill
T9C1.300
; #@! TA.AperFunction,Plated,PTH,ComponentDrill
T10C1.700
%
G90
G05
T1
X55.0Y-68.0
X59.5Y-52.0
X88.0Y-117.0
X88.0Y-121.5
X88.0Y-134.0
X88.0Y-139.5
X91.5Y-107.5
X94.0Y-141.5
X95.0Y-95.0
X95.0Y-146.0
X96.0Y-114.5
X96.0Y-123.5
X96.0Y-127.5
X96.0Y-135.0
X97.5Y-121.5
X98.0Y-99.0
X98.5Y-146.0
X99.0Y-117.0
X99.5Y-131.5
X99.5Y-134.0
X99.5Y-144.0
X100.0Y-111.0
X100.5Y-126.0
X101.0Y-113.5
X101.5Y-99.0
X103.5Y-143.5
X104.0Y-125.0
X104.5Y-111.0
X104.5Y-117.0
X104.5Y-131.5
X105.25Y-121.0
X106.0Y-138.5
X106.5Y-99.0
X107.0Y-128.0
X107.5Y-124.5
X108.387Y-77.5
X109.25Y-106.8
X109.25Y-107.7
X109.5Y-112.5
X109.5Y-117.5
X110.0Y-87.0
X110.0Y-146.0
X111.0Y-138.5
X111.5Y-77.5
X111.5Y-99.0
X112.0Y-109.0
X112.5Y-133.5
X114.5Y-103.6
X114.5Y-132.0
X115.0Y-108.0
X115.0Y-108.0
X115.0Y-136.0
X115.0Y-144.5
X116.5Y-124.0
X116.7Y-116.25
X116.7Y-118.75
X116.7Y-129.0
X117.5Y-141.0
X118.3Y-116.25
X118.5Y-118.75
X118.5Y-124.0
X118.5Y-129.0
X120.5Y-102.0
X120.5Y-132.0
X120.5Y-136.0
X123.0Y-143.5
X123.0Y-148.0
X124.5Y-132.0
X124.5Y-137.5
X126.0Y-112.5
X126.0Y-117.5
X126.5Y-121.0
X127.659Y-126.409
X128.197Y-118.053
X128.75Y-127.75
X129.328Y-116.922
X129.5Y-141.0
X131.0Y-100.5
X133.5Y-97.5
X134.5Y-148.5
X135.5Y-139.0
X135.5Y-144.0
X142.0Y-85.5
X142.0Y-86.79
X144.0Y-107.5
X144.0Y-148.5
X146.0Y-81.0
X148.5Y-111.5
X148.5Y-116.5
X148.5Y-137.5
X148.5Y-144.0
T2
X54.0Y-99.0
X54.7Y-116.0
X56.3Y-94.0
X57.0Y-111.0
T3
X92.14Y-86.23
X92.14Y-87.5
X92.14Y-88.77
X93.0Y-92.5
X93.0Y-93.77
X93.0Y-95.04
X126.96Y-102.0
X128.23Y-102.0
X129.5Y-102.0
X144.15Y-60.0
X145.42Y-60.0
X146.69Y-60.0
T4
X56.5Y-132.5
X56.5Y-137.58
X100.11Y-85.38
X100.11Y-100.62
X102.65Y-85.38
X102.65Y-100.62
X105.19Y-85.38
X105.19Y-100.62
X107.73Y-85.38
X107.73Y-100.62
X110.27Y-85.38
X110.27Y-100.62
X112.81Y-85.38
X112.81Y-100.62
X115.35Y-85.38
X115.35Y-100.62
X117.89Y-85.38
X117.89Y-100.62
X128.26Y-81.11
X128.26Y-83.65
X128.26Y-86.19
X128.26Y-88.73
X128.26Y-91.27
X128.26Y-93.81
X128.26Y-96.35
X128.26Y-98.89
X129.38Y-70.1
X131.92Y-70.1
X134.46Y-70.1
X137.0Y-70.1
X143.5Y-81.11
X143.5Y-83.65
X143.5Y-86.19
X143.5Y-88.73
X143.5Y-91.27
X143.5Y-93.81
X143.5Y-96.35
X143.5Y-98.89
T5
X116.225Y-68.25
X116.225Y-75.75
X118.765Y-68.25
X118.765Y-75.75
X123.0Y-60.0
X125.54Y-60.0
X128.0Y-60.0
X130.54Y-60.0
T6
X63.0Y-139.58
X64.0Y-83.582
X68.0Y-110.5
X69.0Y-54.502
X73.0Y-110.5
X74.0Y-54.502
X76.2Y-90.0
X76.2Y-102.0
X78.0Y-139.58
X79.0Y-83.582
X98.38Y-65.4
X98.42Y-62.0
X100.92Y-65.4
X100.96Y-62.0
X103.46Y-65.4
X103.5Y-62.0
X106.0Y-65.4
X106.04Y-62.0
X111.725Y-111.22
X111.725Y-113.76
X111.725Y-116.3
X111.725Y-118.84
X111.725Y-121.38
X111.725Y-123.92
X111.725Y-126.46
X111.725Y-129.0
X114.265Y-111.22
X114.265Y-113.76
X114.265Y-116.3
X114.265Y-118.84
X114.265Y-121.38
X114.265Y-123.92
X114.265Y-126.46
X114.265Y-129.0
X121.75Y-111.22
X121.75Y-113.76
X121.75Y-116.3
X121.75Y-118.84
X121.75Y-121.38
X121.75Y-123.92
X121.75Y-126.46
X121.75Y-129.0
X124.29Y-111.22
X124.29Y-113.76
X124.29Y-116.3
X124.29Y-118.84
X124.29Y-121.38
X124.29Y-123.92
X124.29Y-126.46
X124.29Y-129.0
X131.57Y-78.5
X134.11Y-78.5
X134.5Y-109.5
X134.5Y-114.5
X134.5Y-120.316
X134.5Y-125.316
X134.5Y-131.132
X134.5Y-136.132
X136.65Y-78.5
X139.19Y-78.5
T7
X83.4Y-93.46
X83.4Y-96.0
X83.4Y-98.54
X83.5Y-134.0
X83.5Y-136.54
X83.5Y-139.08
X87.6Y-93.42
X87.6Y-95.96
X87.6Y-98.5
X123.0Y-93.46
X123.0Y-96.0
X123.0Y-98.54
X142.65Y-65.0
X145.19Y-65.0
X147.73Y-65.0
T8
X66.34Y-81.5
X76.5Y-81.5
X98.34Y-141.0
X100.96Y-146.0
X103.5Y-146.0
X106.04Y-146.0
X108.5Y-141.0
X111.34Y-141.0
X113.46Y-146.0
X116.0Y-146.0
X118.54Y-146.0
X121.5Y-141.0
X124.34Y-141.0
X126.92Y-146.0
X129.46Y-146.0
X132.0Y-146.0
X134.5Y-141.0
T9
X55.0Y-73.0
X55.0Y-78.0
X55.0Y-83.0
X55.0Y-88.0
X63.95Y-102.05
X64.0Y-90.0
X78.15Y-96.05
X144.5Y-119.5
X144.5Y-124.5
X144.5Y-129.5
X144.5Y-134.5
T10
X53.5Y-121.777
X53.5Y-126.777
X91.5Y-114.0
X91.5Y-119.0
X91.5Y-125.0
X91.5Y-130.0
X91.5Y-136.0
X91.5Y-141.0
M30
