G04 #@! TF.GenerationSoftware,KiCad,Pcbnew,8.0.6*
G04 #@! TF.CreationDate,2024-12-29T21:13:16+01:00*
G04 #@! TF.ProjectId,HomeAutomationESP32C2mini_2024_2,486f6d65-4175-4746-9f6d-6174696f6e45,rev?*
G04 #@! TF.SameCoordinates,Original*
G04 #@! TF.FileFunction,Paste,Bot*
G04 #@! TF.FilePolarity,Positive*
%FSLAX46Y46*%
G04 Gerber Fmt 4.6, Leading zero omitted, Abs format (unit mm)*
G04 Created by KiCad (PCBNEW 8.0.6) date 2024-12-29 21:13:16*
%MOMM*%
%LPD*%
G01*
G04 APERTURE LIST*
G04 Aperture macros list*
%AMRoundRect*
0 Rectangle with rounded corners*
0 $1 Rounding radius*
0 $2 $3 $4 $5 $6 $7 $8 $9 X,Y pos of 4 corners*
0 Add a 4 corners polygon primitive as box body*
4,1,4,$2,$3,$4,$5,$6,$7,$8,$9,$2,$3,0*
0 Add four circle primitives for the rounded corners*
1,1,$1+$1,$2,$3*
1,1,$1+$1,$4,$5*
1,1,$1+$1,$6,$7*
1,1,$1+$1,$8,$9*
0 Add four rect primitives between the rounded corners*
20,1,$1+$1,$2,$3,$4,$5,0*
20,1,$1+$1,$4,$5,$6,$7,0*
20,1,$1+$1,$6,$7,$8,$9,0*
20,1,$1+$1,$8,$9,$2,$3,0*%
G04 Aperture macros list end*
%ADD10RoundRect,0.250000X0.450000X-0.262500X0.450000X0.262500X-0.450000X0.262500X-0.450000X-0.262500X0*%
%ADD11RoundRect,0.250000X0.450000X-0.325000X0.450000X0.325000X-0.450000X0.325000X-0.450000X-0.325000X0*%
%ADD12RoundRect,0.250000X-0.450000X0.325000X-0.450000X-0.325000X0.450000X-0.325000X0.450000X0.325000X0*%
%ADD13RoundRect,0.249999X1.425001X-0.512501X1.425001X0.512501X-1.425001X0.512501X-1.425001X-0.512501X0*%
%ADD14RoundRect,0.250000X-0.325000X-0.450000X0.325000X-0.450000X0.325000X0.450000X-0.325000X0.450000X0*%
%ADD15RoundRect,0.250000X-0.312500X-1.450000X0.312500X-1.450000X0.312500X1.450000X-0.312500X1.450000X0*%
%ADD16RoundRect,0.250000X-0.250000X-0.475000X0.250000X-0.475000X0.250000X0.475000X-0.250000X0.475000X0*%
%ADD17RoundRect,0.250000X0.325000X0.450000X-0.325000X0.450000X-0.325000X-0.450000X0.325000X-0.450000X0*%
G04 APERTURE END LIST*
D10*
X83000000Y-78912500D03*
X83000000Y-77087500D03*
D11*
X119750000Y-128050000D03*
X119750000Y-126000000D03*
D12*
X119750000Y-119725000D03*
X119750000Y-121775000D03*
D11*
X119750000Y-115300000D03*
X119750000Y-113250000D03*
D13*
X55000000Y-61975000D03*
X55000000Y-56000000D03*
D14*
X128950000Y-115000000D03*
X131000000Y-115000000D03*
D12*
X137500000Y-110950000D03*
X137500000Y-113000000D03*
D15*
X114500000Y-141000000D03*
X118775000Y-141000000D03*
X101225000Y-141000000D03*
X105500000Y-141000000D03*
D12*
X137500000Y-121750000D03*
X137500000Y-123800000D03*
D14*
X128950000Y-113000000D03*
X131000000Y-113000000D03*
D12*
X94500000Y-115475000D03*
X94500000Y-117525000D03*
D14*
X128975000Y-119750000D03*
X131025000Y-119750000D03*
X128950000Y-136250000D03*
X131000000Y-136250000D03*
X128950000Y-109000000D03*
X131000000Y-109000000D03*
D11*
X94500000Y-128525000D03*
X94500000Y-126475000D03*
D14*
X128975000Y-121750000D03*
X131025000Y-121750000D03*
D15*
X127250000Y-141000000D03*
X131525000Y-141000000D03*
D14*
X128950000Y-134250000D03*
X131000000Y-134250000D03*
X129000000Y-123750000D03*
X131050000Y-123750000D03*
D12*
X137500000Y-132700000D03*
X137500000Y-134750000D03*
D16*
X67950000Y-84500000D03*
X66050000Y-84500000D03*
D17*
X130500000Y-148500000D03*
X128450000Y-148500000D03*
D14*
X128900000Y-111000000D03*
X130950000Y-111000000D03*
X128975000Y-125750000D03*
X131025000Y-125750000D03*
D11*
X94500000Y-139000000D03*
X94500000Y-136950000D03*
D14*
X128950000Y-130250000D03*
X131000000Y-130250000D03*
X100950000Y-148500000D03*
X103000000Y-148500000D03*
X128950000Y-132250000D03*
X131000000Y-132250000D03*
X113500000Y-148500000D03*
X115550000Y-148500000D03*
M02*
