G04 #@! TF.GenerationSoftware,KiCad,Pcbnew,8.0.6*
G04 #@! TF.CreationDate,2024-12-29T21:13:16+01:00*
G04 #@! TF.ProjectId,HomeAutomationESP32C2mini_2024_2,486f6d65-4175-4746-9f6d-6174696f6e45,rev?*
G04 #@! TF.SameCoordinates,Original*
G04 #@! TF.FileFunction,Paste,Top*
G04 #@! TF.FilePolarity,Positive*
%FSLAX46Y46*%
G04 Gerber Fmt 4.6, Leading zero omitted, Abs format (unit mm)*
G04 Created by KiCad (PCBNEW 8.0.6) date 2024-12-29 21:13:16*
%MOMM*%
%LPD*%
G01*
G04 APERTURE LIST*
G04 Aperture macros list*
%AMRoundRect*
0 Rectangle with rounded corners*
0 $1 Rounding radius*
0 $2 $3 $4 $5 $6 $7 $8 $9 X,Y pos of 4 corners*
0 Add a 4 corners polygon primitive as box body*
4,1,4,$2,$3,$4,$5,$6,$7,$8,$9,$2,$3,0*
0 Add four circle primitives for the rounded corners*
1,1,$1+$1,$2,$3*
1,1,$1+$1,$4,$5*
1,1,$1+$1,$6,$7*
1,1,$1+$1,$8,$9*
0 Add four rect primitives between the rounded corners*
20,1,$1+$1,$2,$3,$4,$5,0*
20,1,$1+$1,$4,$5,$6,$7,0*
20,1,$1+$1,$6,$7,$8,$9,0*
20,1,$1+$1,$8,$9,$2,$3,0*%
G04 Aperture macros list end*
%ADD10RoundRect,0.250000X3.090000X-2.550000X3.090000X2.550000X-3.090000X2.550000X-3.090000X-2.550000X0*%
%ADD11RoundRect,0.250000X0.450000X-0.262500X0.450000X0.262500X-0.450000X0.262500X-0.450000X-0.262500X0*%
%ADD12RoundRect,0.250000X0.262500X0.450000X-0.262500X0.450000X-0.262500X-0.450000X0.262500X-0.450000X0*%
%ADD13RoundRect,0.250000X0.475000X-0.250000X0.475000X0.250000X-0.475000X0.250000X-0.475000X-0.250000X0*%
%ADD14RoundRect,0.250000X-0.450000X0.262500X-0.450000X-0.262500X0.450000X-0.262500X0.450000X0.262500X0*%
%ADD15RoundRect,0.249999X1.425001X-0.512501X1.425001X0.512501X-1.425001X0.512501X-1.425001X-0.512501X0*%
%ADD16RoundRect,0.250000X-0.450000X0.325000X-0.450000X-0.325000X0.450000X-0.325000X0.450000X0.325000X0*%
%ADD17RoundRect,0.250000X-0.250000X-0.475000X0.250000X-0.475000X0.250000X0.475000X-0.250000X0.475000X0*%
%ADD18RoundRect,0.250000X-0.262500X-0.450000X0.262500X-0.450000X0.262500X0.450000X-0.262500X0.450000X0*%
%ADD19RoundRect,0.250000X-0.475000X0.250000X-0.475000X-0.250000X0.475000X-0.250000X0.475000X0.250000X0*%
%ADD20RoundRect,0.250000X-0.325000X-0.450000X0.325000X-0.450000X0.325000X0.450000X-0.325000X0.450000X0*%
%ADD21RoundRect,0.150000X0.150000X-0.587500X0.150000X0.587500X-0.150000X0.587500X-0.150000X-0.587500X0*%
%ADD22RoundRect,0.250000X0.325000X0.450000X-0.325000X0.450000X-0.325000X-0.450000X0.325000X-0.450000X0*%
%ADD23RoundRect,0.150000X-0.150000X0.587500X-0.150000X-0.587500X0.150000X-0.587500X0.150000X0.587500X0*%
%ADD24RoundRect,0.250000X0.450000X-0.325000X0.450000X0.325000X-0.450000X0.325000X-0.450000X-0.325000X0*%
G04 APERTURE END LIST*
D10*
X55000000Y-64000000D03*
X55000000Y-53900000D03*
D11*
X147190000Y-69825000D03*
X147190000Y-68000000D03*
D12*
X136102500Y-85500000D03*
X134277500Y-85500000D03*
X113412500Y-75750000D03*
X111587500Y-75750000D03*
D13*
X142690000Y-69900000D03*
X142690000Y-68000000D03*
D12*
X113412500Y-68500000D03*
X111587500Y-68500000D03*
D14*
X91000000Y-92675000D03*
X91000000Y-94500000D03*
D12*
X99150000Y-89500000D03*
X97325000Y-89500000D03*
D15*
X52300000Y-138487500D03*
X52300000Y-132512500D03*
D11*
X135000000Y-97390000D03*
X135000000Y-95565000D03*
D14*
X106000000Y-57250000D03*
X106000000Y-59075000D03*
D16*
X97750000Y-123250000D03*
X97750000Y-125300000D03*
D11*
X129040000Y-66325000D03*
X129040000Y-64500000D03*
D16*
X97750000Y-112250000D03*
X97750000Y-114300000D03*
D14*
X103500000Y-57250000D03*
X103500000Y-59075000D03*
X142690000Y-72000000D03*
X142690000Y-73825000D03*
D17*
X65600000Y-146000000D03*
X67500000Y-146000000D03*
D18*
X108175000Y-95000000D03*
X110000000Y-95000000D03*
D12*
X136102500Y-90000000D03*
X134277500Y-90000000D03*
D11*
X124040000Y-66325000D03*
X124040000Y-64500000D03*
D19*
X99000000Y-93000000D03*
X99000000Y-94900000D03*
D18*
X108175000Y-98500000D03*
X110000000Y-98500000D03*
D14*
X147190000Y-72000000D03*
X147190000Y-73825000D03*
D12*
X77500000Y-146000000D03*
X75675000Y-146000000D03*
D20*
X70950000Y-146000000D03*
X73000000Y-146000000D03*
D16*
X97750000Y-134250000D03*
X97750000Y-136300000D03*
D21*
X100850000Y-135500000D03*
X102750000Y-135500000D03*
X101800000Y-133625000D03*
D22*
X99750000Y-138250000D03*
X97700000Y-138250000D03*
X103250000Y-118750000D03*
X101200000Y-118750000D03*
X103275000Y-115750000D03*
X101225000Y-115750000D03*
X103000000Y-130250000D03*
X100950000Y-130250000D03*
D23*
X103150000Y-111750000D03*
X101250000Y-111750000D03*
X102200000Y-113625000D03*
D24*
X104500000Y-135500000D03*
X104500000Y-133450000D03*
D23*
X102950000Y-124312500D03*
X101050000Y-124312500D03*
X102000000Y-126187500D03*
D22*
X103025000Y-128250000D03*
X100975000Y-128250000D03*
M02*
