%TF.GenerationSoftware,KiCad,Pcbnew,8.0.6*%
%TF.CreationDate,2024-12-29T21:13:37+01:00*%
%TF.ProjectId,HomeAutomationESP32C2mini_2024_2,486f6d65-4175-4746-9f6d-6174696f6e45,rev?*%
%TF.SameCoordinates,Original*%
%TF.FileFunction,Drillmap*%
%TF.FilePolarity,Positive*%
%FSLAX45Y45*%
G04 Gerber Fmt 4.5, Leading zero omitted, Abs format (unit mm)*
G04 Created by KiCad (PCBNEW 8.0.6) date 2024-12-29 21:13:37*
%MOMM*%
%LPD*%
G01*
G04 APERTURE LIST*
%ADD10C,0.050000*%
%ADD11C,0.200000*%
%ADD12C,0.220000*%
G04 APERTURE END LIST*
D10*
X12000000Y-10000000D02*
X12100000Y-10000000D01*
X8200000Y-10500000D02*
X8200000Y-10600000D01*
X8500000Y-10250000D02*
X8600000Y-10250000D01*
X8950000Y-10600000D02*
X8950000Y-10500000D01*
X8500000Y-10800000D02*
X8600000Y-10800000D01*
X7300000Y-9300000D02*
X7300000Y-9200000D01*
X7300000Y-10000000D02*
X7300000Y-9900000D01*
X12100000Y-6000000D02*
X12000000Y-6000000D01*
X6700000Y-8650000D02*
X6700000Y-9150000D01*
X8150000Y-9200000D02*
X8150000Y-10000000D01*
X6150000Y-8650000D02*
X6700000Y-8650000D01*
X6050000Y-8750000D02*
X6050000Y-7050000D01*
X8600000Y-14100000D02*
X8600000Y-10800000D01*
X8200000Y-10600000D02*
X5400000Y-10600000D01*
X6600000Y-8750000D02*
X6050000Y-8750000D01*
X8950000Y-10600000D02*
X14500000Y-10600000D01*
X15000000Y-15000000D02*
X5600000Y-15000000D01*
X5400000Y-10500000D02*
X8200000Y-10500000D01*
X8050000Y-9300000D02*
X7300000Y-9300000D01*
X12100000Y-10000000D02*
X12100000Y-6000000D01*
X5400000Y-10600000D02*
X5400000Y-10500000D01*
X12000000Y-6000000D02*
X12000000Y-10000000D01*
X5000000Y-15000000D02*
X5000000Y-14300000D01*
X8600000Y-6000000D02*
X8600000Y-10250000D01*
X8500000Y-14100000D02*
X8600000Y-14100000D01*
X5000000Y-5000000D02*
X8500000Y-5000000D01*
X7300000Y-9900000D02*
X8050000Y-9900000D01*
X14500000Y-10600000D02*
X14500000Y-10500000D01*
X6050000Y-7050000D02*
X6150000Y-7050000D01*
X6150000Y-7050000D02*
X6150000Y-8650000D01*
X5000000Y-14300000D02*
X5000000Y-5000000D01*
X5600000Y-15000000D02*
X5000000Y-15000000D01*
X8500000Y-6000000D02*
X8600000Y-6000000D01*
X6700000Y-9150000D02*
X6600000Y-9150000D01*
X8150000Y-10000000D02*
X7300000Y-10000000D01*
X8500000Y-5400000D02*
X15000000Y-5400000D01*
X12100000Y-10500000D02*
X14500000Y-10500000D01*
X8050000Y-9900000D02*
X8050000Y-9300000D01*
X8500000Y-10800000D02*
X8500000Y-14100000D01*
X15000000Y-5400000D02*
X15000000Y-15000000D01*
X12100000Y-10500000D02*
X8950000Y-10500000D01*
X8500000Y-5000000D02*
X8500000Y-5400000D01*
X7300000Y-9200000D02*
X8150000Y-9200000D01*
X6600000Y-9150000D02*
X6600000Y-8750000D01*
X8500000Y-10250000D02*
X8500000Y-6000000D01*
D11*
D12*
X5140000Y-10740000D02*
X5360000Y-10960000D01*
X5360000Y-10740000D02*
X5140000Y-10960000D01*
X5190000Y-14590000D02*
X5410000Y-14810000D01*
X5410000Y-14590000D02*
X5190000Y-14810000D01*
X5390000Y-5788750D02*
X5610000Y-6008750D01*
X5610000Y-5788750D02*
X5390000Y-6008750D01*
X8790000Y-10790000D02*
X9010000Y-11010000D01*
X9010000Y-10790000D02*
X8790000Y-11010000D01*
X8790000Y-14540000D02*
X9010000Y-14760000D01*
X9010000Y-14540000D02*
X8790000Y-14760000D01*
X8890000Y-5740000D02*
X9110000Y-5960000D01*
X9110000Y-5740000D02*
X8890000Y-5960000D01*
X9540000Y-10090000D02*
X9760000Y-10310000D01*
X9760000Y-10090000D02*
X9540000Y-10310000D01*
X11490000Y-5690000D02*
X11710000Y-5910000D01*
X11710000Y-5690000D02*
X11490000Y-5910000D01*
X13540000Y-5640000D02*
X13760000Y-5860000D01*
X13760000Y-5640000D02*
X13540000Y-5860000D01*
X14540000Y-10790000D02*
X14760000Y-11010000D01*
X14760000Y-10790000D02*
X14540000Y-11010000D01*
X14540000Y-14540000D02*
X14760000Y-14760000D01*
X14760000Y-14540000D02*
X14540000Y-14760000D01*
X14590000Y-10090000D02*
X14810000Y-10310000D01*
X14810000Y-10090000D02*
X14590000Y-10310000D01*
D11*
X5258277Y-15313984D02*
X5258277Y-15113984D01*
X5258277Y-15113984D02*
X5305896Y-15113984D01*
X5305896Y-15113984D02*
X5334467Y-15123508D01*
X5334467Y-15123508D02*
X5353515Y-15142555D01*
X5353515Y-15142555D02*
X5363039Y-15161603D01*
X5363039Y-15161603D02*
X5372563Y-15199698D01*
X5372563Y-15199698D02*
X5372563Y-15228269D01*
X5372563Y-15228269D02*
X5363039Y-15266365D01*
X5363039Y-15266365D02*
X5353515Y-15285412D01*
X5353515Y-15285412D02*
X5334467Y-15304460D01*
X5334467Y-15304460D02*
X5305896Y-15313984D01*
X5305896Y-15313984D02*
X5258277Y-15313984D01*
X5458277Y-15313984D02*
X5458277Y-15180650D01*
X5458277Y-15218746D02*
X5467801Y-15199698D01*
X5467801Y-15199698D02*
X5477324Y-15190174D01*
X5477324Y-15190174D02*
X5496372Y-15180650D01*
X5496372Y-15180650D02*
X5515420Y-15180650D01*
X5582086Y-15313984D02*
X5582086Y-15180650D01*
X5582086Y-15113984D02*
X5572563Y-15123508D01*
X5572563Y-15123508D02*
X5582086Y-15133031D01*
X5582086Y-15133031D02*
X5591610Y-15123508D01*
X5591610Y-15123508D02*
X5582086Y-15113984D01*
X5582086Y-15113984D02*
X5582086Y-15133031D01*
X5705896Y-15313984D02*
X5686848Y-15304460D01*
X5686848Y-15304460D02*
X5677324Y-15285412D01*
X5677324Y-15285412D02*
X5677324Y-15113984D01*
X5810658Y-15313984D02*
X5791610Y-15304460D01*
X5791610Y-15304460D02*
X5782086Y-15285412D01*
X5782086Y-15285412D02*
X5782086Y-15113984D01*
X6039229Y-15313984D02*
X6039229Y-15113984D01*
X6039229Y-15113984D02*
X6105896Y-15256841D01*
X6105896Y-15256841D02*
X6172562Y-15113984D01*
X6172562Y-15113984D02*
X6172562Y-15313984D01*
X6353515Y-15313984D02*
X6353515Y-15209222D01*
X6353515Y-15209222D02*
X6343991Y-15190174D01*
X6343991Y-15190174D02*
X6324943Y-15180650D01*
X6324943Y-15180650D02*
X6286848Y-15180650D01*
X6286848Y-15180650D02*
X6267801Y-15190174D01*
X6353515Y-15304460D02*
X6334467Y-15313984D01*
X6334467Y-15313984D02*
X6286848Y-15313984D01*
X6286848Y-15313984D02*
X6267801Y-15304460D01*
X6267801Y-15304460D02*
X6258277Y-15285412D01*
X6258277Y-15285412D02*
X6258277Y-15266365D01*
X6258277Y-15266365D02*
X6267801Y-15247317D01*
X6267801Y-15247317D02*
X6286848Y-15237793D01*
X6286848Y-15237793D02*
X6334467Y-15237793D01*
X6334467Y-15237793D02*
X6353515Y-15228269D01*
X6448753Y-15180650D02*
X6448753Y-15380650D01*
X6448753Y-15190174D02*
X6467801Y-15180650D01*
X6467801Y-15180650D02*
X6505896Y-15180650D01*
X6505896Y-15180650D02*
X6524943Y-15190174D01*
X6524943Y-15190174D02*
X6534467Y-15199698D01*
X6534467Y-15199698D02*
X6543991Y-15218746D01*
X6543991Y-15218746D02*
X6543991Y-15275888D01*
X6543991Y-15275888D02*
X6534467Y-15294936D01*
X6534467Y-15294936D02*
X6524943Y-15304460D01*
X6524943Y-15304460D02*
X6505896Y-15313984D01*
X6505896Y-15313984D02*
X6467801Y-15313984D01*
X6467801Y-15313984D02*
X6448753Y-15304460D01*
X6629705Y-15294936D02*
X6639229Y-15304460D01*
X6639229Y-15304460D02*
X6629705Y-15313984D01*
X6629705Y-15313984D02*
X6620182Y-15304460D01*
X6620182Y-15304460D02*
X6629705Y-15294936D01*
X6629705Y-15294936D02*
X6629705Y-15313984D01*
X6629705Y-15190174D02*
X6639229Y-15199698D01*
X6639229Y-15199698D02*
X6629705Y-15209222D01*
X6629705Y-15209222D02*
X6620182Y-15199698D01*
X6620182Y-15199698D02*
X6629705Y-15190174D01*
X6629705Y-15190174D02*
X6629705Y-15209222D01*
X4797500Y-15542500D02*
X4997500Y-15742500D01*
X4997500Y-15542500D02*
X4797500Y-15742500D01*
X5248753Y-15553031D02*
X5258277Y-15543508D01*
X5258277Y-15543508D02*
X5277324Y-15533984D01*
X5277324Y-15533984D02*
X5324944Y-15533984D01*
X5324944Y-15533984D02*
X5343991Y-15543508D01*
X5343991Y-15543508D02*
X5353515Y-15553031D01*
X5353515Y-15553031D02*
X5363039Y-15572079D01*
X5363039Y-15572079D02*
X5363039Y-15591127D01*
X5363039Y-15591127D02*
X5353515Y-15619698D01*
X5353515Y-15619698D02*
X5239229Y-15733984D01*
X5239229Y-15733984D02*
X5363039Y-15733984D01*
X5448753Y-15714936D02*
X5458277Y-15724460D01*
X5458277Y-15724460D02*
X5448753Y-15733984D01*
X5448753Y-15733984D02*
X5439229Y-15724460D01*
X5439229Y-15724460D02*
X5448753Y-15714936D01*
X5448753Y-15714936D02*
X5448753Y-15733984D01*
X5534467Y-15553031D02*
X5543991Y-15543508D01*
X5543991Y-15543508D02*
X5563039Y-15533984D01*
X5563039Y-15533984D02*
X5610658Y-15533984D01*
X5610658Y-15533984D02*
X5629705Y-15543508D01*
X5629705Y-15543508D02*
X5639229Y-15553031D01*
X5639229Y-15553031D02*
X5648753Y-15572079D01*
X5648753Y-15572079D02*
X5648753Y-15591127D01*
X5648753Y-15591127D02*
X5639229Y-15619698D01*
X5639229Y-15619698D02*
X5524944Y-15733984D01*
X5524944Y-15733984D02*
X5648753Y-15733984D01*
X5772562Y-15533984D02*
X5791610Y-15533984D01*
X5791610Y-15533984D02*
X5810658Y-15543508D01*
X5810658Y-15543508D02*
X5820182Y-15553031D01*
X5820182Y-15553031D02*
X5829705Y-15572079D01*
X5829705Y-15572079D02*
X5839229Y-15610174D01*
X5839229Y-15610174D02*
X5839229Y-15657793D01*
X5839229Y-15657793D02*
X5829705Y-15695888D01*
X5829705Y-15695888D02*
X5820182Y-15714936D01*
X5820182Y-15714936D02*
X5810658Y-15724460D01*
X5810658Y-15724460D02*
X5791610Y-15733984D01*
X5791610Y-15733984D02*
X5772562Y-15733984D01*
X5772562Y-15733984D02*
X5753515Y-15724460D01*
X5753515Y-15724460D02*
X5743991Y-15714936D01*
X5743991Y-15714936D02*
X5734467Y-15695888D01*
X5734467Y-15695888D02*
X5724943Y-15657793D01*
X5724943Y-15657793D02*
X5724943Y-15610174D01*
X5724943Y-15610174D02*
X5734467Y-15572079D01*
X5734467Y-15572079D02*
X5743991Y-15553031D01*
X5743991Y-15553031D02*
X5753515Y-15543508D01*
X5753515Y-15543508D02*
X5772562Y-15533984D01*
X5963039Y-15533984D02*
X5982086Y-15533984D01*
X5982086Y-15533984D02*
X6001134Y-15543508D01*
X6001134Y-15543508D02*
X6010658Y-15553031D01*
X6010658Y-15553031D02*
X6020182Y-15572079D01*
X6020182Y-15572079D02*
X6029705Y-15610174D01*
X6029705Y-15610174D02*
X6029705Y-15657793D01*
X6029705Y-15657793D02*
X6020182Y-15695888D01*
X6020182Y-15695888D02*
X6010658Y-15714936D01*
X6010658Y-15714936D02*
X6001134Y-15724460D01*
X6001134Y-15724460D02*
X5982086Y-15733984D01*
X5982086Y-15733984D02*
X5963039Y-15733984D01*
X5963039Y-15733984D02*
X5943991Y-15724460D01*
X5943991Y-15724460D02*
X5934467Y-15714936D01*
X5934467Y-15714936D02*
X5924943Y-15695888D01*
X5924943Y-15695888D02*
X5915420Y-15657793D01*
X5915420Y-15657793D02*
X5915420Y-15610174D01*
X5915420Y-15610174D02*
X5924943Y-15572079D01*
X5924943Y-15572079D02*
X5934467Y-15553031D01*
X5934467Y-15553031D02*
X5943991Y-15543508D01*
X5943991Y-15543508D02*
X5963039Y-15533984D01*
X6115420Y-15733984D02*
X6115420Y-15600650D01*
X6115420Y-15619698D02*
X6124943Y-15610174D01*
X6124943Y-15610174D02*
X6143991Y-15600650D01*
X6143991Y-15600650D02*
X6172563Y-15600650D01*
X6172563Y-15600650D02*
X6191610Y-15610174D01*
X6191610Y-15610174D02*
X6201134Y-15629222D01*
X6201134Y-15629222D02*
X6201134Y-15733984D01*
X6201134Y-15629222D02*
X6210658Y-15610174D01*
X6210658Y-15610174D02*
X6229705Y-15600650D01*
X6229705Y-15600650D02*
X6258277Y-15600650D01*
X6258277Y-15600650D02*
X6277324Y-15610174D01*
X6277324Y-15610174D02*
X6286848Y-15629222D01*
X6286848Y-15629222D02*
X6286848Y-15733984D01*
X6382086Y-15733984D02*
X6382086Y-15600650D01*
X6382086Y-15619698D02*
X6391610Y-15610174D01*
X6391610Y-15610174D02*
X6410658Y-15600650D01*
X6410658Y-15600650D02*
X6439229Y-15600650D01*
X6439229Y-15600650D02*
X6458277Y-15610174D01*
X6458277Y-15610174D02*
X6467801Y-15629222D01*
X6467801Y-15629222D02*
X6467801Y-15733984D01*
X6467801Y-15629222D02*
X6477324Y-15610174D01*
X6477324Y-15610174D02*
X6496372Y-15600650D01*
X6496372Y-15600650D02*
X6524943Y-15600650D01*
X6524943Y-15600650D02*
X6543991Y-15610174D01*
X6543991Y-15610174D02*
X6553515Y-15629222D01*
X6553515Y-15629222D02*
X6553515Y-15733984D01*
X6943991Y-15524460D02*
X6772563Y-15781603D01*
X7201134Y-15533984D02*
X7220182Y-15533984D01*
X7220182Y-15533984D02*
X7239229Y-15543508D01*
X7239229Y-15543508D02*
X7248753Y-15553031D01*
X7248753Y-15553031D02*
X7258277Y-15572079D01*
X7258277Y-15572079D02*
X7267801Y-15610174D01*
X7267801Y-15610174D02*
X7267801Y-15657793D01*
X7267801Y-15657793D02*
X7258277Y-15695888D01*
X7258277Y-15695888D02*
X7248753Y-15714936D01*
X7248753Y-15714936D02*
X7239229Y-15724460D01*
X7239229Y-15724460D02*
X7220182Y-15733984D01*
X7220182Y-15733984D02*
X7201134Y-15733984D01*
X7201134Y-15733984D02*
X7182086Y-15724460D01*
X7182086Y-15724460D02*
X7172563Y-15714936D01*
X7172563Y-15714936D02*
X7163039Y-15695888D01*
X7163039Y-15695888D02*
X7153515Y-15657793D01*
X7153515Y-15657793D02*
X7153515Y-15610174D01*
X7153515Y-15610174D02*
X7163039Y-15572079D01*
X7163039Y-15572079D02*
X7172563Y-15553031D01*
X7172563Y-15553031D02*
X7182086Y-15543508D01*
X7182086Y-15543508D02*
X7201134Y-15533984D01*
X7353515Y-15714936D02*
X7363039Y-15724460D01*
X7363039Y-15724460D02*
X7353515Y-15733984D01*
X7353515Y-15733984D02*
X7343991Y-15724460D01*
X7343991Y-15724460D02*
X7353515Y-15714936D01*
X7353515Y-15714936D02*
X7353515Y-15733984D01*
X7486848Y-15533984D02*
X7505896Y-15533984D01*
X7505896Y-15533984D02*
X7524944Y-15543508D01*
X7524944Y-15543508D02*
X7534467Y-15553031D01*
X7534467Y-15553031D02*
X7543991Y-15572079D01*
X7543991Y-15572079D02*
X7553515Y-15610174D01*
X7553515Y-15610174D02*
X7553515Y-15657793D01*
X7553515Y-15657793D02*
X7543991Y-15695888D01*
X7543991Y-15695888D02*
X7534467Y-15714936D01*
X7534467Y-15714936D02*
X7524944Y-15724460D01*
X7524944Y-15724460D02*
X7505896Y-15733984D01*
X7505896Y-15733984D02*
X7486848Y-15733984D01*
X7486848Y-15733984D02*
X7467801Y-15724460D01*
X7467801Y-15724460D02*
X7458277Y-15714936D01*
X7458277Y-15714936D02*
X7448753Y-15695888D01*
X7448753Y-15695888D02*
X7439229Y-15657793D01*
X7439229Y-15657793D02*
X7439229Y-15610174D01*
X7439229Y-15610174D02*
X7448753Y-15572079D01*
X7448753Y-15572079D02*
X7458277Y-15553031D01*
X7458277Y-15553031D02*
X7467801Y-15543508D01*
X7467801Y-15543508D02*
X7486848Y-15533984D01*
X7667801Y-15619698D02*
X7648753Y-15610174D01*
X7648753Y-15610174D02*
X7639229Y-15600650D01*
X7639229Y-15600650D02*
X7629706Y-15581603D01*
X7629706Y-15581603D02*
X7629706Y-15572079D01*
X7629706Y-15572079D02*
X7639229Y-15553031D01*
X7639229Y-15553031D02*
X7648753Y-15543508D01*
X7648753Y-15543508D02*
X7667801Y-15533984D01*
X7667801Y-15533984D02*
X7705896Y-15533984D01*
X7705896Y-15533984D02*
X7724944Y-15543508D01*
X7724944Y-15543508D02*
X7734467Y-15553031D01*
X7734467Y-15553031D02*
X7743991Y-15572079D01*
X7743991Y-15572079D02*
X7743991Y-15581603D01*
X7743991Y-15581603D02*
X7734467Y-15600650D01*
X7734467Y-15600650D02*
X7724944Y-15610174D01*
X7724944Y-15610174D02*
X7705896Y-15619698D01*
X7705896Y-15619698D02*
X7667801Y-15619698D01*
X7667801Y-15619698D02*
X7648753Y-15629222D01*
X7648753Y-15629222D02*
X7639229Y-15638746D01*
X7639229Y-15638746D02*
X7629706Y-15657793D01*
X7629706Y-15657793D02*
X7629706Y-15695888D01*
X7629706Y-15695888D02*
X7639229Y-15714936D01*
X7639229Y-15714936D02*
X7648753Y-15724460D01*
X7648753Y-15724460D02*
X7667801Y-15733984D01*
X7667801Y-15733984D02*
X7705896Y-15733984D01*
X7705896Y-15733984D02*
X7724944Y-15724460D01*
X7724944Y-15724460D02*
X7734467Y-15714936D01*
X7734467Y-15714936D02*
X7743991Y-15695888D01*
X7743991Y-15695888D02*
X7743991Y-15657793D01*
X7743991Y-15657793D02*
X7734467Y-15638746D01*
X7734467Y-15638746D02*
X7724944Y-15629222D01*
X7724944Y-15629222D02*
X7705896Y-15619698D01*
X7915420Y-15533984D02*
X7877325Y-15533984D01*
X7877325Y-15533984D02*
X7858277Y-15543508D01*
X7858277Y-15543508D02*
X7848753Y-15553031D01*
X7848753Y-15553031D02*
X7829706Y-15581603D01*
X7829706Y-15581603D02*
X7820182Y-15619698D01*
X7820182Y-15619698D02*
X7820182Y-15695888D01*
X7820182Y-15695888D02*
X7829706Y-15714936D01*
X7829706Y-15714936D02*
X7839229Y-15724460D01*
X7839229Y-15724460D02*
X7858277Y-15733984D01*
X7858277Y-15733984D02*
X7896372Y-15733984D01*
X7896372Y-15733984D02*
X7915420Y-15724460D01*
X7915420Y-15724460D02*
X7924944Y-15714936D01*
X7924944Y-15714936D02*
X7934467Y-15695888D01*
X7934467Y-15695888D02*
X7934467Y-15648269D01*
X7934467Y-15648269D02*
X7924944Y-15629222D01*
X7924944Y-15629222D02*
X7915420Y-15619698D01*
X7915420Y-15619698D02*
X7896372Y-15610174D01*
X7896372Y-15610174D02*
X7858277Y-15610174D01*
X7858277Y-15610174D02*
X7839229Y-15619698D01*
X7839229Y-15619698D02*
X7829706Y-15629222D01*
X7829706Y-15629222D02*
X7820182Y-15648269D01*
X8105896Y-15533984D02*
X8067801Y-15533984D01*
X8067801Y-15533984D02*
X8048753Y-15543508D01*
X8048753Y-15543508D02*
X8039229Y-15553031D01*
X8039229Y-15553031D02*
X8020182Y-15581603D01*
X8020182Y-15581603D02*
X8010658Y-15619698D01*
X8010658Y-15619698D02*
X8010658Y-15695888D01*
X8010658Y-15695888D02*
X8020182Y-15714936D01*
X8020182Y-15714936D02*
X8029706Y-15724460D01*
X8029706Y-15724460D02*
X8048753Y-15733984D01*
X8048753Y-15733984D02*
X8086848Y-15733984D01*
X8086848Y-15733984D02*
X8105896Y-15724460D01*
X8105896Y-15724460D02*
X8115420Y-15714936D01*
X8115420Y-15714936D02*
X8124944Y-15695888D01*
X8124944Y-15695888D02*
X8124944Y-15648269D01*
X8124944Y-15648269D02*
X8115420Y-15629222D01*
X8115420Y-15629222D02*
X8105896Y-15619698D01*
X8105896Y-15619698D02*
X8086848Y-15610174D01*
X8086848Y-15610174D02*
X8048753Y-15610174D01*
X8048753Y-15610174D02*
X8029706Y-15619698D01*
X8029706Y-15619698D02*
X8020182Y-15629222D01*
X8020182Y-15629222D02*
X8010658Y-15648269D01*
X8201134Y-15533984D02*
X8201134Y-15572079D01*
X8277325Y-15533984D02*
X8277325Y-15572079D01*
X8572563Y-15810174D02*
X8563039Y-15800650D01*
X8563039Y-15800650D02*
X8543991Y-15772079D01*
X8543991Y-15772079D02*
X8534468Y-15753031D01*
X8534468Y-15753031D02*
X8524944Y-15724460D01*
X8524944Y-15724460D02*
X8515420Y-15676841D01*
X8515420Y-15676841D02*
X8515420Y-15638746D01*
X8515420Y-15638746D02*
X8524944Y-15591127D01*
X8524944Y-15591127D02*
X8534468Y-15562555D01*
X8534468Y-15562555D02*
X8543991Y-15543508D01*
X8543991Y-15543508D02*
X8563039Y-15514936D01*
X8563039Y-15514936D02*
X8572563Y-15505412D01*
X8753515Y-15733984D02*
X8639230Y-15733984D01*
X8696372Y-15733984D02*
X8696372Y-15533984D01*
X8696372Y-15533984D02*
X8677325Y-15562555D01*
X8677325Y-15562555D02*
X8658277Y-15581603D01*
X8658277Y-15581603D02*
X8639230Y-15591127D01*
X8829706Y-15553031D02*
X8839230Y-15543508D01*
X8839230Y-15543508D02*
X8858277Y-15533984D01*
X8858277Y-15533984D02*
X8905896Y-15533984D01*
X8905896Y-15533984D02*
X8924944Y-15543508D01*
X8924944Y-15543508D02*
X8934468Y-15553031D01*
X8934468Y-15553031D02*
X8943991Y-15572079D01*
X8943991Y-15572079D02*
X8943991Y-15591127D01*
X8943991Y-15591127D02*
X8934468Y-15619698D01*
X8934468Y-15619698D02*
X8820182Y-15733984D01*
X8820182Y-15733984D02*
X8943991Y-15733984D01*
X9182087Y-15733984D02*
X9182087Y-15533984D01*
X9267801Y-15733984D02*
X9267801Y-15629222D01*
X9267801Y-15629222D02*
X9258277Y-15610174D01*
X9258277Y-15610174D02*
X9239230Y-15600650D01*
X9239230Y-15600650D02*
X9210658Y-15600650D01*
X9210658Y-15600650D02*
X9191611Y-15610174D01*
X9191611Y-15610174D02*
X9182087Y-15619698D01*
X9391611Y-15733984D02*
X9372563Y-15724460D01*
X9372563Y-15724460D02*
X9363039Y-15714936D01*
X9363039Y-15714936D02*
X9353515Y-15695888D01*
X9353515Y-15695888D02*
X9353515Y-15638746D01*
X9353515Y-15638746D02*
X9363039Y-15619698D01*
X9363039Y-15619698D02*
X9372563Y-15610174D01*
X9372563Y-15610174D02*
X9391611Y-15600650D01*
X9391611Y-15600650D02*
X9420182Y-15600650D01*
X9420182Y-15600650D02*
X9439230Y-15610174D01*
X9439230Y-15610174D02*
X9448753Y-15619698D01*
X9448753Y-15619698D02*
X9458277Y-15638746D01*
X9458277Y-15638746D02*
X9458277Y-15695888D01*
X9458277Y-15695888D02*
X9448753Y-15714936D01*
X9448753Y-15714936D02*
X9439230Y-15724460D01*
X9439230Y-15724460D02*
X9420182Y-15733984D01*
X9420182Y-15733984D02*
X9391611Y-15733984D01*
X9572563Y-15733984D02*
X9553515Y-15724460D01*
X9553515Y-15724460D02*
X9543992Y-15705412D01*
X9543992Y-15705412D02*
X9543992Y-15533984D01*
X9724944Y-15724460D02*
X9705896Y-15733984D01*
X9705896Y-15733984D02*
X9667801Y-15733984D01*
X9667801Y-15733984D02*
X9648753Y-15724460D01*
X9648753Y-15724460D02*
X9639230Y-15705412D01*
X9639230Y-15705412D02*
X9639230Y-15629222D01*
X9639230Y-15629222D02*
X9648753Y-15610174D01*
X9648753Y-15610174D02*
X9667801Y-15600650D01*
X9667801Y-15600650D02*
X9705896Y-15600650D01*
X9705896Y-15600650D02*
X9724944Y-15610174D01*
X9724944Y-15610174D02*
X9734468Y-15629222D01*
X9734468Y-15629222D02*
X9734468Y-15648269D01*
X9734468Y-15648269D02*
X9639230Y-15667317D01*
X9810658Y-15724460D02*
X9829706Y-15733984D01*
X9829706Y-15733984D02*
X9867801Y-15733984D01*
X9867801Y-15733984D02*
X9886849Y-15724460D01*
X9886849Y-15724460D02*
X9896373Y-15705412D01*
X9896373Y-15705412D02*
X9896373Y-15695888D01*
X9896373Y-15695888D02*
X9886849Y-15676841D01*
X9886849Y-15676841D02*
X9867801Y-15667317D01*
X9867801Y-15667317D02*
X9839230Y-15667317D01*
X9839230Y-15667317D02*
X9820182Y-15657793D01*
X9820182Y-15657793D02*
X9810658Y-15638746D01*
X9810658Y-15638746D02*
X9810658Y-15629222D01*
X9810658Y-15629222D02*
X9820182Y-15610174D01*
X9820182Y-15610174D02*
X9839230Y-15600650D01*
X9839230Y-15600650D02*
X9867801Y-15600650D01*
X9867801Y-15600650D02*
X9886849Y-15610174D01*
X9963039Y-15810174D02*
X9972563Y-15800650D01*
X9972563Y-15800650D02*
X9991611Y-15772079D01*
X9991611Y-15772079D02*
X10001134Y-15753031D01*
X10001134Y-15753031D02*
X10010658Y-15724460D01*
X10010658Y-15724460D02*
X10020182Y-15676841D01*
X10020182Y-15676841D02*
X10020182Y-15638746D01*
X10020182Y-15638746D02*
X10010658Y-15591127D01*
X10010658Y-15591127D02*
X10001134Y-15562555D01*
X10001134Y-15562555D02*
X9991611Y-15543508D01*
X9991611Y-15543508D02*
X9972563Y-15514936D01*
X9972563Y-15514936D02*
X9963039Y-15505412D01*
X10324944Y-15810174D02*
X10315420Y-15800650D01*
X10315420Y-15800650D02*
X10296373Y-15772079D01*
X10296373Y-15772079D02*
X10286849Y-15753031D01*
X10286849Y-15753031D02*
X10277325Y-15724460D01*
X10277325Y-15724460D02*
X10267801Y-15676841D01*
X10267801Y-15676841D02*
X10267801Y-15638746D01*
X10267801Y-15638746D02*
X10277325Y-15591127D01*
X10277325Y-15591127D02*
X10286849Y-15562555D01*
X10286849Y-15562555D02*
X10296373Y-15543508D01*
X10296373Y-15543508D02*
X10315420Y-15514936D01*
X10315420Y-15514936D02*
X10324944Y-15505412D01*
X10401134Y-15600650D02*
X10401134Y-15733984D01*
X10401134Y-15619698D02*
X10410658Y-15610174D01*
X10410658Y-15610174D02*
X10429706Y-15600650D01*
X10429706Y-15600650D02*
X10458277Y-15600650D01*
X10458277Y-15600650D02*
X10477325Y-15610174D01*
X10477325Y-15610174D02*
X10486849Y-15629222D01*
X10486849Y-15629222D02*
X10486849Y-15733984D01*
X10610658Y-15733984D02*
X10591611Y-15724460D01*
X10591611Y-15724460D02*
X10582087Y-15714936D01*
X10582087Y-15714936D02*
X10572563Y-15695888D01*
X10572563Y-15695888D02*
X10572563Y-15638746D01*
X10572563Y-15638746D02*
X10582087Y-15619698D01*
X10582087Y-15619698D02*
X10591611Y-15610174D01*
X10591611Y-15610174D02*
X10610658Y-15600650D01*
X10610658Y-15600650D02*
X10639230Y-15600650D01*
X10639230Y-15600650D02*
X10658277Y-15610174D01*
X10658277Y-15610174D02*
X10667801Y-15619698D01*
X10667801Y-15619698D02*
X10677325Y-15638746D01*
X10677325Y-15638746D02*
X10677325Y-15695888D01*
X10677325Y-15695888D02*
X10667801Y-15714936D01*
X10667801Y-15714936D02*
X10658277Y-15724460D01*
X10658277Y-15724460D02*
X10639230Y-15733984D01*
X10639230Y-15733984D02*
X10610658Y-15733984D01*
X10734468Y-15600650D02*
X10810658Y-15600650D01*
X10763039Y-15533984D02*
X10763039Y-15705412D01*
X10763039Y-15705412D02*
X10772563Y-15724460D01*
X10772563Y-15724460D02*
X10791611Y-15733984D01*
X10791611Y-15733984D02*
X10810658Y-15733984D01*
X11029706Y-15600650D02*
X11029706Y-15800650D01*
X11029706Y-15610174D02*
X11048754Y-15600650D01*
X11048754Y-15600650D02*
X11086849Y-15600650D01*
X11086849Y-15600650D02*
X11105896Y-15610174D01*
X11105896Y-15610174D02*
X11115420Y-15619698D01*
X11115420Y-15619698D02*
X11124944Y-15638746D01*
X11124944Y-15638746D02*
X11124944Y-15695888D01*
X11124944Y-15695888D02*
X11115420Y-15714936D01*
X11115420Y-15714936D02*
X11105896Y-15724460D01*
X11105896Y-15724460D02*
X11086849Y-15733984D01*
X11086849Y-15733984D02*
X11048754Y-15733984D01*
X11048754Y-15733984D02*
X11029706Y-15724460D01*
X11239230Y-15733984D02*
X11220182Y-15724460D01*
X11220182Y-15724460D02*
X11210658Y-15705412D01*
X11210658Y-15705412D02*
X11210658Y-15533984D01*
X11401134Y-15733984D02*
X11401134Y-15629222D01*
X11401134Y-15629222D02*
X11391611Y-15610174D01*
X11391611Y-15610174D02*
X11372563Y-15600650D01*
X11372563Y-15600650D02*
X11334468Y-15600650D01*
X11334468Y-15600650D02*
X11315420Y-15610174D01*
X11401134Y-15724460D02*
X11382087Y-15733984D01*
X11382087Y-15733984D02*
X11334468Y-15733984D01*
X11334468Y-15733984D02*
X11315420Y-15724460D01*
X11315420Y-15724460D02*
X11305896Y-15705412D01*
X11305896Y-15705412D02*
X11305896Y-15686365D01*
X11305896Y-15686365D02*
X11315420Y-15667317D01*
X11315420Y-15667317D02*
X11334468Y-15657793D01*
X11334468Y-15657793D02*
X11382087Y-15657793D01*
X11382087Y-15657793D02*
X11401134Y-15648269D01*
X11467801Y-15600650D02*
X11543992Y-15600650D01*
X11496373Y-15533984D02*
X11496373Y-15705412D01*
X11496373Y-15705412D02*
X11505896Y-15724460D01*
X11505896Y-15724460D02*
X11524944Y-15733984D01*
X11524944Y-15733984D02*
X11543992Y-15733984D01*
X11686849Y-15724460D02*
X11667801Y-15733984D01*
X11667801Y-15733984D02*
X11629706Y-15733984D01*
X11629706Y-15733984D02*
X11610658Y-15724460D01*
X11610658Y-15724460D02*
X11601134Y-15705412D01*
X11601134Y-15705412D02*
X11601134Y-15629222D01*
X11601134Y-15629222D02*
X11610658Y-15610174D01*
X11610658Y-15610174D02*
X11629706Y-15600650D01*
X11629706Y-15600650D02*
X11667801Y-15600650D01*
X11667801Y-15600650D02*
X11686849Y-15610174D01*
X11686849Y-15610174D02*
X11696373Y-15629222D01*
X11696373Y-15629222D02*
X11696373Y-15648269D01*
X11696373Y-15648269D02*
X11601134Y-15667317D01*
X11867801Y-15733984D02*
X11867801Y-15533984D01*
X11867801Y-15724460D02*
X11848754Y-15733984D01*
X11848754Y-15733984D02*
X11810658Y-15733984D01*
X11810658Y-15733984D02*
X11791611Y-15724460D01*
X11791611Y-15724460D02*
X11782087Y-15714936D01*
X11782087Y-15714936D02*
X11772563Y-15695888D01*
X11772563Y-15695888D02*
X11772563Y-15638746D01*
X11772563Y-15638746D02*
X11782087Y-15619698D01*
X11782087Y-15619698D02*
X11791611Y-15610174D01*
X11791611Y-15610174D02*
X11810658Y-15600650D01*
X11810658Y-15600650D02*
X11848754Y-15600650D01*
X11848754Y-15600650D02*
X11867801Y-15610174D01*
X11943992Y-15810174D02*
X11953515Y-15800650D01*
X11953515Y-15800650D02*
X11972563Y-15772079D01*
X11972563Y-15772079D02*
X11982087Y-15753031D01*
X11982087Y-15753031D02*
X11991611Y-15724460D01*
X11991611Y-15724460D02*
X12001134Y-15676841D01*
X12001134Y-15676841D02*
X12001134Y-15638746D01*
X12001134Y-15638746D02*
X11991611Y-15591127D01*
X11991611Y-15591127D02*
X11982087Y-15562555D01*
X11982087Y-15562555D02*
X11972563Y-15543508D01*
X11972563Y-15543508D02*
X11953515Y-15514936D01*
X11953515Y-15514936D02*
X11943992Y-15505412D01*
M02*
