%TF.GenerationSoftware,KiCad,Pcbnew,8.0.6*%
%TF.CreationDate,2024-12-29T21:13:37+01:00*%
%TF.ProjectId,HomeAutomationESP32C2mini_2024_2,486f6d65-4175-4746-9f6d-6174696f6e45,rev?*%
%TF.SameCoordinates,Original*%
%TF.FileFunction,Drillmap*%
%TF.FilePolarity,Positive*%
%FSLAX45Y45*%
G04 Gerber Fmt 4.5, Leading zero omitted, Abs format (unit mm)*
G04 Created by KiCad (PCBNEW 8.0.6) date 2024-12-29 21:13:37*
%MOMM*%
%LPD*%
G01*
G04 APERTURE LIST*
%ADD10C,0.050000*%
%ADD11C,0.200000*%
%ADD12C,0.100000*%
%ADD13C,0.101600*%
%ADD14C,0.110000*%
%ADD15C,0.130000*%
%ADD16C,0.170000*%
G04 APERTURE END LIST*
D10*
X12000000Y-10000000D02*
X12100000Y-10000000D01*
X8200000Y-10500000D02*
X8200000Y-10600000D01*
X8500000Y-10250000D02*
X8600000Y-10250000D01*
X8950000Y-10600000D02*
X8950000Y-10500000D01*
X8500000Y-10800000D02*
X8600000Y-10800000D01*
X7300000Y-9300000D02*
X7300000Y-9200000D01*
X7300000Y-10000000D02*
X7300000Y-9900000D01*
X12100000Y-6000000D02*
X12000000Y-6000000D01*
X6700000Y-8650000D02*
X6700000Y-9150000D01*
X8150000Y-9200000D02*
X8150000Y-10000000D01*
X6150000Y-8650000D02*
X6700000Y-8650000D01*
X6050000Y-8750000D02*
X6050000Y-7050000D01*
X8600000Y-14100000D02*
X8600000Y-10800000D01*
X8200000Y-10600000D02*
X5400000Y-10600000D01*
X6600000Y-8750000D02*
X6050000Y-8750000D01*
X8950000Y-10600000D02*
X14500000Y-10600000D01*
X15000000Y-15000000D02*
X5600000Y-15000000D01*
X5400000Y-10500000D02*
X8200000Y-10500000D01*
X8050000Y-9300000D02*
X7300000Y-9300000D01*
X12100000Y-10000000D02*
X12100000Y-6000000D01*
X5400000Y-10600000D02*
X5400000Y-10500000D01*
X12000000Y-6000000D02*
X12000000Y-10000000D01*
X5000000Y-15000000D02*
X5000000Y-14300000D01*
X8600000Y-6000000D02*
X8600000Y-10250000D01*
X8500000Y-14100000D02*
X8600000Y-14100000D01*
X5000000Y-5000000D02*
X8500000Y-5000000D01*
X7300000Y-9900000D02*
X8050000Y-9900000D01*
X14500000Y-10600000D02*
X14500000Y-10500000D01*
X6050000Y-7050000D02*
X6150000Y-7050000D01*
X6150000Y-7050000D02*
X6150000Y-8650000D01*
X5000000Y-14300000D02*
X5000000Y-5000000D01*
X5600000Y-15000000D02*
X5000000Y-15000000D01*
X8500000Y-6000000D02*
X8600000Y-6000000D01*
X6700000Y-9150000D02*
X6600000Y-9150000D01*
X8150000Y-10000000D02*
X7300000Y-10000000D01*
X8500000Y-5400000D02*
X15000000Y-5400000D01*
X12100000Y-10500000D02*
X14500000Y-10500000D01*
X8050000Y-9900000D02*
X8050000Y-9300000D01*
X8500000Y-10800000D02*
X8500000Y-14100000D01*
X15000000Y-5400000D02*
X15000000Y-15000000D01*
X12100000Y-10500000D02*
X8950000Y-10500000D01*
X8500000Y-5000000D02*
X8500000Y-5400000D01*
X7300000Y-9200000D02*
X8150000Y-9200000D01*
X6600000Y-9150000D02*
X6600000Y-8750000D01*
X8500000Y-10250000D02*
X8500000Y-6000000D01*
D11*
D12*
X5485000Y-6785000D02*
X5515000Y-6815000D01*
X5515000Y-6785000D02*
X5485000Y-6815000D01*
X5935000Y-5185000D02*
X5965000Y-5215000D01*
X5965000Y-5185000D02*
X5935000Y-5215000D01*
X8785000Y-11685000D02*
X8815000Y-11715000D01*
X8815000Y-11685000D02*
X8785000Y-11715000D01*
X8785000Y-12135000D02*
X8815000Y-12165000D01*
X8815000Y-12135000D02*
X8785000Y-12165000D01*
X8785000Y-13385000D02*
X8815000Y-13415000D01*
X8815000Y-13385000D02*
X8785000Y-13415000D01*
X8785000Y-13935000D02*
X8815000Y-13965000D01*
X8815000Y-13935000D02*
X8785000Y-13965000D01*
X9135000Y-10735000D02*
X9165000Y-10765000D01*
X9165000Y-10735000D02*
X9135000Y-10765000D01*
X9385000Y-14135000D02*
X9415000Y-14165000D01*
X9415000Y-14135000D02*
X9385000Y-14165000D01*
X9485000Y-9485000D02*
X9515000Y-9515000D01*
X9515000Y-9485000D02*
X9485000Y-9515000D01*
X9485000Y-14585000D02*
X9515000Y-14615000D01*
X9515000Y-14585000D02*
X9485000Y-14615000D01*
X9585000Y-11435000D02*
X9615000Y-11465000D01*
X9615000Y-11435000D02*
X9585000Y-11465000D01*
X9585000Y-12335000D02*
X9615000Y-12365000D01*
X9615000Y-12335000D02*
X9585000Y-12365000D01*
X9585000Y-12735000D02*
X9615000Y-12765000D01*
X9615000Y-12735000D02*
X9585000Y-12765000D01*
X9585000Y-13485000D02*
X9615000Y-13515000D01*
X9615000Y-13485000D02*
X9585000Y-13515000D01*
X9735000Y-12135000D02*
X9765000Y-12165000D01*
X9765000Y-12135000D02*
X9735000Y-12165000D01*
X9785000Y-9885000D02*
X9815000Y-9915000D01*
X9815000Y-9885000D02*
X9785000Y-9915000D01*
X9835000Y-14585000D02*
X9865000Y-14615000D01*
X9865000Y-14585000D02*
X9835000Y-14615000D01*
X9885000Y-11685000D02*
X9915000Y-11715000D01*
X9915000Y-11685000D02*
X9885000Y-11715000D01*
X9935000Y-13135000D02*
X9965000Y-13165000D01*
X9965000Y-13135000D02*
X9935000Y-13165000D01*
X9935000Y-13385000D02*
X9965000Y-13415000D01*
X9965000Y-13385000D02*
X9935000Y-13415000D01*
X9935000Y-14385000D02*
X9965000Y-14415000D01*
X9965000Y-14385000D02*
X9935000Y-14415000D01*
X9985000Y-11085000D02*
X10015000Y-11115000D01*
X10015000Y-11085000D02*
X9985000Y-11115000D01*
X10035000Y-12585000D02*
X10065000Y-12615000D01*
X10065000Y-12585000D02*
X10035000Y-12615000D01*
X10085000Y-11335000D02*
X10115000Y-11365000D01*
X10115000Y-11335000D02*
X10085000Y-11365000D01*
X10135000Y-9885000D02*
X10165000Y-9915000D01*
X10165000Y-9885000D02*
X10135000Y-9915000D01*
X10335000Y-14335000D02*
X10365000Y-14365000D01*
X10365000Y-14335000D02*
X10335000Y-14365000D01*
X10385000Y-12485000D02*
X10415000Y-12515000D01*
X10415000Y-12485000D02*
X10385000Y-12515000D01*
X10435000Y-11085000D02*
X10465000Y-11115000D01*
X10465000Y-11085000D02*
X10435000Y-11115000D01*
X10435000Y-11685000D02*
X10465000Y-11715000D01*
X10465000Y-11685000D02*
X10435000Y-11715000D01*
X10435000Y-13135000D02*
X10465000Y-13165000D01*
X10465000Y-13135000D02*
X10435000Y-13165000D01*
X10510000Y-12085000D02*
X10540000Y-12115000D01*
X10540000Y-12085000D02*
X10510000Y-12115000D01*
X10585000Y-13835000D02*
X10615000Y-13865000D01*
X10615000Y-13835000D02*
X10585000Y-13865000D01*
X10635000Y-9885000D02*
X10665000Y-9915000D01*
X10665000Y-9885000D02*
X10635000Y-9915000D01*
X10685000Y-12785000D02*
X10715000Y-12815000D01*
X10715000Y-12785000D02*
X10685000Y-12815000D01*
X10735000Y-12435000D02*
X10765000Y-12465000D01*
X10765000Y-12435000D02*
X10735000Y-12465000D01*
X10823750Y-7735000D02*
X10853750Y-7765000D01*
X10853750Y-7735000D02*
X10823750Y-7765000D01*
X10910000Y-10665000D02*
X10940000Y-10695000D01*
X10940000Y-10665000D02*
X10910000Y-10695000D01*
X10910000Y-10755000D02*
X10940000Y-10785000D01*
X10940000Y-10755000D02*
X10910000Y-10785000D01*
X10935000Y-11235000D02*
X10965000Y-11265000D01*
X10965000Y-11235000D02*
X10935000Y-11265000D01*
X10935000Y-11735000D02*
X10965000Y-11765000D01*
X10965000Y-11735000D02*
X10935000Y-11765000D01*
X10985000Y-8685000D02*
X11015000Y-8715000D01*
X11015000Y-8685000D02*
X10985000Y-8715000D01*
X10985000Y-14585000D02*
X11015000Y-14615000D01*
X11015000Y-14585000D02*
X10985000Y-14615000D01*
X11085000Y-13835000D02*
X11115000Y-13865000D01*
X11115000Y-13835000D02*
X11085000Y-13865000D01*
X11135000Y-7735000D02*
X11165000Y-7765000D01*
X11165000Y-7735000D02*
X11135000Y-7765000D01*
X11135000Y-9885000D02*
X11165000Y-9915000D01*
X11165000Y-9885000D02*
X11135000Y-9915000D01*
X11185000Y-10885000D02*
X11215000Y-10915000D01*
X11215000Y-10885000D02*
X11185000Y-10915000D01*
X11235000Y-13335000D02*
X11265000Y-13365000D01*
X11265000Y-13335000D02*
X11235000Y-13365000D01*
X11435000Y-10345000D02*
X11465000Y-10375000D01*
X11465000Y-10345000D02*
X11435000Y-10375000D01*
X11435000Y-13185000D02*
X11465000Y-13215000D01*
X11465000Y-13185000D02*
X11435000Y-13215000D01*
X11485000Y-10785000D02*
X11515000Y-10815000D01*
X11515000Y-10785000D02*
X11485000Y-10815000D01*
X11485000Y-10785000D02*
X11515000Y-10815000D01*
X11515000Y-10785000D02*
X11485000Y-10815000D01*
X11485000Y-13585000D02*
X11515000Y-13615000D01*
X11515000Y-13585000D02*
X11485000Y-13615000D01*
X11485000Y-14435000D02*
X11515000Y-14465000D01*
X11515000Y-14435000D02*
X11485000Y-14465000D01*
X11635000Y-12385000D02*
X11665000Y-12415000D01*
X11665000Y-12385000D02*
X11635000Y-12415000D01*
X11655000Y-11610000D02*
X11685000Y-11640000D01*
X11685000Y-11610000D02*
X11655000Y-11640000D01*
X11655000Y-11860000D02*
X11685000Y-11890000D01*
X11685000Y-11860000D02*
X11655000Y-11890000D01*
X11655000Y-12885000D02*
X11685000Y-12915000D01*
X11685000Y-12885000D02*
X11655000Y-12915000D01*
X11735000Y-14085000D02*
X11765000Y-14115000D01*
X11765000Y-14085000D02*
X11735000Y-14115000D01*
X11815000Y-11610000D02*
X11845000Y-11640000D01*
X11845000Y-11610000D02*
X11815000Y-11640000D01*
X11835000Y-11860000D02*
X11865000Y-11890000D01*
X11865000Y-11860000D02*
X11835000Y-11890000D01*
X11835000Y-12385000D02*
X11865000Y-12415000D01*
X11865000Y-12385000D02*
X11835000Y-12415000D01*
X11835000Y-12885000D02*
X11865000Y-12915000D01*
X11865000Y-12885000D02*
X11835000Y-12915000D01*
X12035000Y-10185000D02*
X12065000Y-10215000D01*
X12065000Y-10185000D02*
X12035000Y-10215000D01*
X12035000Y-13185000D02*
X12065000Y-13215000D01*
X12065000Y-13185000D02*
X12035000Y-13215000D01*
X12035000Y-13585000D02*
X12065000Y-13615000D01*
X12065000Y-13585000D02*
X12035000Y-13615000D01*
X12285000Y-14335000D02*
X12315000Y-14365000D01*
X12315000Y-14335000D02*
X12285000Y-14365000D01*
X12285000Y-14785000D02*
X12315000Y-14815000D01*
X12315000Y-14785000D02*
X12285000Y-14815000D01*
X12435000Y-13185000D02*
X12465000Y-13215000D01*
X12465000Y-13185000D02*
X12435000Y-13215000D01*
X12435000Y-13735000D02*
X12465000Y-13765000D01*
X12465000Y-13735000D02*
X12435000Y-13765000D01*
X12585000Y-11235000D02*
X12615000Y-11265000D01*
X12615000Y-11235000D02*
X12585000Y-11265000D01*
X12585000Y-11735000D02*
X12615000Y-11765000D01*
X12615000Y-11735000D02*
X12585000Y-11765000D01*
X12635000Y-12085000D02*
X12665000Y-12115000D01*
X12665000Y-12085000D02*
X12635000Y-12115000D01*
X12750891Y-12625891D02*
X12780891Y-12655891D01*
X12780891Y-12625891D02*
X12750891Y-12655891D01*
X12804681Y-11790319D02*
X12834681Y-11820319D01*
X12834681Y-11790319D02*
X12804681Y-11820319D01*
X12860000Y-12760000D02*
X12890000Y-12790000D01*
X12890000Y-12760000D02*
X12860000Y-12790000D01*
X12917819Y-11677181D02*
X12947819Y-11707181D01*
X12947819Y-11677181D02*
X12917819Y-11707181D01*
X12935000Y-14085000D02*
X12965000Y-14115000D01*
X12965000Y-14085000D02*
X12935000Y-14115000D01*
X13085000Y-10035000D02*
X13115000Y-10065000D01*
X13115000Y-10035000D02*
X13085000Y-10065000D01*
X13335000Y-9735000D02*
X13365000Y-9765000D01*
X13365000Y-9735000D02*
X13335000Y-9765000D01*
X13435000Y-14835000D02*
X13465000Y-14865000D01*
X13465000Y-14835000D02*
X13435000Y-14865000D01*
X13535000Y-13885000D02*
X13565000Y-13915000D01*
X13565000Y-13885000D02*
X13535000Y-13915000D01*
X13535000Y-14385000D02*
X13565000Y-14415000D01*
X13565000Y-14385000D02*
X13535000Y-14415000D01*
X14185000Y-8535000D02*
X14215000Y-8565000D01*
X14215000Y-8535000D02*
X14185000Y-8565000D01*
X14185000Y-8664000D02*
X14215000Y-8694000D01*
X14215000Y-8664000D02*
X14185000Y-8694000D01*
X14385000Y-10735000D02*
X14415000Y-10765000D01*
X14415000Y-10735000D02*
X14385000Y-10765000D01*
X14385000Y-14835000D02*
X14415000Y-14865000D01*
X14415000Y-14835000D02*
X14385000Y-14865000D01*
X14585000Y-8085000D02*
X14615000Y-8115000D01*
X14615000Y-8085000D02*
X14585000Y-8115000D01*
X14835000Y-11135000D02*
X14865000Y-11165000D01*
X14865000Y-11135000D02*
X14835000Y-11165000D01*
X14835000Y-11635000D02*
X14865000Y-11665000D01*
X14865000Y-11635000D02*
X14835000Y-11665000D01*
X14835000Y-13735000D02*
X14865000Y-13765000D01*
X14865000Y-13735000D02*
X14835000Y-13765000D01*
X14835000Y-14385000D02*
X14865000Y-14415000D01*
X14865000Y-14385000D02*
X14835000Y-14415000D01*
X5430000Y-9900000D02*
G75*
G02*
X5370000Y-9900000I-30000J0D01*
G01*
X5370000Y-9900000D02*
G75*
G02*
X5430000Y-9900000I30000J0D01*
G01*
X5500000Y-11600000D02*
G75*
G02*
X5440000Y-11600000I-30000J0D01*
G01*
X5440000Y-11600000D02*
G75*
G02*
X5500000Y-11600000I30000J0D01*
G01*
X5660000Y-9400000D02*
G75*
G02*
X5600000Y-9400000I-30000J0D01*
G01*
X5600000Y-9400000D02*
G75*
G02*
X5660000Y-9400000I30000J0D01*
G01*
X5730000Y-11100000D02*
G75*
G02*
X5670000Y-11100000I-30000J0D01*
G01*
X5670000Y-11100000D02*
G75*
G02*
X5730000Y-11100000I30000J0D01*
G01*
X9214000Y-8585500D02*
X9214000Y-8660500D01*
X9176500Y-8623000D02*
X9251500Y-8623000D01*
X9214000Y-8712500D02*
X9214000Y-8787500D01*
X9176500Y-8750000D02*
X9251500Y-8750000D01*
X9214000Y-8839500D02*
X9214000Y-8914500D01*
X9176500Y-8877000D02*
X9251500Y-8877000D01*
X9300000Y-9212500D02*
X9300000Y-9287500D01*
X9262500Y-9250000D02*
X9337500Y-9250000D01*
X9300000Y-9339500D02*
X9300000Y-9414500D01*
X9262500Y-9377000D02*
X9337500Y-9377000D01*
X9300000Y-9466500D02*
X9300000Y-9541500D01*
X9262500Y-9504000D02*
X9337500Y-9504000D01*
X12696000Y-10162500D02*
X12696000Y-10237500D01*
X12658500Y-10200000D02*
X12733500Y-10200000D01*
X12823000Y-10162500D02*
X12823000Y-10237500D01*
X12785500Y-10200000D02*
X12860500Y-10200000D01*
X12950000Y-10162500D02*
X12950000Y-10237500D01*
X12912500Y-10200000D02*
X12987500Y-10200000D01*
X14415000Y-5962500D02*
X14415000Y-6037500D01*
X14377500Y-6000000D02*
X14452500Y-6000000D01*
X14542000Y-5962500D02*
X14542000Y-6037500D01*
X14504500Y-6000000D02*
X14579500Y-6000000D01*
X14669000Y-5962500D02*
X14669000Y-6037500D01*
X14631500Y-6000000D02*
X14706500Y-6000000D01*
X5678284Y-13278284D02*
X5678284Y-13221715D01*
X5621715Y-13221715D01*
X5621715Y-13278284D01*
X5678284Y-13278284D01*
X5678284Y-13786284D02*
X5678284Y-13729715D01*
X5621715Y-13729715D01*
X5621715Y-13786284D01*
X5678284Y-13786284D01*
X10039285Y-8566285D02*
X10039285Y-8509716D01*
X9982716Y-8509716D01*
X9982716Y-8566285D01*
X10039285Y-8566285D01*
X10039285Y-10090285D02*
X10039285Y-10033716D01*
X9982716Y-10033716D01*
X9982716Y-10090285D01*
X10039285Y-10090285D01*
X10293285Y-8566285D02*
X10293285Y-8509716D01*
X10236716Y-8509716D01*
X10236716Y-8566285D01*
X10293285Y-8566285D01*
X10293285Y-10090285D02*
X10293285Y-10033716D01*
X10236716Y-10033716D01*
X10236716Y-10090285D01*
X10293285Y-10090285D01*
X10547285Y-8566285D02*
X10547285Y-8509716D01*
X10490716Y-8509716D01*
X10490716Y-8566285D01*
X10547285Y-8566285D01*
X10547285Y-10090285D02*
X10547285Y-10033716D01*
X10490716Y-10033716D01*
X10490716Y-10090285D01*
X10547285Y-10090285D01*
X10801285Y-8566285D02*
X10801285Y-8509716D01*
X10744716Y-8509716D01*
X10744716Y-8566285D01*
X10801285Y-8566285D01*
X10801285Y-10090285D02*
X10801285Y-10033716D01*
X10744716Y-10033716D01*
X10744716Y-10090285D01*
X10801285Y-10090285D01*
X11055285Y-8566285D02*
X11055285Y-8509716D01*
X10998716Y-8509716D01*
X10998716Y-8566285D01*
X11055285Y-8566285D01*
X11055285Y-10090285D02*
X11055285Y-10033716D01*
X10998716Y-10033716D01*
X10998716Y-10090285D01*
X11055285Y-10090285D01*
X11309284Y-8566285D02*
X11309284Y-8509716D01*
X11252715Y-8509716D01*
X11252715Y-8566285D01*
X11309284Y-8566285D01*
X11309284Y-10090285D02*
X11309284Y-10033716D01*
X11252715Y-10033716D01*
X11252715Y-10090285D01*
X11309284Y-10090285D01*
X11563284Y-8566285D02*
X11563284Y-8509716D01*
X11506715Y-8509716D01*
X11506715Y-8566285D01*
X11563284Y-8566285D01*
X11563284Y-10090285D02*
X11563284Y-10033716D01*
X11506715Y-10033716D01*
X11506715Y-10090285D01*
X11563284Y-10090285D01*
X11817284Y-8566285D02*
X11817284Y-8509716D01*
X11760715Y-8509716D01*
X11760715Y-8566285D01*
X11817284Y-8566285D01*
X11817284Y-10090285D02*
X11817284Y-10033716D01*
X11760715Y-10033716D01*
X11760715Y-10090285D01*
X11817284Y-10090285D01*
X12854284Y-8139284D02*
X12854284Y-8082715D01*
X12797715Y-8082715D01*
X12797715Y-8139284D01*
X12854284Y-8139284D01*
X12854284Y-8393285D02*
X12854284Y-8336715D01*
X12797715Y-8336715D01*
X12797715Y-8393285D01*
X12854284Y-8393285D01*
X12854284Y-8647285D02*
X12854284Y-8590716D01*
X12797715Y-8590716D01*
X12797715Y-8647285D01*
X12854284Y-8647285D01*
X12854284Y-8901285D02*
X12854284Y-8844716D01*
X12797715Y-8844716D01*
X12797715Y-8901285D01*
X12854284Y-8901285D01*
X12854284Y-9155285D02*
X12854284Y-9098716D01*
X12797715Y-9098716D01*
X12797715Y-9155285D01*
X12854284Y-9155285D01*
X12854284Y-9409285D02*
X12854284Y-9352716D01*
X12797715Y-9352716D01*
X12797715Y-9409285D01*
X12854284Y-9409285D01*
X12854284Y-9663285D02*
X12854284Y-9606716D01*
X12797715Y-9606716D01*
X12797715Y-9663285D01*
X12854284Y-9663285D01*
X12854284Y-9917285D02*
X12854284Y-9860716D01*
X12797715Y-9860716D01*
X12797715Y-9917285D01*
X12854284Y-9917285D01*
X12966284Y-7038284D02*
X12966284Y-6981715D01*
X12909715Y-6981715D01*
X12909715Y-7038284D01*
X12966284Y-7038284D01*
X13220284Y-7038284D02*
X13220284Y-6981715D01*
X13163715Y-6981715D01*
X13163715Y-7038284D01*
X13220284Y-7038284D01*
X13474284Y-7038284D02*
X13474284Y-6981715D01*
X13417715Y-6981715D01*
X13417715Y-7038284D01*
X13474284Y-7038284D01*
X13728284Y-7038284D02*
X13728284Y-6981715D01*
X13671715Y-6981715D01*
X13671715Y-7038284D01*
X13728284Y-7038284D01*
X14378284Y-8139284D02*
X14378284Y-8082715D01*
X14321715Y-8082715D01*
X14321715Y-8139284D01*
X14378284Y-8139284D01*
X14378284Y-8393285D02*
X14378284Y-8336715D01*
X14321715Y-8336715D01*
X14321715Y-8393285D01*
X14378284Y-8393285D01*
X14378284Y-8647285D02*
X14378284Y-8590716D01*
X14321715Y-8590716D01*
X14321715Y-8647285D01*
X14378284Y-8647285D01*
X14378284Y-8901285D02*
X14378284Y-8844716D01*
X14321715Y-8844716D01*
X14321715Y-8901285D01*
X14378284Y-8901285D01*
X14378284Y-9155285D02*
X14378284Y-9098716D01*
X14321715Y-9098716D01*
X14321715Y-9155285D01*
X14378284Y-9155285D01*
X14378284Y-9409285D02*
X14378284Y-9352716D01*
X14321715Y-9352716D01*
X14321715Y-9409285D01*
X14378284Y-9409285D01*
X14378284Y-9663285D02*
X14378284Y-9606716D01*
X14321715Y-9606716D01*
X14321715Y-9663285D01*
X14378284Y-9663285D01*
X14378284Y-9917285D02*
X14378284Y-9860716D01*
X14321715Y-9860716D01*
X14321715Y-9917285D01*
X14378284Y-9917285D01*
X11622500Y-6870000D02*
X11667500Y-6825000D01*
X11622500Y-6780000D01*
X11577500Y-6825000D01*
X11622500Y-6870000D01*
X11622500Y-7620000D02*
X11667500Y-7575000D01*
X11622500Y-7530000D01*
X11577500Y-7575000D01*
X11622500Y-7620000D01*
X11876500Y-6870000D02*
X11921500Y-6825000D01*
X11876500Y-6780000D01*
X11831500Y-6825000D01*
X11876500Y-6870000D01*
X11876500Y-7620000D02*
X11921500Y-7575000D01*
X11876500Y-7530000D01*
X11831500Y-7575000D01*
X11876500Y-7620000D01*
X12300000Y-6045000D02*
X12345000Y-6000000D01*
X12300000Y-5955000D01*
X12255000Y-6000000D01*
X12300000Y-6045000D01*
X12554000Y-6045000D02*
X12599000Y-6000000D01*
X12554000Y-5955000D01*
X12509000Y-6000000D01*
X12554000Y-6045000D01*
X12800000Y-6045000D02*
X12845000Y-6000000D01*
X12800000Y-5955000D01*
X12755000Y-6000000D01*
X12800000Y-6045000D01*
X13054000Y-6045000D02*
X13099000Y-6000000D01*
X13054000Y-5955000D01*
X13009000Y-6000000D01*
X13054000Y-6045000D01*
X6250000Y-13908000D02*
X6350000Y-14008000D01*
X6350000Y-13908000D02*
X6250000Y-14008000D01*
X6350000Y-13958000D02*
G75*
G02*
X6250000Y-13958000I-50000J0D01*
G01*
X6250000Y-13958000D02*
G75*
G02*
X6350000Y-13958000I50000J0D01*
G01*
X6350000Y-8308250D02*
X6450000Y-8408250D01*
X6450000Y-8308250D02*
X6350000Y-8408250D01*
X6450000Y-8358250D02*
G75*
G02*
X6350000Y-8358250I-50000J0D01*
G01*
X6350000Y-8358250D02*
G75*
G02*
X6450000Y-8358250I50000J0D01*
G01*
X6750000Y-11000000D02*
X6850000Y-11100000D01*
X6850000Y-11000000D02*
X6750000Y-11100000D01*
X6850000Y-11050000D02*
G75*
G02*
X6750000Y-11050000I-50000J0D01*
G01*
X6750000Y-11050000D02*
G75*
G02*
X6850000Y-11050000I50000J0D01*
G01*
X6850000Y-5400250D02*
X6950000Y-5500250D01*
X6950000Y-5400250D02*
X6850000Y-5500250D01*
X6950000Y-5450250D02*
G75*
G02*
X6850000Y-5450250I-50000J0D01*
G01*
X6850000Y-5450250D02*
G75*
G02*
X6950000Y-5450250I50000J0D01*
G01*
X7250000Y-11000000D02*
X7350000Y-11100000D01*
X7350000Y-11000000D02*
X7250000Y-11100000D01*
X7350000Y-11050000D02*
G75*
G02*
X7250000Y-11050000I-50000J0D01*
G01*
X7250000Y-11050000D02*
G75*
G02*
X7350000Y-11050000I50000J0D01*
G01*
X7350000Y-5400250D02*
X7450000Y-5500250D01*
X7450000Y-5400250D02*
X7350000Y-5500250D01*
X7450000Y-5450250D02*
G75*
G02*
X7350000Y-5450250I-50000J0D01*
G01*
X7350000Y-5450250D02*
G75*
G02*
X7450000Y-5450250I50000J0D01*
G01*
X7570000Y-8950000D02*
X7670000Y-9050000D01*
X7670000Y-8950000D02*
X7570000Y-9050000D01*
X7670000Y-9000000D02*
G75*
G02*
X7570000Y-9000000I-50000J0D01*
G01*
X7570000Y-9000000D02*
G75*
G02*
X7670000Y-9000000I50000J0D01*
G01*
X7570000Y-10150000D02*
X7670000Y-10250000D01*
X7670000Y-10150000D02*
X7570000Y-10250000D01*
X7670000Y-10200000D02*
G75*
G02*
X7570000Y-10200000I-50000J0D01*
G01*
X7570000Y-10200000D02*
G75*
G02*
X7670000Y-10200000I50000J0D01*
G01*
X7750000Y-13908000D02*
X7850000Y-14008000D01*
X7850000Y-13908000D02*
X7750000Y-14008000D01*
X7850000Y-13958000D02*
G75*
G02*
X7750000Y-13958000I-50000J0D01*
G01*
X7750000Y-13958000D02*
G75*
G02*
X7850000Y-13958000I50000J0D01*
G01*
X7850000Y-8308250D02*
X7950000Y-8408250D01*
X7950000Y-8308250D02*
X7850000Y-8408250D01*
X7950000Y-8358250D02*
G75*
G02*
X7850000Y-8358250I-50000J0D01*
G01*
X7850000Y-8358250D02*
G75*
G02*
X7950000Y-8358250I50000J0D01*
G01*
X9788000Y-6490000D02*
X9888000Y-6590000D01*
X9888000Y-6490000D02*
X9788000Y-6590000D01*
X9888000Y-6540000D02*
G75*
G02*
X9788000Y-6540000I-50000J0D01*
G01*
X9788000Y-6540000D02*
G75*
G02*
X9888000Y-6540000I50000J0D01*
G01*
X9792000Y-6150000D02*
X9892000Y-6250000D01*
X9892000Y-6150000D02*
X9792000Y-6250000D01*
X9892000Y-6200000D02*
G75*
G02*
X9792000Y-6200000I-50000J0D01*
G01*
X9792000Y-6200000D02*
G75*
G02*
X9892000Y-6200000I50000J0D01*
G01*
X10042000Y-6490000D02*
X10142000Y-6590000D01*
X10142000Y-6490000D02*
X10042000Y-6590000D01*
X10142000Y-6540000D02*
G75*
G02*
X10042000Y-6540000I-50000J0D01*
G01*
X10042000Y-6540000D02*
G75*
G02*
X10142000Y-6540000I50000J0D01*
G01*
X10046000Y-6150000D02*
X10146000Y-6250000D01*
X10146000Y-6150000D02*
X10046000Y-6250000D01*
X10146000Y-6200000D02*
G75*
G02*
X10046000Y-6200000I-50000J0D01*
G01*
X10046000Y-6200000D02*
G75*
G02*
X10146000Y-6200000I50000J0D01*
G01*
X10296000Y-6490000D02*
X10396000Y-6590000D01*
X10396000Y-6490000D02*
X10296000Y-6590000D01*
X10396000Y-6540000D02*
G75*
G02*
X10296000Y-6540000I-50000J0D01*
G01*
X10296000Y-6540000D02*
G75*
G02*
X10396000Y-6540000I50000J0D01*
G01*
X10300000Y-6150000D02*
X10400000Y-6250000D01*
X10400000Y-6150000D02*
X10300000Y-6250000D01*
X10400000Y-6200000D02*
G75*
G02*
X10300000Y-6200000I-50000J0D01*
G01*
X10300000Y-6200000D02*
G75*
G02*
X10400000Y-6200000I50000J0D01*
G01*
X10550000Y-6490000D02*
X10650000Y-6590000D01*
X10650000Y-6490000D02*
X10550000Y-6590000D01*
X10650000Y-6540000D02*
G75*
G02*
X10550000Y-6540000I-50000J0D01*
G01*
X10550000Y-6540000D02*
G75*
G02*
X10650000Y-6540000I50000J0D01*
G01*
X10554000Y-6150000D02*
X10654000Y-6250000D01*
X10654000Y-6150000D02*
X10554000Y-6250000D01*
X10654000Y-6200000D02*
G75*
G02*
X10554000Y-6200000I-50000J0D01*
G01*
X10554000Y-6200000D02*
G75*
G02*
X10654000Y-6200000I50000J0D01*
G01*
X11122500Y-11072000D02*
X11222500Y-11172000D01*
X11222500Y-11072000D02*
X11122500Y-11172000D01*
X11222500Y-11122000D02*
G75*
G02*
X11122500Y-11122000I-50000J0D01*
G01*
X11122500Y-11122000D02*
G75*
G02*
X11222500Y-11122000I50000J0D01*
G01*
X11122500Y-11326000D02*
X11222500Y-11426000D01*
X11222500Y-11326000D02*
X11122500Y-11426000D01*
X11222500Y-11376000D02*
G75*
G02*
X11122500Y-11376000I-50000J0D01*
G01*
X11122500Y-11376000D02*
G75*
G02*
X11222500Y-11376000I50000J0D01*
G01*
X11122500Y-11580000D02*
X11222500Y-11680000D01*
X11222500Y-11580000D02*
X11122500Y-11680000D01*
X11222500Y-11630000D02*
G75*
G02*
X11122500Y-11630000I-50000J0D01*
G01*
X11122500Y-11630000D02*
G75*
G02*
X11222500Y-11630000I50000J0D01*
G01*
X11122500Y-11834000D02*
X11222500Y-11934000D01*
X11222500Y-11834000D02*
X11122500Y-11934000D01*
X11222500Y-11884000D02*
G75*
G02*
X11122500Y-11884000I-50000J0D01*
G01*
X11122500Y-11884000D02*
G75*
G02*
X11222500Y-11884000I50000J0D01*
G01*
X11122500Y-12088000D02*
X11222500Y-12188000D01*
X11222500Y-12088000D02*
X11122500Y-12188000D01*
X11222500Y-12138000D02*
G75*
G02*
X11122500Y-12138000I-50000J0D01*
G01*
X11122500Y-12138000D02*
G75*
G02*
X11222500Y-12138000I50000J0D01*
G01*
X11122500Y-12342000D02*
X11222500Y-12442000D01*
X11222500Y-12342000D02*
X11122500Y-12442000D01*
X11222500Y-12392000D02*
G75*
G02*
X11122500Y-12392000I-50000J0D01*
G01*
X11122500Y-12392000D02*
G75*
G02*
X11222500Y-12392000I50000J0D01*
G01*
X11122500Y-12596000D02*
X11222500Y-12696000D01*
X11222500Y-12596000D02*
X11122500Y-12696000D01*
X11222500Y-12646000D02*
G75*
G02*
X11122500Y-12646000I-50000J0D01*
G01*
X11122500Y-12646000D02*
G75*
G02*
X11222500Y-12646000I50000J0D01*
G01*
X11122500Y-12850000D02*
X11222500Y-12950000D01*
X11222500Y-12850000D02*
X11122500Y-12950000D01*
X11222500Y-12900000D02*
G75*
G02*
X11122500Y-12900000I-50000J0D01*
G01*
X11122500Y-12900000D02*
G75*
G02*
X11222500Y-12900000I50000J0D01*
G01*
X11376500Y-11072000D02*
X11476500Y-11172000D01*
X11476500Y-11072000D02*
X11376500Y-11172000D01*
X11476500Y-11122000D02*
G75*
G02*
X11376500Y-11122000I-50000J0D01*
G01*
X11376500Y-11122000D02*
G75*
G02*
X11476500Y-11122000I50000J0D01*
G01*
X11376500Y-11326000D02*
X11476500Y-11426000D01*
X11476500Y-11326000D02*
X11376500Y-11426000D01*
X11476500Y-11376000D02*
G75*
G02*
X11376500Y-11376000I-50000J0D01*
G01*
X11376500Y-11376000D02*
G75*
G02*
X11476500Y-11376000I50000J0D01*
G01*
X11376500Y-11580000D02*
X11476500Y-11680000D01*
X11476500Y-11580000D02*
X11376500Y-11680000D01*
X11476500Y-11630000D02*
G75*
G02*
X11376500Y-11630000I-50000J0D01*
G01*
X11376500Y-11630000D02*
G75*
G02*
X11476500Y-11630000I50000J0D01*
G01*
X11376500Y-11834000D02*
X11476500Y-11934000D01*
X11476500Y-11834000D02*
X11376500Y-11934000D01*
X11476500Y-11884000D02*
G75*
G02*
X11376500Y-11884000I-50000J0D01*
G01*
X11376500Y-11884000D02*
G75*
G02*
X11476500Y-11884000I50000J0D01*
G01*
X11376500Y-12088000D02*
X11476500Y-12188000D01*
X11476500Y-12088000D02*
X11376500Y-12188000D01*
X11476500Y-12138000D02*
G75*
G02*
X11376500Y-12138000I-50000J0D01*
G01*
X11376500Y-12138000D02*
G75*
G02*
X11476500Y-12138000I50000J0D01*
G01*
X11376500Y-12342000D02*
X11476500Y-12442000D01*
X11476500Y-12342000D02*
X11376500Y-12442000D01*
X11476500Y-12392000D02*
G75*
G02*
X11376500Y-12392000I-50000J0D01*
G01*
X11376500Y-12392000D02*
G75*
G02*
X11476500Y-12392000I50000J0D01*
G01*
X11376500Y-12596000D02*
X11476500Y-12696000D01*
X11476500Y-12596000D02*
X11376500Y-12696000D01*
X11476500Y-12646000D02*
G75*
G02*
X11376500Y-12646000I-50000J0D01*
G01*
X11376500Y-12646000D02*
G75*
G02*
X11476500Y-12646000I50000J0D01*
G01*
X11376500Y-12850000D02*
X11476500Y-12950000D01*
X11476500Y-12850000D02*
X11376500Y-12950000D01*
X11476500Y-12900000D02*
G75*
G02*
X11376500Y-12900000I-50000J0D01*
G01*
X11376500Y-12900000D02*
G75*
G02*
X11476500Y-12900000I50000J0D01*
G01*
X12125000Y-11072000D02*
X12225000Y-11172000D01*
X12225000Y-11072000D02*
X12125000Y-11172000D01*
X12225000Y-11122000D02*
G75*
G02*
X12125000Y-11122000I-50000J0D01*
G01*
X12125000Y-11122000D02*
G75*
G02*
X12225000Y-11122000I50000J0D01*
G01*
X12125000Y-11326000D02*
X12225000Y-11426000D01*
X12225000Y-11326000D02*
X12125000Y-11426000D01*
X12225000Y-11376000D02*
G75*
G02*
X12125000Y-11376000I-50000J0D01*
G01*
X12125000Y-11376000D02*
G75*
G02*
X12225000Y-11376000I50000J0D01*
G01*
X12125000Y-11580000D02*
X12225000Y-11680000D01*
X12225000Y-11580000D02*
X12125000Y-11680000D01*
X12225000Y-11630000D02*
G75*
G02*
X12125000Y-11630000I-50000J0D01*
G01*
X12125000Y-11630000D02*
G75*
G02*
X12225000Y-11630000I50000J0D01*
G01*
X12125000Y-11834000D02*
X12225000Y-11934000D01*
X12225000Y-11834000D02*
X12125000Y-11934000D01*
X12225000Y-11884000D02*
G75*
G02*
X12125000Y-11884000I-50000J0D01*
G01*
X12125000Y-11884000D02*
G75*
G02*
X12225000Y-11884000I50000J0D01*
G01*
X12125000Y-12088000D02*
X12225000Y-12188000D01*
X12225000Y-12088000D02*
X12125000Y-12188000D01*
X12225000Y-12138000D02*
G75*
G02*
X12125000Y-12138000I-50000J0D01*
G01*
X12125000Y-12138000D02*
G75*
G02*
X12225000Y-12138000I50000J0D01*
G01*
X12125000Y-12342000D02*
X12225000Y-12442000D01*
X12225000Y-12342000D02*
X12125000Y-12442000D01*
X12225000Y-12392000D02*
G75*
G02*
X12125000Y-12392000I-50000J0D01*
G01*
X12125000Y-12392000D02*
G75*
G02*
X12225000Y-12392000I50000J0D01*
G01*
X12125000Y-12596000D02*
X12225000Y-12696000D01*
X12225000Y-12596000D02*
X12125000Y-12696000D01*
X12225000Y-12646000D02*
G75*
G02*
X12125000Y-12646000I-50000J0D01*
G01*
X12125000Y-12646000D02*
G75*
G02*
X12225000Y-12646000I50000J0D01*
G01*
X12125000Y-12850000D02*
X12225000Y-12950000D01*
X12225000Y-12850000D02*
X12125000Y-12950000D01*
X12225000Y-12900000D02*
G75*
G02*
X12125000Y-12900000I-50000J0D01*
G01*
X12125000Y-12900000D02*
G75*
G02*
X12225000Y-12900000I50000J0D01*
G01*
X12379000Y-11072000D02*
X12479000Y-11172000D01*
X12479000Y-11072000D02*
X12379000Y-11172000D01*
X12479000Y-11122000D02*
G75*
G02*
X12379000Y-11122000I-50000J0D01*
G01*
X12379000Y-11122000D02*
G75*
G02*
X12479000Y-11122000I50000J0D01*
G01*
X12379000Y-11326000D02*
X12479000Y-11426000D01*
X12479000Y-11326000D02*
X12379000Y-11426000D01*
X12479000Y-11376000D02*
G75*
G02*
X12379000Y-11376000I-50000J0D01*
G01*
X12379000Y-11376000D02*
G75*
G02*
X12479000Y-11376000I50000J0D01*
G01*
X12379000Y-11580000D02*
X12479000Y-11680000D01*
X12479000Y-11580000D02*
X12379000Y-11680000D01*
X12479000Y-11630000D02*
G75*
G02*
X12379000Y-11630000I-50000J0D01*
G01*
X12379000Y-11630000D02*
G75*
G02*
X12479000Y-11630000I50000J0D01*
G01*
X12379000Y-11834000D02*
X12479000Y-11934000D01*
X12479000Y-11834000D02*
X12379000Y-11934000D01*
X12479000Y-11884000D02*
G75*
G02*
X12379000Y-11884000I-50000J0D01*
G01*
X12379000Y-11884000D02*
G75*
G02*
X12479000Y-11884000I50000J0D01*
G01*
X12379000Y-12088000D02*
X12479000Y-12188000D01*
X12479000Y-12088000D02*
X12379000Y-12188000D01*
X12479000Y-12138000D02*
G75*
G02*
X12379000Y-12138000I-50000J0D01*
G01*
X12379000Y-12138000D02*
G75*
G02*
X12479000Y-12138000I50000J0D01*
G01*
X12379000Y-12342000D02*
X12479000Y-12442000D01*
X12479000Y-12342000D02*
X12379000Y-12442000D01*
X12479000Y-12392000D02*
G75*
G02*
X12379000Y-12392000I-50000J0D01*
G01*
X12379000Y-12392000D02*
G75*
G02*
X12479000Y-12392000I50000J0D01*
G01*
X12379000Y-12596000D02*
X12479000Y-12696000D01*
X12479000Y-12596000D02*
X12379000Y-12696000D01*
X12479000Y-12646000D02*
G75*
G02*
X12379000Y-12646000I-50000J0D01*
G01*
X12379000Y-12646000D02*
G75*
G02*
X12479000Y-12646000I50000J0D01*
G01*
X12379000Y-12850000D02*
X12479000Y-12950000D01*
X12479000Y-12850000D02*
X12379000Y-12950000D01*
X12479000Y-12900000D02*
G75*
G02*
X12379000Y-12900000I-50000J0D01*
G01*
X12379000Y-12900000D02*
G75*
G02*
X12479000Y-12900000I50000J0D01*
G01*
X13107000Y-7800000D02*
X13207000Y-7900000D01*
X13207000Y-7800000D02*
X13107000Y-7900000D01*
X13207000Y-7850000D02*
G75*
G02*
X13107000Y-7850000I-50000J0D01*
G01*
X13107000Y-7850000D02*
G75*
G02*
X13207000Y-7850000I50000J0D01*
G01*
X13361000Y-7800000D02*
X13461000Y-7900000D01*
X13461000Y-7800000D02*
X13361000Y-7900000D01*
X13461000Y-7850000D02*
G75*
G02*
X13361000Y-7850000I-50000J0D01*
G01*
X13361000Y-7850000D02*
G75*
G02*
X13461000Y-7850000I50000J0D01*
G01*
X13400000Y-10900000D02*
X13500000Y-11000000D01*
X13500000Y-10900000D02*
X13400000Y-11000000D01*
X13500000Y-10950000D02*
G75*
G02*
X13400000Y-10950000I-50000J0D01*
G01*
X13400000Y-10950000D02*
G75*
G02*
X13500000Y-10950000I50000J0D01*
G01*
X13400000Y-11400000D02*
X13500000Y-11500000D01*
X13500000Y-11400000D02*
X13400000Y-11500000D01*
X13500000Y-11450000D02*
G75*
G02*
X13400000Y-11450000I-50000J0D01*
G01*
X13400000Y-11450000D02*
G75*
G02*
X13500000Y-11450000I50000J0D01*
G01*
X13400000Y-11981616D02*
X13500000Y-12081616D01*
X13500000Y-11981616D02*
X13400000Y-12081616D01*
X13500000Y-12031616D02*
G75*
G02*
X13400000Y-12031616I-50000J0D01*
G01*
X13400000Y-12031616D02*
G75*
G02*
X13500000Y-12031616I50000J0D01*
G01*
X13400000Y-12481616D02*
X13500000Y-12581616D01*
X13500000Y-12481616D02*
X13400000Y-12581616D01*
X13500000Y-12531616D02*
G75*
G02*
X13400000Y-12531616I-50000J0D01*
G01*
X13400000Y-12531616D02*
G75*
G02*
X13500000Y-12531616I50000J0D01*
G01*
X13400000Y-13063232D02*
X13500000Y-13163232D01*
X13500000Y-13063232D02*
X13400000Y-13163232D01*
X13500000Y-13113232D02*
G75*
G02*
X13400000Y-13113232I-50000J0D01*
G01*
X13400000Y-13113232D02*
G75*
G02*
X13500000Y-13113232I50000J0D01*
G01*
X13400000Y-13563232D02*
X13500000Y-13663232D01*
X13500000Y-13563232D02*
X13400000Y-13663232D01*
X13500000Y-13613232D02*
G75*
G02*
X13400000Y-13613232I-50000J0D01*
G01*
X13400000Y-13613232D02*
G75*
G02*
X13500000Y-13613232I50000J0D01*
G01*
X13615000Y-7800000D02*
X13715000Y-7900000D01*
X13715000Y-7800000D02*
X13615000Y-7900000D01*
X13715000Y-7850000D02*
G75*
G02*
X13615000Y-7850000I-50000J0D01*
G01*
X13615000Y-7850000D02*
G75*
G02*
X13715000Y-7850000I50000J0D01*
G01*
X13869000Y-7800000D02*
X13969000Y-7900000D01*
X13969000Y-7800000D02*
X13869000Y-7900000D01*
X13969000Y-7850000D02*
G75*
G02*
X13869000Y-7850000I-50000J0D01*
G01*
X13869000Y-7850000D02*
G75*
G02*
X13969000Y-7850000I50000J0D01*
G01*
D13*
X8289200Y-9295200D02*
X8390800Y-9396800D01*
X8390800Y-9295200D02*
X8289200Y-9396800D01*
X8340000Y-9295200D02*
X8340000Y-9396800D01*
X8289200Y-9346000D02*
X8390800Y-9346000D01*
X8289200Y-9549200D02*
X8390800Y-9650800D01*
X8390800Y-9549200D02*
X8289200Y-9650800D01*
X8340000Y-9549200D02*
X8340000Y-9650800D01*
X8289200Y-9600000D02*
X8390800Y-9600000D01*
X8289200Y-9803200D02*
X8390800Y-9904800D01*
X8390800Y-9803200D02*
X8289200Y-9904800D01*
X8340000Y-9803200D02*
X8340000Y-9904800D01*
X8289200Y-9854000D02*
X8390800Y-9854000D01*
X8299200Y-13349200D02*
X8400800Y-13450800D01*
X8400800Y-13349200D02*
X8299200Y-13450800D01*
X8350000Y-13349200D02*
X8350000Y-13450800D01*
X8299200Y-13400000D02*
X8400800Y-13400000D01*
X8299200Y-13603200D02*
X8400800Y-13704800D01*
X8400800Y-13603200D02*
X8299200Y-13704800D01*
X8350000Y-13603200D02*
X8350000Y-13704800D01*
X8299200Y-13654000D02*
X8400800Y-13654000D01*
X8299200Y-13857200D02*
X8400800Y-13958800D01*
X8400800Y-13857200D02*
X8299200Y-13958800D01*
X8350000Y-13857200D02*
X8350000Y-13958800D01*
X8299200Y-13908000D02*
X8400800Y-13908000D01*
X8709200Y-9291200D02*
X8810800Y-9392800D01*
X8810800Y-9291200D02*
X8709200Y-9392800D01*
X8760000Y-9291200D02*
X8760000Y-9392800D01*
X8709200Y-9342000D02*
X8810800Y-9342000D01*
X8709200Y-9545200D02*
X8810800Y-9646800D01*
X8810800Y-9545200D02*
X8709200Y-9646800D01*
X8760000Y-9545200D02*
X8760000Y-9646800D01*
X8709200Y-9596000D02*
X8810800Y-9596000D01*
X8709200Y-9799200D02*
X8810800Y-9900800D01*
X8810800Y-9799200D02*
X8709200Y-9900800D01*
X8760000Y-9799200D02*
X8760000Y-9900800D01*
X8709200Y-9850000D02*
X8810800Y-9850000D01*
X12249200Y-9295200D02*
X12350800Y-9396800D01*
X12350800Y-9295200D02*
X12249200Y-9396800D01*
X12300000Y-9295200D02*
X12300000Y-9396800D01*
X12249200Y-9346000D02*
X12350800Y-9346000D01*
X12249200Y-9549200D02*
X12350800Y-9650800D01*
X12350800Y-9549200D02*
X12249200Y-9650800D01*
X12300000Y-9549200D02*
X12300000Y-9650800D01*
X12249200Y-9600000D02*
X12350800Y-9600000D01*
X12249200Y-9803200D02*
X12350800Y-9904800D01*
X12350800Y-9803200D02*
X12249200Y-9904800D01*
X12300000Y-9803200D02*
X12300000Y-9904800D01*
X12249200Y-9854000D02*
X12350800Y-9854000D01*
X14214200Y-6449200D02*
X14315800Y-6550800D01*
X14315800Y-6449200D02*
X14214200Y-6550800D01*
X14265000Y-6449200D02*
X14265000Y-6550800D01*
X14214200Y-6500000D02*
X14315800Y-6500000D01*
X14468200Y-6449200D02*
X14569800Y-6550800D01*
X14569800Y-6449200D02*
X14468200Y-6550800D01*
X14519000Y-6449200D02*
X14519000Y-6550800D01*
X14468200Y-6500000D02*
X14569800Y-6500000D01*
X14722200Y-6449200D02*
X14823800Y-6550800D01*
X14823800Y-6449200D02*
X14722200Y-6550800D01*
X14773000Y-6449200D02*
X14773000Y-6550800D01*
X14722200Y-6500000D02*
X14823800Y-6500000D01*
D14*
X6579000Y-8095000D02*
X6689000Y-8205000D01*
X6689000Y-8095000D02*
X6579000Y-8205000D01*
X6672891Y-8188891D02*
X6672891Y-8111109D01*
X6595109Y-8111109D01*
X6595109Y-8188891D01*
X6672891Y-8188891D01*
X7595000Y-8095000D02*
X7705000Y-8205000D01*
X7705000Y-8095000D02*
X7595000Y-8205000D01*
X7688891Y-8188891D02*
X7688891Y-8111109D01*
X7611109Y-8111109D01*
X7611109Y-8188891D01*
X7688891Y-8188891D01*
X9779000Y-14045000D02*
X9889000Y-14155000D01*
X9889000Y-14045000D02*
X9779000Y-14155000D01*
X9872891Y-14138891D02*
X9872891Y-14061109D01*
X9795109Y-14061109D01*
X9795109Y-14138891D01*
X9872891Y-14138891D01*
X10041000Y-14545000D02*
X10151000Y-14655000D01*
X10151000Y-14545000D02*
X10041000Y-14655000D01*
X10134891Y-14638891D02*
X10134891Y-14561109D01*
X10057109Y-14561109D01*
X10057109Y-14638891D01*
X10134891Y-14638891D01*
X10295000Y-14545000D02*
X10405000Y-14655000D01*
X10405000Y-14545000D02*
X10295000Y-14655000D01*
X10388891Y-14638891D02*
X10388891Y-14561109D01*
X10311109Y-14561109D01*
X10311109Y-14638891D01*
X10388891Y-14638891D01*
X10549000Y-14545000D02*
X10659000Y-14655000D01*
X10659000Y-14545000D02*
X10549000Y-14655000D01*
X10642891Y-14638891D02*
X10642891Y-14561109D01*
X10565109Y-14561109D01*
X10565109Y-14638891D01*
X10642891Y-14638891D01*
X10795000Y-14045000D02*
X10905000Y-14155000D01*
X10905000Y-14045000D02*
X10795000Y-14155000D01*
X10888891Y-14138891D02*
X10888891Y-14061109D01*
X10811109Y-14061109D01*
X10811109Y-14138891D01*
X10888891Y-14138891D01*
X11079000Y-14045000D02*
X11189000Y-14155000D01*
X11189000Y-14045000D02*
X11079000Y-14155000D01*
X11172891Y-14138891D02*
X11172891Y-14061109D01*
X11095109Y-14061109D01*
X11095109Y-14138891D01*
X11172891Y-14138891D01*
X11291000Y-14545000D02*
X11401000Y-14655000D01*
X11401000Y-14545000D02*
X11291000Y-14655000D01*
X11384891Y-14638891D02*
X11384891Y-14561109D01*
X11307109Y-14561109D01*
X11307109Y-14638891D01*
X11384891Y-14638891D01*
X11545000Y-14545000D02*
X11655000Y-14655000D01*
X11655000Y-14545000D02*
X11545000Y-14655000D01*
X11638891Y-14638891D02*
X11638891Y-14561109D01*
X11561109Y-14561109D01*
X11561109Y-14638891D01*
X11638891Y-14638891D01*
X11799000Y-14545000D02*
X11909000Y-14655000D01*
X11909000Y-14545000D02*
X11799000Y-14655000D01*
X11892891Y-14638891D02*
X11892891Y-14561109D01*
X11815109Y-14561109D01*
X11815109Y-14638891D01*
X11892891Y-14638891D01*
X12095000Y-14045000D02*
X12205000Y-14155000D01*
X12205000Y-14045000D02*
X12095000Y-14155000D01*
X12188891Y-14138891D02*
X12188891Y-14061109D01*
X12111109Y-14061109D01*
X12111109Y-14138891D01*
X12188891Y-14138891D01*
X12379000Y-14045000D02*
X12489000Y-14155000D01*
X12489000Y-14045000D02*
X12379000Y-14155000D01*
X12472891Y-14138891D02*
X12472891Y-14061109D01*
X12395109Y-14061109D01*
X12395109Y-14138891D01*
X12472891Y-14138891D01*
X12637000Y-14545000D02*
X12747000Y-14655000D01*
X12747000Y-14545000D02*
X12637000Y-14655000D01*
X12730891Y-14638891D02*
X12730891Y-14561109D01*
X12653109Y-14561109D01*
X12653109Y-14638891D01*
X12730891Y-14638891D01*
X12891000Y-14545000D02*
X13001000Y-14655000D01*
X13001000Y-14545000D02*
X12891000Y-14655000D01*
X12984891Y-14638891D02*
X12984891Y-14561109D01*
X12907109Y-14561109D01*
X12907109Y-14638891D01*
X12984891Y-14638891D01*
X13145000Y-14545000D02*
X13255000Y-14655000D01*
X13255000Y-14545000D02*
X13145000Y-14655000D01*
X13238891Y-14638891D02*
X13238891Y-14561109D01*
X13161109Y-14561109D01*
X13161109Y-14638891D01*
X13238891Y-14638891D01*
X13395000Y-14045000D02*
X13505000Y-14155000D01*
X13505000Y-14045000D02*
X13395000Y-14155000D01*
X13488891Y-14138891D02*
X13488891Y-14061109D01*
X13411109Y-14061109D01*
X13411109Y-14138891D01*
X13488891Y-14138891D01*
D15*
X5435000Y-7235000D02*
X5565000Y-7365000D01*
X5565000Y-7235000D02*
X5435000Y-7365000D01*
X5500000Y-7365000D02*
X5565000Y-7300000D01*
X5500000Y-7235000D01*
X5435000Y-7300000D01*
X5500000Y-7365000D01*
X5435000Y-7735000D02*
X5565000Y-7865000D01*
X5565000Y-7735000D02*
X5435000Y-7865000D01*
X5500000Y-7865000D02*
X5565000Y-7800000D01*
X5500000Y-7735000D01*
X5435000Y-7800000D01*
X5500000Y-7865000D01*
X5435000Y-8235000D02*
X5565000Y-8365000D01*
X5565000Y-8235000D02*
X5435000Y-8365000D01*
X5500000Y-8365000D02*
X5565000Y-8300000D01*
X5500000Y-8235000D01*
X5435000Y-8300000D01*
X5500000Y-8365000D01*
X5435000Y-8735000D02*
X5565000Y-8865000D01*
X5565000Y-8735000D02*
X5435000Y-8865000D01*
X5500000Y-8865000D02*
X5565000Y-8800000D01*
X5500000Y-8735000D01*
X5435000Y-8800000D01*
X5500000Y-8865000D01*
X6330000Y-10140000D02*
X6460000Y-10270000D01*
X6460000Y-10140000D02*
X6330000Y-10270000D01*
X6395000Y-10270000D02*
X6460000Y-10205000D01*
X6395000Y-10140000D01*
X6330000Y-10205000D01*
X6395000Y-10270000D01*
X6335000Y-8935000D02*
X6465000Y-9065000D01*
X6465000Y-8935000D02*
X6335000Y-9065000D01*
X6400000Y-9065000D02*
X6465000Y-9000000D01*
X6400000Y-8935000D01*
X6335000Y-9000000D01*
X6400000Y-9065000D01*
X7750000Y-9540000D02*
X7880000Y-9670000D01*
X7880000Y-9540000D02*
X7750000Y-9670000D01*
X7815000Y-9670000D02*
X7880000Y-9605000D01*
X7815000Y-9540000D01*
X7750000Y-9605000D01*
X7815000Y-9670000D01*
X14385000Y-11885000D02*
X14515000Y-12015000D01*
X14515000Y-11885000D02*
X14385000Y-12015000D01*
X14450000Y-12015000D02*
X14515000Y-11950000D01*
X14450000Y-11885000D01*
X14385000Y-11950000D01*
X14450000Y-12015000D01*
X14385000Y-12385000D02*
X14515000Y-12515000D01*
X14515000Y-12385000D02*
X14385000Y-12515000D01*
X14450000Y-12515000D02*
X14515000Y-12450000D01*
X14450000Y-12385000D01*
X14385000Y-12450000D01*
X14450000Y-12515000D01*
X14385000Y-12885000D02*
X14515000Y-13015000D01*
X14515000Y-12885000D02*
X14385000Y-13015000D01*
X14450000Y-13015000D02*
X14515000Y-12950000D01*
X14450000Y-12885000D01*
X14385000Y-12950000D01*
X14450000Y-13015000D01*
X14385000Y-13385000D02*
X14515000Y-13515000D01*
X14515000Y-13385000D02*
X14385000Y-13515000D01*
X14450000Y-13515000D02*
X14515000Y-13450000D01*
X14450000Y-13385000D01*
X14385000Y-13450000D01*
X14450000Y-13515000D01*
D16*
X5350000Y-12092750D02*
X5350000Y-12262750D01*
X5265000Y-12177750D02*
X5435000Y-12177750D01*
X5435000Y-12177750D02*
G75*
G02*
X5265000Y-12177750I-85000J0D01*
G01*
X5265000Y-12177750D02*
G75*
G02*
X5435000Y-12177750I85000J0D01*
G01*
X5350000Y-12592750D02*
X5350000Y-12762750D01*
X5265000Y-12677750D02*
X5435000Y-12677750D01*
X5435000Y-12677750D02*
G75*
G02*
X5265000Y-12677750I-85000J0D01*
G01*
X5265000Y-12677750D02*
G75*
G02*
X5435000Y-12677750I85000J0D01*
G01*
X9150000Y-11315000D02*
X9150000Y-11485000D01*
X9065000Y-11400000D02*
X9235000Y-11400000D01*
X9235000Y-11400000D02*
G75*
G02*
X9065000Y-11400000I-85000J0D01*
G01*
X9065000Y-11400000D02*
G75*
G02*
X9235000Y-11400000I85000J0D01*
G01*
X9150000Y-11815000D02*
X9150000Y-11985000D01*
X9065000Y-11900000D02*
X9235000Y-11900000D01*
X9235000Y-11900000D02*
G75*
G02*
X9065000Y-11900000I-85000J0D01*
G01*
X9065000Y-11900000D02*
G75*
G02*
X9235000Y-11900000I85000J0D01*
G01*
X9150000Y-12415000D02*
X9150000Y-12585000D01*
X9065000Y-12500000D02*
X9235000Y-12500000D01*
X9235000Y-12500000D02*
G75*
G02*
X9065000Y-12500000I-85000J0D01*
G01*
X9065000Y-12500000D02*
G75*
G02*
X9235000Y-12500000I85000J0D01*
G01*
X9150000Y-12915000D02*
X9150000Y-13085000D01*
X9065000Y-13000000D02*
X9235000Y-13000000D01*
X9235000Y-13000000D02*
G75*
G02*
X9065000Y-13000000I-85000J0D01*
G01*
X9065000Y-13000000D02*
G75*
G02*
X9235000Y-13000000I85000J0D01*
G01*
X9150000Y-13515000D02*
X9150000Y-13685000D01*
X9065000Y-13600000D02*
X9235000Y-13600000D01*
X9235000Y-13600000D02*
G75*
G02*
X9065000Y-13600000I-85000J0D01*
G01*
X9065000Y-13600000D02*
G75*
G02*
X9235000Y-13600000I85000J0D01*
G01*
X9150000Y-14015000D02*
X9150000Y-14185000D01*
X9065000Y-14100000D02*
X9235000Y-14100000D01*
X9235000Y-14100000D02*
G75*
G02*
X9065000Y-14100000I-85000J0D01*
G01*
X9065000Y-14100000D02*
G75*
G02*
X9235000Y-14100000I85000J0D01*
G01*
D11*
X5258277Y-15313984D02*
X5258277Y-15113984D01*
X5258277Y-15113984D02*
X5305896Y-15113984D01*
X5305896Y-15113984D02*
X5334467Y-15123508D01*
X5334467Y-15123508D02*
X5353515Y-15142555D01*
X5353515Y-15142555D02*
X5363039Y-15161603D01*
X5363039Y-15161603D02*
X5372563Y-15199698D01*
X5372563Y-15199698D02*
X5372563Y-15228269D01*
X5372563Y-15228269D02*
X5363039Y-15266365D01*
X5363039Y-15266365D02*
X5353515Y-15285412D01*
X5353515Y-15285412D02*
X5334467Y-15304460D01*
X5334467Y-15304460D02*
X5305896Y-15313984D01*
X5305896Y-15313984D02*
X5258277Y-15313984D01*
X5458277Y-15313984D02*
X5458277Y-15180650D01*
X5458277Y-15218746D02*
X5467801Y-15199698D01*
X5467801Y-15199698D02*
X5477324Y-15190174D01*
X5477324Y-15190174D02*
X5496372Y-15180650D01*
X5496372Y-15180650D02*
X5515420Y-15180650D01*
X5582086Y-15313984D02*
X5582086Y-15180650D01*
X5582086Y-15113984D02*
X5572563Y-15123508D01*
X5572563Y-15123508D02*
X5582086Y-15133031D01*
X5582086Y-15133031D02*
X5591610Y-15123508D01*
X5591610Y-15123508D02*
X5582086Y-15113984D01*
X5582086Y-15113984D02*
X5582086Y-15133031D01*
X5705896Y-15313984D02*
X5686848Y-15304460D01*
X5686848Y-15304460D02*
X5677324Y-15285412D01*
X5677324Y-15285412D02*
X5677324Y-15113984D01*
X5810658Y-15313984D02*
X5791610Y-15304460D01*
X5791610Y-15304460D02*
X5782086Y-15285412D01*
X5782086Y-15285412D02*
X5782086Y-15113984D01*
X6039229Y-15313984D02*
X6039229Y-15113984D01*
X6039229Y-15113984D02*
X6105896Y-15256841D01*
X6105896Y-15256841D02*
X6172562Y-15113984D01*
X6172562Y-15113984D02*
X6172562Y-15313984D01*
X6353515Y-15313984D02*
X6353515Y-15209222D01*
X6353515Y-15209222D02*
X6343991Y-15190174D01*
X6343991Y-15190174D02*
X6324943Y-15180650D01*
X6324943Y-15180650D02*
X6286848Y-15180650D01*
X6286848Y-15180650D02*
X6267801Y-15190174D01*
X6353515Y-15304460D02*
X6334467Y-15313984D01*
X6334467Y-15313984D02*
X6286848Y-15313984D01*
X6286848Y-15313984D02*
X6267801Y-15304460D01*
X6267801Y-15304460D02*
X6258277Y-15285412D01*
X6258277Y-15285412D02*
X6258277Y-15266365D01*
X6258277Y-15266365D02*
X6267801Y-15247317D01*
X6267801Y-15247317D02*
X6286848Y-15237793D01*
X6286848Y-15237793D02*
X6334467Y-15237793D01*
X6334467Y-15237793D02*
X6353515Y-15228269D01*
X6448753Y-15180650D02*
X6448753Y-15380650D01*
X6448753Y-15190174D02*
X6467801Y-15180650D01*
X6467801Y-15180650D02*
X6505896Y-15180650D01*
X6505896Y-15180650D02*
X6524943Y-15190174D01*
X6524943Y-15190174D02*
X6534467Y-15199698D01*
X6534467Y-15199698D02*
X6543991Y-15218746D01*
X6543991Y-15218746D02*
X6543991Y-15275888D01*
X6543991Y-15275888D02*
X6534467Y-15294936D01*
X6534467Y-15294936D02*
X6524943Y-15304460D01*
X6524943Y-15304460D02*
X6505896Y-15313984D01*
X6505896Y-15313984D02*
X6467801Y-15313984D01*
X6467801Y-15313984D02*
X6448753Y-15304460D01*
X6629705Y-15294936D02*
X6639229Y-15304460D01*
X6639229Y-15304460D02*
X6629705Y-15313984D01*
X6629705Y-15313984D02*
X6620182Y-15304460D01*
X6620182Y-15304460D02*
X6629705Y-15294936D01*
X6629705Y-15294936D02*
X6629705Y-15313984D01*
X6629705Y-15190174D02*
X6639229Y-15199698D01*
X6639229Y-15199698D02*
X6629705Y-15209222D01*
X6629705Y-15209222D02*
X6620182Y-15199698D01*
X6620182Y-15199698D02*
X6629705Y-15190174D01*
X6629705Y-15190174D02*
X6629705Y-15209222D01*
D12*
X4967500Y-15627500D02*
X4997500Y-15657500D01*
X4997500Y-15627500D02*
X4967500Y-15657500D01*
D11*
X5296372Y-15533984D02*
X5315420Y-15533984D01*
X5315420Y-15533984D02*
X5334467Y-15543508D01*
X5334467Y-15543508D02*
X5343991Y-15553031D01*
X5343991Y-15553031D02*
X5353515Y-15572079D01*
X5353515Y-15572079D02*
X5363039Y-15610174D01*
X5363039Y-15610174D02*
X5363039Y-15657793D01*
X5363039Y-15657793D02*
X5353515Y-15695888D01*
X5353515Y-15695888D02*
X5343991Y-15714936D01*
X5343991Y-15714936D02*
X5334467Y-15724460D01*
X5334467Y-15724460D02*
X5315420Y-15733984D01*
X5315420Y-15733984D02*
X5296372Y-15733984D01*
X5296372Y-15733984D02*
X5277324Y-15724460D01*
X5277324Y-15724460D02*
X5267801Y-15714936D01*
X5267801Y-15714936D02*
X5258277Y-15695888D01*
X5258277Y-15695888D02*
X5248753Y-15657793D01*
X5248753Y-15657793D02*
X5248753Y-15610174D01*
X5248753Y-15610174D02*
X5258277Y-15572079D01*
X5258277Y-15572079D02*
X5267801Y-15553031D01*
X5267801Y-15553031D02*
X5277324Y-15543508D01*
X5277324Y-15543508D02*
X5296372Y-15533984D01*
X5448753Y-15714936D02*
X5458277Y-15724460D01*
X5458277Y-15724460D02*
X5448753Y-15733984D01*
X5448753Y-15733984D02*
X5439229Y-15724460D01*
X5439229Y-15724460D02*
X5448753Y-15714936D01*
X5448753Y-15714936D02*
X5448753Y-15733984D01*
X5524944Y-15533984D02*
X5648753Y-15533984D01*
X5648753Y-15533984D02*
X5582086Y-15610174D01*
X5582086Y-15610174D02*
X5610658Y-15610174D01*
X5610658Y-15610174D02*
X5629705Y-15619698D01*
X5629705Y-15619698D02*
X5639229Y-15629222D01*
X5639229Y-15629222D02*
X5648753Y-15648269D01*
X5648753Y-15648269D02*
X5648753Y-15695888D01*
X5648753Y-15695888D02*
X5639229Y-15714936D01*
X5639229Y-15714936D02*
X5629705Y-15724460D01*
X5629705Y-15724460D02*
X5610658Y-15733984D01*
X5610658Y-15733984D02*
X5553515Y-15733984D01*
X5553515Y-15733984D02*
X5534467Y-15724460D01*
X5534467Y-15724460D02*
X5524944Y-15714936D01*
X5772562Y-15533984D02*
X5791610Y-15533984D01*
X5791610Y-15533984D02*
X5810658Y-15543508D01*
X5810658Y-15543508D02*
X5820182Y-15553031D01*
X5820182Y-15553031D02*
X5829705Y-15572079D01*
X5829705Y-15572079D02*
X5839229Y-15610174D01*
X5839229Y-15610174D02*
X5839229Y-15657793D01*
X5839229Y-15657793D02*
X5829705Y-15695888D01*
X5829705Y-15695888D02*
X5820182Y-15714936D01*
X5820182Y-15714936D02*
X5810658Y-15724460D01*
X5810658Y-15724460D02*
X5791610Y-15733984D01*
X5791610Y-15733984D02*
X5772562Y-15733984D01*
X5772562Y-15733984D02*
X5753515Y-15724460D01*
X5753515Y-15724460D02*
X5743991Y-15714936D01*
X5743991Y-15714936D02*
X5734467Y-15695888D01*
X5734467Y-15695888D02*
X5724943Y-15657793D01*
X5724943Y-15657793D02*
X5724943Y-15610174D01*
X5724943Y-15610174D02*
X5734467Y-15572079D01*
X5734467Y-15572079D02*
X5743991Y-15553031D01*
X5743991Y-15553031D02*
X5753515Y-15543508D01*
X5753515Y-15543508D02*
X5772562Y-15533984D01*
X5963039Y-15533984D02*
X5982086Y-15533984D01*
X5982086Y-15533984D02*
X6001134Y-15543508D01*
X6001134Y-15543508D02*
X6010658Y-15553031D01*
X6010658Y-15553031D02*
X6020182Y-15572079D01*
X6020182Y-15572079D02*
X6029705Y-15610174D01*
X6029705Y-15610174D02*
X6029705Y-15657793D01*
X6029705Y-15657793D02*
X6020182Y-15695888D01*
X6020182Y-15695888D02*
X6010658Y-15714936D01*
X6010658Y-15714936D02*
X6001134Y-15724460D01*
X6001134Y-15724460D02*
X5982086Y-15733984D01*
X5982086Y-15733984D02*
X5963039Y-15733984D01*
X5963039Y-15733984D02*
X5943991Y-15724460D01*
X5943991Y-15724460D02*
X5934467Y-15714936D01*
X5934467Y-15714936D02*
X5924943Y-15695888D01*
X5924943Y-15695888D02*
X5915420Y-15657793D01*
X5915420Y-15657793D02*
X5915420Y-15610174D01*
X5915420Y-15610174D02*
X5924943Y-15572079D01*
X5924943Y-15572079D02*
X5934467Y-15553031D01*
X5934467Y-15553031D02*
X5943991Y-15543508D01*
X5943991Y-15543508D02*
X5963039Y-15533984D01*
X6115420Y-15733984D02*
X6115420Y-15600650D01*
X6115420Y-15619698D02*
X6124943Y-15610174D01*
X6124943Y-15610174D02*
X6143991Y-15600650D01*
X6143991Y-15600650D02*
X6172563Y-15600650D01*
X6172563Y-15600650D02*
X6191610Y-15610174D01*
X6191610Y-15610174D02*
X6201134Y-15629222D01*
X6201134Y-15629222D02*
X6201134Y-15733984D01*
X6201134Y-15629222D02*
X6210658Y-15610174D01*
X6210658Y-15610174D02*
X6229705Y-15600650D01*
X6229705Y-15600650D02*
X6258277Y-15600650D01*
X6258277Y-15600650D02*
X6277324Y-15610174D01*
X6277324Y-15610174D02*
X6286848Y-15629222D01*
X6286848Y-15629222D02*
X6286848Y-15733984D01*
X6382086Y-15733984D02*
X6382086Y-15600650D01*
X6382086Y-15619698D02*
X6391610Y-15610174D01*
X6391610Y-15610174D02*
X6410658Y-15600650D01*
X6410658Y-15600650D02*
X6439229Y-15600650D01*
X6439229Y-15600650D02*
X6458277Y-15610174D01*
X6458277Y-15610174D02*
X6467801Y-15629222D01*
X6467801Y-15629222D02*
X6467801Y-15733984D01*
X6467801Y-15629222D02*
X6477324Y-15610174D01*
X6477324Y-15610174D02*
X6496372Y-15600650D01*
X6496372Y-15600650D02*
X6524943Y-15600650D01*
X6524943Y-15600650D02*
X6543991Y-15610174D01*
X6543991Y-15610174D02*
X6553515Y-15629222D01*
X6553515Y-15629222D02*
X6553515Y-15733984D01*
X6943991Y-15524460D02*
X6772563Y-15781603D01*
X7201134Y-15533984D02*
X7220182Y-15533984D01*
X7220182Y-15533984D02*
X7239229Y-15543508D01*
X7239229Y-15543508D02*
X7248753Y-15553031D01*
X7248753Y-15553031D02*
X7258277Y-15572079D01*
X7258277Y-15572079D02*
X7267801Y-15610174D01*
X7267801Y-15610174D02*
X7267801Y-15657793D01*
X7267801Y-15657793D02*
X7258277Y-15695888D01*
X7258277Y-15695888D02*
X7248753Y-15714936D01*
X7248753Y-15714936D02*
X7239229Y-15724460D01*
X7239229Y-15724460D02*
X7220182Y-15733984D01*
X7220182Y-15733984D02*
X7201134Y-15733984D01*
X7201134Y-15733984D02*
X7182086Y-15724460D01*
X7182086Y-15724460D02*
X7172563Y-15714936D01*
X7172563Y-15714936D02*
X7163039Y-15695888D01*
X7163039Y-15695888D02*
X7153515Y-15657793D01*
X7153515Y-15657793D02*
X7153515Y-15610174D01*
X7153515Y-15610174D02*
X7163039Y-15572079D01*
X7163039Y-15572079D02*
X7172563Y-15553031D01*
X7172563Y-15553031D02*
X7182086Y-15543508D01*
X7182086Y-15543508D02*
X7201134Y-15533984D01*
X7353515Y-15714936D02*
X7363039Y-15724460D01*
X7363039Y-15724460D02*
X7353515Y-15733984D01*
X7353515Y-15733984D02*
X7343991Y-15724460D01*
X7343991Y-15724460D02*
X7353515Y-15714936D01*
X7353515Y-15714936D02*
X7353515Y-15733984D01*
X7486848Y-15533984D02*
X7505896Y-15533984D01*
X7505896Y-15533984D02*
X7524944Y-15543508D01*
X7524944Y-15543508D02*
X7534467Y-15553031D01*
X7534467Y-15553031D02*
X7543991Y-15572079D01*
X7543991Y-15572079D02*
X7553515Y-15610174D01*
X7553515Y-15610174D02*
X7553515Y-15657793D01*
X7553515Y-15657793D02*
X7543991Y-15695888D01*
X7543991Y-15695888D02*
X7534467Y-15714936D01*
X7534467Y-15714936D02*
X7524944Y-15724460D01*
X7524944Y-15724460D02*
X7505896Y-15733984D01*
X7505896Y-15733984D02*
X7486848Y-15733984D01*
X7486848Y-15733984D02*
X7467801Y-15724460D01*
X7467801Y-15724460D02*
X7458277Y-15714936D01*
X7458277Y-15714936D02*
X7448753Y-15695888D01*
X7448753Y-15695888D02*
X7439229Y-15657793D01*
X7439229Y-15657793D02*
X7439229Y-15610174D01*
X7439229Y-15610174D02*
X7448753Y-15572079D01*
X7448753Y-15572079D02*
X7458277Y-15553031D01*
X7458277Y-15553031D02*
X7467801Y-15543508D01*
X7467801Y-15543508D02*
X7486848Y-15533984D01*
X7743991Y-15733984D02*
X7629706Y-15733984D01*
X7686848Y-15733984D02*
X7686848Y-15533984D01*
X7686848Y-15533984D02*
X7667801Y-15562555D01*
X7667801Y-15562555D02*
X7648753Y-15581603D01*
X7648753Y-15581603D02*
X7629706Y-15591127D01*
X7934467Y-15733984D02*
X7820182Y-15733984D01*
X7877325Y-15733984D02*
X7877325Y-15533984D01*
X7877325Y-15533984D02*
X7858277Y-15562555D01*
X7858277Y-15562555D02*
X7839229Y-15581603D01*
X7839229Y-15581603D02*
X7820182Y-15591127D01*
X8048753Y-15619698D02*
X8029706Y-15610174D01*
X8029706Y-15610174D02*
X8020182Y-15600650D01*
X8020182Y-15600650D02*
X8010658Y-15581603D01*
X8010658Y-15581603D02*
X8010658Y-15572079D01*
X8010658Y-15572079D02*
X8020182Y-15553031D01*
X8020182Y-15553031D02*
X8029706Y-15543508D01*
X8029706Y-15543508D02*
X8048753Y-15533984D01*
X8048753Y-15533984D02*
X8086848Y-15533984D01*
X8086848Y-15533984D02*
X8105896Y-15543508D01*
X8105896Y-15543508D02*
X8115420Y-15553031D01*
X8115420Y-15553031D02*
X8124944Y-15572079D01*
X8124944Y-15572079D02*
X8124944Y-15581603D01*
X8124944Y-15581603D02*
X8115420Y-15600650D01*
X8115420Y-15600650D02*
X8105896Y-15610174D01*
X8105896Y-15610174D02*
X8086848Y-15619698D01*
X8086848Y-15619698D02*
X8048753Y-15619698D01*
X8048753Y-15619698D02*
X8029706Y-15629222D01*
X8029706Y-15629222D02*
X8020182Y-15638746D01*
X8020182Y-15638746D02*
X8010658Y-15657793D01*
X8010658Y-15657793D02*
X8010658Y-15695888D01*
X8010658Y-15695888D02*
X8020182Y-15714936D01*
X8020182Y-15714936D02*
X8029706Y-15724460D01*
X8029706Y-15724460D02*
X8048753Y-15733984D01*
X8048753Y-15733984D02*
X8086848Y-15733984D01*
X8086848Y-15733984D02*
X8105896Y-15724460D01*
X8105896Y-15724460D02*
X8115420Y-15714936D01*
X8115420Y-15714936D02*
X8124944Y-15695888D01*
X8124944Y-15695888D02*
X8124944Y-15657793D01*
X8124944Y-15657793D02*
X8115420Y-15638746D01*
X8115420Y-15638746D02*
X8105896Y-15629222D01*
X8105896Y-15629222D02*
X8086848Y-15619698D01*
X8201134Y-15533984D02*
X8201134Y-15572079D01*
X8277325Y-15533984D02*
X8277325Y-15572079D01*
X8572563Y-15810174D02*
X8563039Y-15800650D01*
X8563039Y-15800650D02*
X8543991Y-15772079D01*
X8543991Y-15772079D02*
X8534468Y-15753031D01*
X8534468Y-15753031D02*
X8524944Y-15724460D01*
X8524944Y-15724460D02*
X8515420Y-15676841D01*
X8515420Y-15676841D02*
X8515420Y-15638746D01*
X8515420Y-15638746D02*
X8524944Y-15591127D01*
X8524944Y-15591127D02*
X8534468Y-15562555D01*
X8534468Y-15562555D02*
X8543991Y-15543508D01*
X8543991Y-15543508D02*
X8563039Y-15514936D01*
X8563039Y-15514936D02*
X8572563Y-15505412D01*
X8658277Y-15733984D02*
X8696372Y-15733984D01*
X8696372Y-15733984D02*
X8715420Y-15724460D01*
X8715420Y-15724460D02*
X8724944Y-15714936D01*
X8724944Y-15714936D02*
X8743991Y-15686365D01*
X8743991Y-15686365D02*
X8753515Y-15648269D01*
X8753515Y-15648269D02*
X8753515Y-15572079D01*
X8753515Y-15572079D02*
X8743991Y-15553031D01*
X8743991Y-15553031D02*
X8734468Y-15543508D01*
X8734468Y-15543508D02*
X8715420Y-15533984D01*
X8715420Y-15533984D02*
X8677325Y-15533984D01*
X8677325Y-15533984D02*
X8658277Y-15543508D01*
X8658277Y-15543508D02*
X8648753Y-15553031D01*
X8648753Y-15553031D02*
X8639230Y-15572079D01*
X8639230Y-15572079D02*
X8639230Y-15619698D01*
X8639230Y-15619698D02*
X8648753Y-15638746D01*
X8648753Y-15638746D02*
X8658277Y-15648269D01*
X8658277Y-15648269D02*
X8677325Y-15657793D01*
X8677325Y-15657793D02*
X8715420Y-15657793D01*
X8715420Y-15657793D02*
X8734468Y-15648269D01*
X8734468Y-15648269D02*
X8743991Y-15638746D01*
X8743991Y-15638746D02*
X8753515Y-15619698D01*
X8943991Y-15733984D02*
X8829706Y-15733984D01*
X8886849Y-15733984D02*
X8886849Y-15533984D01*
X8886849Y-15533984D02*
X8867801Y-15562555D01*
X8867801Y-15562555D02*
X8848753Y-15581603D01*
X8848753Y-15581603D02*
X8829706Y-15591127D01*
X9182087Y-15733984D02*
X9182087Y-15533984D01*
X9267801Y-15733984D02*
X9267801Y-15629222D01*
X9267801Y-15629222D02*
X9258277Y-15610174D01*
X9258277Y-15610174D02*
X9239230Y-15600650D01*
X9239230Y-15600650D02*
X9210658Y-15600650D01*
X9210658Y-15600650D02*
X9191611Y-15610174D01*
X9191611Y-15610174D02*
X9182087Y-15619698D01*
X9391611Y-15733984D02*
X9372563Y-15724460D01*
X9372563Y-15724460D02*
X9363039Y-15714936D01*
X9363039Y-15714936D02*
X9353515Y-15695888D01*
X9353515Y-15695888D02*
X9353515Y-15638746D01*
X9353515Y-15638746D02*
X9363039Y-15619698D01*
X9363039Y-15619698D02*
X9372563Y-15610174D01*
X9372563Y-15610174D02*
X9391611Y-15600650D01*
X9391611Y-15600650D02*
X9420182Y-15600650D01*
X9420182Y-15600650D02*
X9439230Y-15610174D01*
X9439230Y-15610174D02*
X9448753Y-15619698D01*
X9448753Y-15619698D02*
X9458277Y-15638746D01*
X9458277Y-15638746D02*
X9458277Y-15695888D01*
X9458277Y-15695888D02*
X9448753Y-15714936D01*
X9448753Y-15714936D02*
X9439230Y-15724460D01*
X9439230Y-15724460D02*
X9420182Y-15733984D01*
X9420182Y-15733984D02*
X9391611Y-15733984D01*
X9572563Y-15733984D02*
X9553515Y-15724460D01*
X9553515Y-15724460D02*
X9543992Y-15705412D01*
X9543992Y-15705412D02*
X9543992Y-15533984D01*
X9724944Y-15724460D02*
X9705896Y-15733984D01*
X9705896Y-15733984D02*
X9667801Y-15733984D01*
X9667801Y-15733984D02*
X9648753Y-15724460D01*
X9648753Y-15724460D02*
X9639230Y-15705412D01*
X9639230Y-15705412D02*
X9639230Y-15629222D01*
X9639230Y-15629222D02*
X9648753Y-15610174D01*
X9648753Y-15610174D02*
X9667801Y-15600650D01*
X9667801Y-15600650D02*
X9705896Y-15600650D01*
X9705896Y-15600650D02*
X9724944Y-15610174D01*
X9724944Y-15610174D02*
X9734468Y-15629222D01*
X9734468Y-15629222D02*
X9734468Y-15648269D01*
X9734468Y-15648269D02*
X9639230Y-15667317D01*
X9810658Y-15724460D02*
X9829706Y-15733984D01*
X9829706Y-15733984D02*
X9867801Y-15733984D01*
X9867801Y-15733984D02*
X9886849Y-15724460D01*
X9886849Y-15724460D02*
X9896373Y-15705412D01*
X9896373Y-15705412D02*
X9896373Y-15695888D01*
X9896373Y-15695888D02*
X9886849Y-15676841D01*
X9886849Y-15676841D02*
X9867801Y-15667317D01*
X9867801Y-15667317D02*
X9839230Y-15667317D01*
X9839230Y-15667317D02*
X9820182Y-15657793D01*
X9820182Y-15657793D02*
X9810658Y-15638746D01*
X9810658Y-15638746D02*
X9810658Y-15629222D01*
X9810658Y-15629222D02*
X9820182Y-15610174D01*
X9820182Y-15610174D02*
X9839230Y-15600650D01*
X9839230Y-15600650D02*
X9867801Y-15600650D01*
X9867801Y-15600650D02*
X9886849Y-15610174D01*
X9963039Y-15810174D02*
X9972563Y-15800650D01*
X9972563Y-15800650D02*
X9991611Y-15772079D01*
X9991611Y-15772079D02*
X10001134Y-15753031D01*
X10001134Y-15753031D02*
X10010658Y-15724460D01*
X10010658Y-15724460D02*
X10020182Y-15676841D01*
X10020182Y-15676841D02*
X10020182Y-15638746D01*
X10020182Y-15638746D02*
X10010658Y-15591127D01*
X10010658Y-15591127D02*
X10001134Y-15562555D01*
X10001134Y-15562555D02*
X9991611Y-15543508D01*
X9991611Y-15543508D02*
X9972563Y-15514936D01*
X9972563Y-15514936D02*
X9963039Y-15505412D01*
D12*
X4997500Y-15906500D02*
G75*
G02*
X4937500Y-15906500I-30000J0D01*
G01*
X4937500Y-15906500D02*
G75*
G02*
X4997500Y-15906500I30000J0D01*
G01*
D11*
X5296372Y-15797984D02*
X5315420Y-15797984D01*
X5315420Y-15797984D02*
X5334467Y-15807508D01*
X5334467Y-15807508D02*
X5343991Y-15817031D01*
X5343991Y-15817031D02*
X5353515Y-15836079D01*
X5353515Y-15836079D02*
X5363039Y-15874174D01*
X5363039Y-15874174D02*
X5363039Y-15921793D01*
X5363039Y-15921793D02*
X5353515Y-15959888D01*
X5353515Y-15959888D02*
X5343991Y-15978936D01*
X5343991Y-15978936D02*
X5334467Y-15988460D01*
X5334467Y-15988460D02*
X5315420Y-15997984D01*
X5315420Y-15997984D02*
X5296372Y-15997984D01*
X5296372Y-15997984D02*
X5277324Y-15988460D01*
X5277324Y-15988460D02*
X5267801Y-15978936D01*
X5267801Y-15978936D02*
X5258277Y-15959888D01*
X5258277Y-15959888D02*
X5248753Y-15921793D01*
X5248753Y-15921793D02*
X5248753Y-15874174D01*
X5248753Y-15874174D02*
X5258277Y-15836079D01*
X5258277Y-15836079D02*
X5267801Y-15817031D01*
X5267801Y-15817031D02*
X5277324Y-15807508D01*
X5277324Y-15807508D02*
X5296372Y-15797984D01*
X5448753Y-15978936D02*
X5458277Y-15988460D01*
X5458277Y-15988460D02*
X5448753Y-15997984D01*
X5448753Y-15997984D02*
X5439229Y-15988460D01*
X5439229Y-15988460D02*
X5448753Y-15978936D01*
X5448753Y-15978936D02*
X5448753Y-15997984D01*
X5629705Y-15797984D02*
X5591610Y-15797984D01*
X5591610Y-15797984D02*
X5572563Y-15807508D01*
X5572563Y-15807508D02*
X5563039Y-15817031D01*
X5563039Y-15817031D02*
X5543991Y-15845603D01*
X5543991Y-15845603D02*
X5534467Y-15883698D01*
X5534467Y-15883698D02*
X5534467Y-15959888D01*
X5534467Y-15959888D02*
X5543991Y-15978936D01*
X5543991Y-15978936D02*
X5553515Y-15988460D01*
X5553515Y-15988460D02*
X5572563Y-15997984D01*
X5572563Y-15997984D02*
X5610658Y-15997984D01*
X5610658Y-15997984D02*
X5629705Y-15988460D01*
X5629705Y-15988460D02*
X5639229Y-15978936D01*
X5639229Y-15978936D02*
X5648753Y-15959888D01*
X5648753Y-15959888D02*
X5648753Y-15912269D01*
X5648753Y-15912269D02*
X5639229Y-15893222D01*
X5639229Y-15893222D02*
X5629705Y-15883698D01*
X5629705Y-15883698D02*
X5610658Y-15874174D01*
X5610658Y-15874174D02*
X5572563Y-15874174D01*
X5572563Y-15874174D02*
X5553515Y-15883698D01*
X5553515Y-15883698D02*
X5543991Y-15893222D01*
X5543991Y-15893222D02*
X5534467Y-15912269D01*
X5772562Y-15797984D02*
X5791610Y-15797984D01*
X5791610Y-15797984D02*
X5810658Y-15807508D01*
X5810658Y-15807508D02*
X5820182Y-15817031D01*
X5820182Y-15817031D02*
X5829705Y-15836079D01*
X5829705Y-15836079D02*
X5839229Y-15874174D01*
X5839229Y-15874174D02*
X5839229Y-15921793D01*
X5839229Y-15921793D02*
X5829705Y-15959888D01*
X5829705Y-15959888D02*
X5820182Y-15978936D01*
X5820182Y-15978936D02*
X5810658Y-15988460D01*
X5810658Y-15988460D02*
X5791610Y-15997984D01*
X5791610Y-15997984D02*
X5772562Y-15997984D01*
X5772562Y-15997984D02*
X5753515Y-15988460D01*
X5753515Y-15988460D02*
X5743991Y-15978936D01*
X5743991Y-15978936D02*
X5734467Y-15959888D01*
X5734467Y-15959888D02*
X5724943Y-15921793D01*
X5724943Y-15921793D02*
X5724943Y-15874174D01*
X5724943Y-15874174D02*
X5734467Y-15836079D01*
X5734467Y-15836079D02*
X5743991Y-15817031D01*
X5743991Y-15817031D02*
X5753515Y-15807508D01*
X5753515Y-15807508D02*
X5772562Y-15797984D01*
X5963039Y-15797984D02*
X5982086Y-15797984D01*
X5982086Y-15797984D02*
X6001134Y-15807508D01*
X6001134Y-15807508D02*
X6010658Y-15817031D01*
X6010658Y-15817031D02*
X6020182Y-15836079D01*
X6020182Y-15836079D02*
X6029705Y-15874174D01*
X6029705Y-15874174D02*
X6029705Y-15921793D01*
X6029705Y-15921793D02*
X6020182Y-15959888D01*
X6020182Y-15959888D02*
X6010658Y-15978936D01*
X6010658Y-15978936D02*
X6001134Y-15988460D01*
X6001134Y-15988460D02*
X5982086Y-15997984D01*
X5982086Y-15997984D02*
X5963039Y-15997984D01*
X5963039Y-15997984D02*
X5943991Y-15988460D01*
X5943991Y-15988460D02*
X5934467Y-15978936D01*
X5934467Y-15978936D02*
X5924943Y-15959888D01*
X5924943Y-15959888D02*
X5915420Y-15921793D01*
X5915420Y-15921793D02*
X5915420Y-15874174D01*
X5915420Y-15874174D02*
X5924943Y-15836079D01*
X5924943Y-15836079D02*
X5934467Y-15817031D01*
X5934467Y-15817031D02*
X5943991Y-15807508D01*
X5943991Y-15807508D02*
X5963039Y-15797984D01*
X6115420Y-15997984D02*
X6115420Y-15864650D01*
X6115420Y-15883698D02*
X6124943Y-15874174D01*
X6124943Y-15874174D02*
X6143991Y-15864650D01*
X6143991Y-15864650D02*
X6172563Y-15864650D01*
X6172563Y-15864650D02*
X6191610Y-15874174D01*
X6191610Y-15874174D02*
X6201134Y-15893222D01*
X6201134Y-15893222D02*
X6201134Y-15997984D01*
X6201134Y-15893222D02*
X6210658Y-15874174D01*
X6210658Y-15874174D02*
X6229705Y-15864650D01*
X6229705Y-15864650D02*
X6258277Y-15864650D01*
X6258277Y-15864650D02*
X6277324Y-15874174D01*
X6277324Y-15874174D02*
X6286848Y-15893222D01*
X6286848Y-15893222D02*
X6286848Y-15997984D01*
X6382086Y-15997984D02*
X6382086Y-15864650D01*
X6382086Y-15883698D02*
X6391610Y-15874174D01*
X6391610Y-15874174D02*
X6410658Y-15864650D01*
X6410658Y-15864650D02*
X6439229Y-15864650D01*
X6439229Y-15864650D02*
X6458277Y-15874174D01*
X6458277Y-15874174D02*
X6467801Y-15893222D01*
X6467801Y-15893222D02*
X6467801Y-15997984D01*
X6467801Y-15893222D02*
X6477324Y-15874174D01*
X6477324Y-15874174D02*
X6496372Y-15864650D01*
X6496372Y-15864650D02*
X6524943Y-15864650D01*
X6524943Y-15864650D02*
X6543991Y-15874174D01*
X6543991Y-15874174D02*
X6553515Y-15893222D01*
X6553515Y-15893222D02*
X6553515Y-15997984D01*
X6943991Y-15788460D02*
X6772563Y-16045603D01*
X7201134Y-15797984D02*
X7220182Y-15797984D01*
X7220182Y-15797984D02*
X7239229Y-15807508D01*
X7239229Y-15807508D02*
X7248753Y-15817031D01*
X7248753Y-15817031D02*
X7258277Y-15836079D01*
X7258277Y-15836079D02*
X7267801Y-15874174D01*
X7267801Y-15874174D02*
X7267801Y-15921793D01*
X7267801Y-15921793D02*
X7258277Y-15959888D01*
X7258277Y-15959888D02*
X7248753Y-15978936D01*
X7248753Y-15978936D02*
X7239229Y-15988460D01*
X7239229Y-15988460D02*
X7220182Y-15997984D01*
X7220182Y-15997984D02*
X7201134Y-15997984D01*
X7201134Y-15997984D02*
X7182086Y-15988460D01*
X7182086Y-15988460D02*
X7172563Y-15978936D01*
X7172563Y-15978936D02*
X7163039Y-15959888D01*
X7163039Y-15959888D02*
X7153515Y-15921793D01*
X7153515Y-15921793D02*
X7153515Y-15874174D01*
X7153515Y-15874174D02*
X7163039Y-15836079D01*
X7163039Y-15836079D02*
X7172563Y-15817031D01*
X7172563Y-15817031D02*
X7182086Y-15807508D01*
X7182086Y-15807508D02*
X7201134Y-15797984D01*
X7353515Y-15978936D02*
X7363039Y-15988460D01*
X7363039Y-15988460D02*
X7353515Y-15997984D01*
X7353515Y-15997984D02*
X7343991Y-15988460D01*
X7343991Y-15988460D02*
X7353515Y-15978936D01*
X7353515Y-15978936D02*
X7353515Y-15997984D01*
X7486848Y-15797984D02*
X7505896Y-15797984D01*
X7505896Y-15797984D02*
X7524944Y-15807508D01*
X7524944Y-15807508D02*
X7534467Y-15817031D01*
X7534467Y-15817031D02*
X7543991Y-15836079D01*
X7543991Y-15836079D02*
X7553515Y-15874174D01*
X7553515Y-15874174D02*
X7553515Y-15921793D01*
X7553515Y-15921793D02*
X7543991Y-15959888D01*
X7543991Y-15959888D02*
X7534467Y-15978936D01*
X7534467Y-15978936D02*
X7524944Y-15988460D01*
X7524944Y-15988460D02*
X7505896Y-15997984D01*
X7505896Y-15997984D02*
X7486848Y-15997984D01*
X7486848Y-15997984D02*
X7467801Y-15988460D01*
X7467801Y-15988460D02*
X7458277Y-15978936D01*
X7458277Y-15978936D02*
X7448753Y-15959888D01*
X7448753Y-15959888D02*
X7439229Y-15921793D01*
X7439229Y-15921793D02*
X7439229Y-15874174D01*
X7439229Y-15874174D02*
X7448753Y-15836079D01*
X7448753Y-15836079D02*
X7458277Y-15817031D01*
X7458277Y-15817031D02*
X7467801Y-15807508D01*
X7467801Y-15807508D02*
X7486848Y-15797984D01*
X7629706Y-15817031D02*
X7639229Y-15807508D01*
X7639229Y-15807508D02*
X7658277Y-15797984D01*
X7658277Y-15797984D02*
X7705896Y-15797984D01*
X7705896Y-15797984D02*
X7724944Y-15807508D01*
X7724944Y-15807508D02*
X7734467Y-15817031D01*
X7734467Y-15817031D02*
X7743991Y-15836079D01*
X7743991Y-15836079D02*
X7743991Y-15855127D01*
X7743991Y-15855127D02*
X7734467Y-15883698D01*
X7734467Y-15883698D02*
X7620182Y-15997984D01*
X7620182Y-15997984D02*
X7743991Y-15997984D01*
X7810658Y-15797984D02*
X7934467Y-15797984D01*
X7934467Y-15797984D02*
X7867801Y-15874174D01*
X7867801Y-15874174D02*
X7896372Y-15874174D01*
X7896372Y-15874174D02*
X7915420Y-15883698D01*
X7915420Y-15883698D02*
X7924944Y-15893222D01*
X7924944Y-15893222D02*
X7934467Y-15912269D01*
X7934467Y-15912269D02*
X7934467Y-15959888D01*
X7934467Y-15959888D02*
X7924944Y-15978936D01*
X7924944Y-15978936D02*
X7915420Y-15988460D01*
X7915420Y-15988460D02*
X7896372Y-15997984D01*
X7896372Y-15997984D02*
X7839229Y-15997984D01*
X7839229Y-15997984D02*
X7820182Y-15988460D01*
X7820182Y-15988460D02*
X7810658Y-15978936D01*
X8105896Y-15797984D02*
X8067801Y-15797984D01*
X8067801Y-15797984D02*
X8048753Y-15807508D01*
X8048753Y-15807508D02*
X8039229Y-15817031D01*
X8039229Y-15817031D02*
X8020182Y-15845603D01*
X8020182Y-15845603D02*
X8010658Y-15883698D01*
X8010658Y-15883698D02*
X8010658Y-15959888D01*
X8010658Y-15959888D02*
X8020182Y-15978936D01*
X8020182Y-15978936D02*
X8029706Y-15988460D01*
X8029706Y-15988460D02*
X8048753Y-15997984D01*
X8048753Y-15997984D02*
X8086848Y-15997984D01*
X8086848Y-15997984D02*
X8105896Y-15988460D01*
X8105896Y-15988460D02*
X8115420Y-15978936D01*
X8115420Y-15978936D02*
X8124944Y-15959888D01*
X8124944Y-15959888D02*
X8124944Y-15912269D01*
X8124944Y-15912269D02*
X8115420Y-15893222D01*
X8115420Y-15893222D02*
X8105896Y-15883698D01*
X8105896Y-15883698D02*
X8086848Y-15874174D01*
X8086848Y-15874174D02*
X8048753Y-15874174D01*
X8048753Y-15874174D02*
X8029706Y-15883698D01*
X8029706Y-15883698D02*
X8020182Y-15893222D01*
X8020182Y-15893222D02*
X8010658Y-15912269D01*
X8201134Y-15797984D02*
X8201134Y-15836079D01*
X8277325Y-15797984D02*
X8277325Y-15836079D01*
X8572563Y-16074174D02*
X8563039Y-16064650D01*
X8563039Y-16064650D02*
X8543991Y-16036079D01*
X8543991Y-16036079D02*
X8534468Y-16017031D01*
X8534468Y-16017031D02*
X8524944Y-15988460D01*
X8524944Y-15988460D02*
X8515420Y-15940841D01*
X8515420Y-15940841D02*
X8515420Y-15902746D01*
X8515420Y-15902746D02*
X8524944Y-15855127D01*
X8524944Y-15855127D02*
X8534468Y-15826555D01*
X8534468Y-15826555D02*
X8543991Y-15807508D01*
X8543991Y-15807508D02*
X8563039Y-15778936D01*
X8563039Y-15778936D02*
X8572563Y-15769412D01*
X8734468Y-15864650D02*
X8734468Y-15997984D01*
X8686849Y-15788460D02*
X8639230Y-15931317D01*
X8639230Y-15931317D02*
X8763039Y-15931317D01*
X8991611Y-15997984D02*
X8991611Y-15797984D01*
X9077325Y-15997984D02*
X9077325Y-15893222D01*
X9077325Y-15893222D02*
X9067801Y-15874174D01*
X9067801Y-15874174D02*
X9048753Y-15864650D01*
X9048753Y-15864650D02*
X9020182Y-15864650D01*
X9020182Y-15864650D02*
X9001134Y-15874174D01*
X9001134Y-15874174D02*
X8991611Y-15883698D01*
X9201134Y-15997984D02*
X9182087Y-15988460D01*
X9182087Y-15988460D02*
X9172563Y-15978936D01*
X9172563Y-15978936D02*
X9163039Y-15959888D01*
X9163039Y-15959888D02*
X9163039Y-15902746D01*
X9163039Y-15902746D02*
X9172563Y-15883698D01*
X9172563Y-15883698D02*
X9182087Y-15874174D01*
X9182087Y-15874174D02*
X9201134Y-15864650D01*
X9201134Y-15864650D02*
X9229706Y-15864650D01*
X9229706Y-15864650D02*
X9248753Y-15874174D01*
X9248753Y-15874174D02*
X9258277Y-15883698D01*
X9258277Y-15883698D02*
X9267801Y-15902746D01*
X9267801Y-15902746D02*
X9267801Y-15959888D01*
X9267801Y-15959888D02*
X9258277Y-15978936D01*
X9258277Y-15978936D02*
X9248753Y-15988460D01*
X9248753Y-15988460D02*
X9229706Y-15997984D01*
X9229706Y-15997984D02*
X9201134Y-15997984D01*
X9382087Y-15997984D02*
X9363039Y-15988460D01*
X9363039Y-15988460D02*
X9353515Y-15969412D01*
X9353515Y-15969412D02*
X9353515Y-15797984D01*
X9534468Y-15988460D02*
X9515420Y-15997984D01*
X9515420Y-15997984D02*
X9477325Y-15997984D01*
X9477325Y-15997984D02*
X9458277Y-15988460D01*
X9458277Y-15988460D02*
X9448753Y-15969412D01*
X9448753Y-15969412D02*
X9448753Y-15893222D01*
X9448753Y-15893222D02*
X9458277Y-15874174D01*
X9458277Y-15874174D02*
X9477325Y-15864650D01*
X9477325Y-15864650D02*
X9515420Y-15864650D01*
X9515420Y-15864650D02*
X9534468Y-15874174D01*
X9534468Y-15874174D02*
X9543992Y-15893222D01*
X9543992Y-15893222D02*
X9543992Y-15912269D01*
X9543992Y-15912269D02*
X9448753Y-15931317D01*
X9620182Y-15988460D02*
X9639230Y-15997984D01*
X9639230Y-15997984D02*
X9677325Y-15997984D01*
X9677325Y-15997984D02*
X9696373Y-15988460D01*
X9696373Y-15988460D02*
X9705896Y-15969412D01*
X9705896Y-15969412D02*
X9705896Y-15959888D01*
X9705896Y-15959888D02*
X9696373Y-15940841D01*
X9696373Y-15940841D02*
X9677325Y-15931317D01*
X9677325Y-15931317D02*
X9648753Y-15931317D01*
X9648753Y-15931317D02*
X9629706Y-15921793D01*
X9629706Y-15921793D02*
X9620182Y-15902746D01*
X9620182Y-15902746D02*
X9620182Y-15893222D01*
X9620182Y-15893222D02*
X9629706Y-15874174D01*
X9629706Y-15874174D02*
X9648753Y-15864650D01*
X9648753Y-15864650D02*
X9677325Y-15864650D01*
X9677325Y-15864650D02*
X9696373Y-15874174D01*
X9772563Y-16074174D02*
X9782087Y-16064650D01*
X9782087Y-16064650D02*
X9801134Y-16036079D01*
X9801134Y-16036079D02*
X9810658Y-16017031D01*
X9810658Y-16017031D02*
X9820182Y-15988460D01*
X9820182Y-15988460D02*
X9829706Y-15940841D01*
X9829706Y-15940841D02*
X9829706Y-15902746D01*
X9829706Y-15902746D02*
X9820182Y-15855127D01*
X9820182Y-15855127D02*
X9810658Y-15826555D01*
X9810658Y-15826555D02*
X9801134Y-15807508D01*
X9801134Y-15807508D02*
X9782087Y-15778936D01*
X9782087Y-15778936D02*
X9772563Y-15769412D01*
D12*
X4960000Y-16133000D02*
X4960000Y-16208000D01*
X4922500Y-16170500D02*
X4997500Y-16170500D01*
D11*
X5296372Y-16061984D02*
X5315420Y-16061984D01*
X5315420Y-16061984D02*
X5334467Y-16071508D01*
X5334467Y-16071508D02*
X5343991Y-16081031D01*
X5343991Y-16081031D02*
X5353515Y-16100079D01*
X5353515Y-16100079D02*
X5363039Y-16138174D01*
X5363039Y-16138174D02*
X5363039Y-16185793D01*
X5363039Y-16185793D02*
X5353515Y-16223888D01*
X5353515Y-16223888D02*
X5343991Y-16242936D01*
X5343991Y-16242936D02*
X5334467Y-16252460D01*
X5334467Y-16252460D02*
X5315420Y-16261984D01*
X5315420Y-16261984D02*
X5296372Y-16261984D01*
X5296372Y-16261984D02*
X5277324Y-16252460D01*
X5277324Y-16252460D02*
X5267801Y-16242936D01*
X5267801Y-16242936D02*
X5258277Y-16223888D01*
X5258277Y-16223888D02*
X5248753Y-16185793D01*
X5248753Y-16185793D02*
X5248753Y-16138174D01*
X5248753Y-16138174D02*
X5258277Y-16100079D01*
X5258277Y-16100079D02*
X5267801Y-16081031D01*
X5267801Y-16081031D02*
X5277324Y-16071508D01*
X5277324Y-16071508D02*
X5296372Y-16061984D01*
X5448753Y-16242936D02*
X5458277Y-16252460D01*
X5458277Y-16252460D02*
X5448753Y-16261984D01*
X5448753Y-16261984D02*
X5439229Y-16252460D01*
X5439229Y-16252460D02*
X5448753Y-16242936D01*
X5448753Y-16242936D02*
X5448753Y-16261984D01*
X5524944Y-16061984D02*
X5658277Y-16061984D01*
X5658277Y-16061984D02*
X5572563Y-16261984D01*
X5829705Y-16061984D02*
X5734467Y-16061984D01*
X5734467Y-16061984D02*
X5724943Y-16157222D01*
X5724943Y-16157222D02*
X5734467Y-16147698D01*
X5734467Y-16147698D02*
X5753515Y-16138174D01*
X5753515Y-16138174D02*
X5801134Y-16138174D01*
X5801134Y-16138174D02*
X5820182Y-16147698D01*
X5820182Y-16147698D02*
X5829705Y-16157222D01*
X5829705Y-16157222D02*
X5839229Y-16176269D01*
X5839229Y-16176269D02*
X5839229Y-16223888D01*
X5839229Y-16223888D02*
X5829705Y-16242936D01*
X5829705Y-16242936D02*
X5820182Y-16252460D01*
X5820182Y-16252460D02*
X5801134Y-16261984D01*
X5801134Y-16261984D02*
X5753515Y-16261984D01*
X5753515Y-16261984D02*
X5734467Y-16252460D01*
X5734467Y-16252460D02*
X5724943Y-16242936D01*
X5963039Y-16061984D02*
X5982086Y-16061984D01*
X5982086Y-16061984D02*
X6001134Y-16071508D01*
X6001134Y-16071508D02*
X6010658Y-16081031D01*
X6010658Y-16081031D02*
X6020182Y-16100079D01*
X6020182Y-16100079D02*
X6029705Y-16138174D01*
X6029705Y-16138174D02*
X6029705Y-16185793D01*
X6029705Y-16185793D02*
X6020182Y-16223888D01*
X6020182Y-16223888D02*
X6010658Y-16242936D01*
X6010658Y-16242936D02*
X6001134Y-16252460D01*
X6001134Y-16252460D02*
X5982086Y-16261984D01*
X5982086Y-16261984D02*
X5963039Y-16261984D01*
X5963039Y-16261984D02*
X5943991Y-16252460D01*
X5943991Y-16252460D02*
X5934467Y-16242936D01*
X5934467Y-16242936D02*
X5924943Y-16223888D01*
X5924943Y-16223888D02*
X5915420Y-16185793D01*
X5915420Y-16185793D02*
X5915420Y-16138174D01*
X5915420Y-16138174D02*
X5924943Y-16100079D01*
X5924943Y-16100079D02*
X5934467Y-16081031D01*
X5934467Y-16081031D02*
X5943991Y-16071508D01*
X5943991Y-16071508D02*
X5963039Y-16061984D01*
X6115420Y-16261984D02*
X6115420Y-16128650D01*
X6115420Y-16147698D02*
X6124943Y-16138174D01*
X6124943Y-16138174D02*
X6143991Y-16128650D01*
X6143991Y-16128650D02*
X6172563Y-16128650D01*
X6172563Y-16128650D02*
X6191610Y-16138174D01*
X6191610Y-16138174D02*
X6201134Y-16157222D01*
X6201134Y-16157222D02*
X6201134Y-16261984D01*
X6201134Y-16157222D02*
X6210658Y-16138174D01*
X6210658Y-16138174D02*
X6229705Y-16128650D01*
X6229705Y-16128650D02*
X6258277Y-16128650D01*
X6258277Y-16128650D02*
X6277324Y-16138174D01*
X6277324Y-16138174D02*
X6286848Y-16157222D01*
X6286848Y-16157222D02*
X6286848Y-16261984D01*
X6382086Y-16261984D02*
X6382086Y-16128650D01*
X6382086Y-16147698D02*
X6391610Y-16138174D01*
X6391610Y-16138174D02*
X6410658Y-16128650D01*
X6410658Y-16128650D02*
X6439229Y-16128650D01*
X6439229Y-16128650D02*
X6458277Y-16138174D01*
X6458277Y-16138174D02*
X6467801Y-16157222D01*
X6467801Y-16157222D02*
X6467801Y-16261984D01*
X6467801Y-16157222D02*
X6477324Y-16138174D01*
X6477324Y-16138174D02*
X6496372Y-16128650D01*
X6496372Y-16128650D02*
X6524943Y-16128650D01*
X6524943Y-16128650D02*
X6543991Y-16138174D01*
X6543991Y-16138174D02*
X6553515Y-16157222D01*
X6553515Y-16157222D02*
X6553515Y-16261984D01*
X6943991Y-16052460D02*
X6772563Y-16309603D01*
X7201134Y-16061984D02*
X7220182Y-16061984D01*
X7220182Y-16061984D02*
X7239229Y-16071508D01*
X7239229Y-16071508D02*
X7248753Y-16081031D01*
X7248753Y-16081031D02*
X7258277Y-16100079D01*
X7258277Y-16100079D02*
X7267801Y-16138174D01*
X7267801Y-16138174D02*
X7267801Y-16185793D01*
X7267801Y-16185793D02*
X7258277Y-16223888D01*
X7258277Y-16223888D02*
X7248753Y-16242936D01*
X7248753Y-16242936D02*
X7239229Y-16252460D01*
X7239229Y-16252460D02*
X7220182Y-16261984D01*
X7220182Y-16261984D02*
X7201134Y-16261984D01*
X7201134Y-16261984D02*
X7182086Y-16252460D01*
X7182086Y-16252460D02*
X7172563Y-16242936D01*
X7172563Y-16242936D02*
X7163039Y-16223888D01*
X7163039Y-16223888D02*
X7153515Y-16185793D01*
X7153515Y-16185793D02*
X7153515Y-16138174D01*
X7153515Y-16138174D02*
X7163039Y-16100079D01*
X7163039Y-16100079D02*
X7172563Y-16081031D01*
X7172563Y-16081031D02*
X7182086Y-16071508D01*
X7182086Y-16071508D02*
X7201134Y-16061984D01*
X7353515Y-16242936D02*
X7363039Y-16252460D01*
X7363039Y-16252460D02*
X7353515Y-16261984D01*
X7353515Y-16261984D02*
X7343991Y-16252460D01*
X7343991Y-16252460D02*
X7353515Y-16242936D01*
X7353515Y-16242936D02*
X7353515Y-16261984D01*
X7486848Y-16061984D02*
X7505896Y-16061984D01*
X7505896Y-16061984D02*
X7524944Y-16071508D01*
X7524944Y-16071508D02*
X7534467Y-16081031D01*
X7534467Y-16081031D02*
X7543991Y-16100079D01*
X7543991Y-16100079D02*
X7553515Y-16138174D01*
X7553515Y-16138174D02*
X7553515Y-16185793D01*
X7553515Y-16185793D02*
X7543991Y-16223888D01*
X7543991Y-16223888D02*
X7534467Y-16242936D01*
X7534467Y-16242936D02*
X7524944Y-16252460D01*
X7524944Y-16252460D02*
X7505896Y-16261984D01*
X7505896Y-16261984D02*
X7486848Y-16261984D01*
X7486848Y-16261984D02*
X7467801Y-16252460D01*
X7467801Y-16252460D02*
X7458277Y-16242936D01*
X7458277Y-16242936D02*
X7448753Y-16223888D01*
X7448753Y-16223888D02*
X7439229Y-16185793D01*
X7439229Y-16185793D02*
X7439229Y-16138174D01*
X7439229Y-16138174D02*
X7448753Y-16100079D01*
X7448753Y-16100079D02*
X7458277Y-16081031D01*
X7458277Y-16081031D02*
X7467801Y-16071508D01*
X7467801Y-16071508D02*
X7486848Y-16061984D01*
X7629706Y-16081031D02*
X7639229Y-16071508D01*
X7639229Y-16071508D02*
X7658277Y-16061984D01*
X7658277Y-16061984D02*
X7705896Y-16061984D01*
X7705896Y-16061984D02*
X7724944Y-16071508D01*
X7724944Y-16071508D02*
X7734467Y-16081031D01*
X7734467Y-16081031D02*
X7743991Y-16100079D01*
X7743991Y-16100079D02*
X7743991Y-16119127D01*
X7743991Y-16119127D02*
X7734467Y-16147698D01*
X7734467Y-16147698D02*
X7620182Y-16261984D01*
X7620182Y-16261984D02*
X7743991Y-16261984D01*
X7839229Y-16261984D02*
X7877325Y-16261984D01*
X7877325Y-16261984D02*
X7896372Y-16252460D01*
X7896372Y-16252460D02*
X7905896Y-16242936D01*
X7905896Y-16242936D02*
X7924944Y-16214365D01*
X7924944Y-16214365D02*
X7934467Y-16176269D01*
X7934467Y-16176269D02*
X7934467Y-16100079D01*
X7934467Y-16100079D02*
X7924944Y-16081031D01*
X7924944Y-16081031D02*
X7915420Y-16071508D01*
X7915420Y-16071508D02*
X7896372Y-16061984D01*
X7896372Y-16061984D02*
X7858277Y-16061984D01*
X7858277Y-16061984D02*
X7839229Y-16071508D01*
X7839229Y-16071508D02*
X7829706Y-16081031D01*
X7829706Y-16081031D02*
X7820182Y-16100079D01*
X7820182Y-16100079D02*
X7820182Y-16147698D01*
X7820182Y-16147698D02*
X7829706Y-16166746D01*
X7829706Y-16166746D02*
X7839229Y-16176269D01*
X7839229Y-16176269D02*
X7858277Y-16185793D01*
X7858277Y-16185793D02*
X7896372Y-16185793D01*
X7896372Y-16185793D02*
X7915420Y-16176269D01*
X7915420Y-16176269D02*
X7924944Y-16166746D01*
X7924944Y-16166746D02*
X7934467Y-16147698D01*
X8115420Y-16061984D02*
X8020182Y-16061984D01*
X8020182Y-16061984D02*
X8010658Y-16157222D01*
X8010658Y-16157222D02*
X8020182Y-16147698D01*
X8020182Y-16147698D02*
X8039229Y-16138174D01*
X8039229Y-16138174D02*
X8086848Y-16138174D01*
X8086848Y-16138174D02*
X8105896Y-16147698D01*
X8105896Y-16147698D02*
X8115420Y-16157222D01*
X8115420Y-16157222D02*
X8124944Y-16176269D01*
X8124944Y-16176269D02*
X8124944Y-16223888D01*
X8124944Y-16223888D02*
X8115420Y-16242936D01*
X8115420Y-16242936D02*
X8105896Y-16252460D01*
X8105896Y-16252460D02*
X8086848Y-16261984D01*
X8086848Y-16261984D02*
X8039229Y-16261984D01*
X8039229Y-16261984D02*
X8020182Y-16252460D01*
X8020182Y-16252460D02*
X8010658Y-16242936D01*
X8201134Y-16061984D02*
X8201134Y-16100079D01*
X8277325Y-16061984D02*
X8277325Y-16100079D01*
X8572563Y-16338174D02*
X8563039Y-16328650D01*
X8563039Y-16328650D02*
X8543991Y-16300079D01*
X8543991Y-16300079D02*
X8534468Y-16281031D01*
X8534468Y-16281031D02*
X8524944Y-16252460D01*
X8524944Y-16252460D02*
X8515420Y-16204841D01*
X8515420Y-16204841D02*
X8515420Y-16166746D01*
X8515420Y-16166746D02*
X8524944Y-16119127D01*
X8524944Y-16119127D02*
X8534468Y-16090555D01*
X8534468Y-16090555D02*
X8543991Y-16071508D01*
X8543991Y-16071508D02*
X8563039Y-16042936D01*
X8563039Y-16042936D02*
X8572563Y-16033412D01*
X8753515Y-16261984D02*
X8639230Y-16261984D01*
X8696372Y-16261984D02*
X8696372Y-16061984D01*
X8696372Y-16061984D02*
X8677325Y-16090555D01*
X8677325Y-16090555D02*
X8658277Y-16109603D01*
X8658277Y-16109603D02*
X8639230Y-16119127D01*
X8829706Y-16081031D02*
X8839230Y-16071508D01*
X8839230Y-16071508D02*
X8858277Y-16061984D01*
X8858277Y-16061984D02*
X8905896Y-16061984D01*
X8905896Y-16061984D02*
X8924944Y-16071508D01*
X8924944Y-16071508D02*
X8934468Y-16081031D01*
X8934468Y-16081031D02*
X8943991Y-16100079D01*
X8943991Y-16100079D02*
X8943991Y-16119127D01*
X8943991Y-16119127D02*
X8934468Y-16147698D01*
X8934468Y-16147698D02*
X8820182Y-16261984D01*
X8820182Y-16261984D02*
X8943991Y-16261984D01*
X9182087Y-16261984D02*
X9182087Y-16061984D01*
X9267801Y-16261984D02*
X9267801Y-16157222D01*
X9267801Y-16157222D02*
X9258277Y-16138174D01*
X9258277Y-16138174D02*
X9239230Y-16128650D01*
X9239230Y-16128650D02*
X9210658Y-16128650D01*
X9210658Y-16128650D02*
X9191611Y-16138174D01*
X9191611Y-16138174D02*
X9182087Y-16147698D01*
X9391611Y-16261984D02*
X9372563Y-16252460D01*
X9372563Y-16252460D02*
X9363039Y-16242936D01*
X9363039Y-16242936D02*
X9353515Y-16223888D01*
X9353515Y-16223888D02*
X9353515Y-16166746D01*
X9353515Y-16166746D02*
X9363039Y-16147698D01*
X9363039Y-16147698D02*
X9372563Y-16138174D01*
X9372563Y-16138174D02*
X9391611Y-16128650D01*
X9391611Y-16128650D02*
X9420182Y-16128650D01*
X9420182Y-16128650D02*
X9439230Y-16138174D01*
X9439230Y-16138174D02*
X9448753Y-16147698D01*
X9448753Y-16147698D02*
X9458277Y-16166746D01*
X9458277Y-16166746D02*
X9458277Y-16223888D01*
X9458277Y-16223888D02*
X9448753Y-16242936D01*
X9448753Y-16242936D02*
X9439230Y-16252460D01*
X9439230Y-16252460D02*
X9420182Y-16261984D01*
X9420182Y-16261984D02*
X9391611Y-16261984D01*
X9572563Y-16261984D02*
X9553515Y-16252460D01*
X9553515Y-16252460D02*
X9543992Y-16233412D01*
X9543992Y-16233412D02*
X9543992Y-16061984D01*
X9724944Y-16252460D02*
X9705896Y-16261984D01*
X9705896Y-16261984D02*
X9667801Y-16261984D01*
X9667801Y-16261984D02*
X9648753Y-16252460D01*
X9648753Y-16252460D02*
X9639230Y-16233412D01*
X9639230Y-16233412D02*
X9639230Y-16157222D01*
X9639230Y-16157222D02*
X9648753Y-16138174D01*
X9648753Y-16138174D02*
X9667801Y-16128650D01*
X9667801Y-16128650D02*
X9705896Y-16128650D01*
X9705896Y-16128650D02*
X9724944Y-16138174D01*
X9724944Y-16138174D02*
X9734468Y-16157222D01*
X9734468Y-16157222D02*
X9734468Y-16176269D01*
X9734468Y-16176269D02*
X9639230Y-16195317D01*
X9810658Y-16252460D02*
X9829706Y-16261984D01*
X9829706Y-16261984D02*
X9867801Y-16261984D01*
X9867801Y-16261984D02*
X9886849Y-16252460D01*
X9886849Y-16252460D02*
X9896373Y-16233412D01*
X9896373Y-16233412D02*
X9896373Y-16223888D01*
X9896373Y-16223888D02*
X9886849Y-16204841D01*
X9886849Y-16204841D02*
X9867801Y-16195317D01*
X9867801Y-16195317D02*
X9839230Y-16195317D01*
X9839230Y-16195317D02*
X9820182Y-16185793D01*
X9820182Y-16185793D02*
X9810658Y-16166746D01*
X9810658Y-16166746D02*
X9810658Y-16157222D01*
X9810658Y-16157222D02*
X9820182Y-16138174D01*
X9820182Y-16138174D02*
X9839230Y-16128650D01*
X9839230Y-16128650D02*
X9867801Y-16128650D01*
X9867801Y-16128650D02*
X9886849Y-16138174D01*
X9963039Y-16338174D02*
X9972563Y-16328650D01*
X9972563Y-16328650D02*
X9991611Y-16300079D01*
X9991611Y-16300079D02*
X10001134Y-16281031D01*
X10001134Y-16281031D02*
X10010658Y-16252460D01*
X10010658Y-16252460D02*
X10020182Y-16204841D01*
X10020182Y-16204841D02*
X10020182Y-16166746D01*
X10020182Y-16166746D02*
X10010658Y-16119127D01*
X10010658Y-16119127D02*
X10001134Y-16090555D01*
X10001134Y-16090555D02*
X9991611Y-16071508D01*
X9991611Y-16071508D02*
X9972563Y-16042936D01*
X9972563Y-16042936D02*
X9963039Y-16033412D01*
D12*
X4985785Y-16462784D02*
X4985785Y-16406215D01*
X4929216Y-16406215D01*
X4929216Y-16462784D01*
X4985785Y-16462784D01*
D11*
X5296372Y-16325984D02*
X5315420Y-16325984D01*
X5315420Y-16325984D02*
X5334467Y-16335508D01*
X5334467Y-16335508D02*
X5343991Y-16345031D01*
X5343991Y-16345031D02*
X5353515Y-16364079D01*
X5353515Y-16364079D02*
X5363039Y-16402174D01*
X5363039Y-16402174D02*
X5363039Y-16449793D01*
X5363039Y-16449793D02*
X5353515Y-16487888D01*
X5353515Y-16487888D02*
X5343991Y-16506936D01*
X5343991Y-16506936D02*
X5334467Y-16516460D01*
X5334467Y-16516460D02*
X5315420Y-16525984D01*
X5315420Y-16525984D02*
X5296372Y-16525984D01*
X5296372Y-16525984D02*
X5277324Y-16516460D01*
X5277324Y-16516460D02*
X5267801Y-16506936D01*
X5267801Y-16506936D02*
X5258277Y-16487888D01*
X5258277Y-16487888D02*
X5248753Y-16449793D01*
X5248753Y-16449793D02*
X5248753Y-16402174D01*
X5248753Y-16402174D02*
X5258277Y-16364079D01*
X5258277Y-16364079D02*
X5267801Y-16345031D01*
X5267801Y-16345031D02*
X5277324Y-16335508D01*
X5277324Y-16335508D02*
X5296372Y-16325984D01*
X5448753Y-16506936D02*
X5458277Y-16516460D01*
X5458277Y-16516460D02*
X5448753Y-16525984D01*
X5448753Y-16525984D02*
X5439229Y-16516460D01*
X5439229Y-16516460D02*
X5448753Y-16506936D01*
X5448753Y-16506936D02*
X5448753Y-16525984D01*
X5572563Y-16411698D02*
X5553515Y-16402174D01*
X5553515Y-16402174D02*
X5543991Y-16392650D01*
X5543991Y-16392650D02*
X5534467Y-16373603D01*
X5534467Y-16373603D02*
X5534467Y-16364079D01*
X5534467Y-16364079D02*
X5543991Y-16345031D01*
X5543991Y-16345031D02*
X5553515Y-16335508D01*
X5553515Y-16335508D02*
X5572563Y-16325984D01*
X5572563Y-16325984D02*
X5610658Y-16325984D01*
X5610658Y-16325984D02*
X5629705Y-16335508D01*
X5629705Y-16335508D02*
X5639229Y-16345031D01*
X5639229Y-16345031D02*
X5648753Y-16364079D01*
X5648753Y-16364079D02*
X5648753Y-16373603D01*
X5648753Y-16373603D02*
X5639229Y-16392650D01*
X5639229Y-16392650D02*
X5629705Y-16402174D01*
X5629705Y-16402174D02*
X5610658Y-16411698D01*
X5610658Y-16411698D02*
X5572563Y-16411698D01*
X5572563Y-16411698D02*
X5553515Y-16421222D01*
X5553515Y-16421222D02*
X5543991Y-16430746D01*
X5543991Y-16430746D02*
X5534467Y-16449793D01*
X5534467Y-16449793D02*
X5534467Y-16487888D01*
X5534467Y-16487888D02*
X5543991Y-16506936D01*
X5543991Y-16506936D02*
X5553515Y-16516460D01*
X5553515Y-16516460D02*
X5572563Y-16525984D01*
X5572563Y-16525984D02*
X5610658Y-16525984D01*
X5610658Y-16525984D02*
X5629705Y-16516460D01*
X5629705Y-16516460D02*
X5639229Y-16506936D01*
X5639229Y-16506936D02*
X5648753Y-16487888D01*
X5648753Y-16487888D02*
X5648753Y-16449793D01*
X5648753Y-16449793D02*
X5639229Y-16430746D01*
X5639229Y-16430746D02*
X5629705Y-16421222D01*
X5629705Y-16421222D02*
X5610658Y-16411698D01*
X5772562Y-16325984D02*
X5791610Y-16325984D01*
X5791610Y-16325984D02*
X5810658Y-16335508D01*
X5810658Y-16335508D02*
X5820182Y-16345031D01*
X5820182Y-16345031D02*
X5829705Y-16364079D01*
X5829705Y-16364079D02*
X5839229Y-16402174D01*
X5839229Y-16402174D02*
X5839229Y-16449793D01*
X5839229Y-16449793D02*
X5829705Y-16487888D01*
X5829705Y-16487888D02*
X5820182Y-16506936D01*
X5820182Y-16506936D02*
X5810658Y-16516460D01*
X5810658Y-16516460D02*
X5791610Y-16525984D01*
X5791610Y-16525984D02*
X5772562Y-16525984D01*
X5772562Y-16525984D02*
X5753515Y-16516460D01*
X5753515Y-16516460D02*
X5743991Y-16506936D01*
X5743991Y-16506936D02*
X5734467Y-16487888D01*
X5734467Y-16487888D02*
X5724943Y-16449793D01*
X5724943Y-16449793D02*
X5724943Y-16402174D01*
X5724943Y-16402174D02*
X5734467Y-16364079D01*
X5734467Y-16364079D02*
X5743991Y-16345031D01*
X5743991Y-16345031D02*
X5753515Y-16335508D01*
X5753515Y-16335508D02*
X5772562Y-16325984D01*
X5963039Y-16325984D02*
X5982086Y-16325984D01*
X5982086Y-16325984D02*
X6001134Y-16335508D01*
X6001134Y-16335508D02*
X6010658Y-16345031D01*
X6010658Y-16345031D02*
X6020182Y-16364079D01*
X6020182Y-16364079D02*
X6029705Y-16402174D01*
X6029705Y-16402174D02*
X6029705Y-16449793D01*
X6029705Y-16449793D02*
X6020182Y-16487888D01*
X6020182Y-16487888D02*
X6010658Y-16506936D01*
X6010658Y-16506936D02*
X6001134Y-16516460D01*
X6001134Y-16516460D02*
X5982086Y-16525984D01*
X5982086Y-16525984D02*
X5963039Y-16525984D01*
X5963039Y-16525984D02*
X5943991Y-16516460D01*
X5943991Y-16516460D02*
X5934467Y-16506936D01*
X5934467Y-16506936D02*
X5924943Y-16487888D01*
X5924943Y-16487888D02*
X5915420Y-16449793D01*
X5915420Y-16449793D02*
X5915420Y-16402174D01*
X5915420Y-16402174D02*
X5924943Y-16364079D01*
X5924943Y-16364079D02*
X5934467Y-16345031D01*
X5934467Y-16345031D02*
X5943991Y-16335508D01*
X5943991Y-16335508D02*
X5963039Y-16325984D01*
X6115420Y-16525984D02*
X6115420Y-16392650D01*
X6115420Y-16411698D02*
X6124943Y-16402174D01*
X6124943Y-16402174D02*
X6143991Y-16392650D01*
X6143991Y-16392650D02*
X6172563Y-16392650D01*
X6172563Y-16392650D02*
X6191610Y-16402174D01*
X6191610Y-16402174D02*
X6201134Y-16421222D01*
X6201134Y-16421222D02*
X6201134Y-16525984D01*
X6201134Y-16421222D02*
X6210658Y-16402174D01*
X6210658Y-16402174D02*
X6229705Y-16392650D01*
X6229705Y-16392650D02*
X6258277Y-16392650D01*
X6258277Y-16392650D02*
X6277324Y-16402174D01*
X6277324Y-16402174D02*
X6286848Y-16421222D01*
X6286848Y-16421222D02*
X6286848Y-16525984D01*
X6382086Y-16525984D02*
X6382086Y-16392650D01*
X6382086Y-16411698D02*
X6391610Y-16402174D01*
X6391610Y-16402174D02*
X6410658Y-16392650D01*
X6410658Y-16392650D02*
X6439229Y-16392650D01*
X6439229Y-16392650D02*
X6458277Y-16402174D01*
X6458277Y-16402174D02*
X6467801Y-16421222D01*
X6467801Y-16421222D02*
X6467801Y-16525984D01*
X6467801Y-16421222D02*
X6477324Y-16402174D01*
X6477324Y-16402174D02*
X6496372Y-16392650D01*
X6496372Y-16392650D02*
X6524943Y-16392650D01*
X6524943Y-16392650D02*
X6543991Y-16402174D01*
X6543991Y-16402174D02*
X6553515Y-16421222D01*
X6553515Y-16421222D02*
X6553515Y-16525984D01*
X6943991Y-16316460D02*
X6772563Y-16573603D01*
X7201134Y-16325984D02*
X7220182Y-16325984D01*
X7220182Y-16325984D02*
X7239229Y-16335508D01*
X7239229Y-16335508D02*
X7248753Y-16345031D01*
X7248753Y-16345031D02*
X7258277Y-16364079D01*
X7258277Y-16364079D02*
X7267801Y-16402174D01*
X7267801Y-16402174D02*
X7267801Y-16449793D01*
X7267801Y-16449793D02*
X7258277Y-16487888D01*
X7258277Y-16487888D02*
X7248753Y-16506936D01*
X7248753Y-16506936D02*
X7239229Y-16516460D01*
X7239229Y-16516460D02*
X7220182Y-16525984D01*
X7220182Y-16525984D02*
X7201134Y-16525984D01*
X7201134Y-16525984D02*
X7182086Y-16516460D01*
X7182086Y-16516460D02*
X7172563Y-16506936D01*
X7172563Y-16506936D02*
X7163039Y-16487888D01*
X7163039Y-16487888D02*
X7153515Y-16449793D01*
X7153515Y-16449793D02*
X7153515Y-16402174D01*
X7153515Y-16402174D02*
X7163039Y-16364079D01*
X7163039Y-16364079D02*
X7172563Y-16345031D01*
X7172563Y-16345031D02*
X7182086Y-16335508D01*
X7182086Y-16335508D02*
X7201134Y-16325984D01*
X7353515Y-16506936D02*
X7363039Y-16516460D01*
X7363039Y-16516460D02*
X7353515Y-16525984D01*
X7353515Y-16525984D02*
X7343991Y-16516460D01*
X7343991Y-16516460D02*
X7353515Y-16506936D01*
X7353515Y-16506936D02*
X7353515Y-16525984D01*
X7486848Y-16325984D02*
X7505896Y-16325984D01*
X7505896Y-16325984D02*
X7524944Y-16335508D01*
X7524944Y-16335508D02*
X7534467Y-16345031D01*
X7534467Y-16345031D02*
X7543991Y-16364079D01*
X7543991Y-16364079D02*
X7553515Y-16402174D01*
X7553515Y-16402174D02*
X7553515Y-16449793D01*
X7553515Y-16449793D02*
X7543991Y-16487888D01*
X7543991Y-16487888D02*
X7534467Y-16506936D01*
X7534467Y-16506936D02*
X7524944Y-16516460D01*
X7524944Y-16516460D02*
X7505896Y-16525984D01*
X7505896Y-16525984D02*
X7486848Y-16525984D01*
X7486848Y-16525984D02*
X7467801Y-16516460D01*
X7467801Y-16516460D02*
X7458277Y-16506936D01*
X7458277Y-16506936D02*
X7448753Y-16487888D01*
X7448753Y-16487888D02*
X7439229Y-16449793D01*
X7439229Y-16449793D02*
X7439229Y-16402174D01*
X7439229Y-16402174D02*
X7448753Y-16364079D01*
X7448753Y-16364079D02*
X7458277Y-16345031D01*
X7458277Y-16345031D02*
X7467801Y-16335508D01*
X7467801Y-16335508D02*
X7486848Y-16325984D01*
X7620182Y-16325984D02*
X7743991Y-16325984D01*
X7743991Y-16325984D02*
X7677325Y-16402174D01*
X7677325Y-16402174D02*
X7705896Y-16402174D01*
X7705896Y-16402174D02*
X7724944Y-16411698D01*
X7724944Y-16411698D02*
X7734467Y-16421222D01*
X7734467Y-16421222D02*
X7743991Y-16440269D01*
X7743991Y-16440269D02*
X7743991Y-16487888D01*
X7743991Y-16487888D02*
X7734467Y-16506936D01*
X7734467Y-16506936D02*
X7724944Y-16516460D01*
X7724944Y-16516460D02*
X7705896Y-16525984D01*
X7705896Y-16525984D02*
X7648753Y-16525984D01*
X7648753Y-16525984D02*
X7629706Y-16516460D01*
X7629706Y-16516460D02*
X7620182Y-16506936D01*
X7934467Y-16525984D02*
X7820182Y-16525984D01*
X7877325Y-16525984D02*
X7877325Y-16325984D01*
X7877325Y-16325984D02*
X7858277Y-16354555D01*
X7858277Y-16354555D02*
X7839229Y-16373603D01*
X7839229Y-16373603D02*
X7820182Y-16383127D01*
X8115420Y-16325984D02*
X8020182Y-16325984D01*
X8020182Y-16325984D02*
X8010658Y-16421222D01*
X8010658Y-16421222D02*
X8020182Y-16411698D01*
X8020182Y-16411698D02*
X8039229Y-16402174D01*
X8039229Y-16402174D02*
X8086848Y-16402174D01*
X8086848Y-16402174D02*
X8105896Y-16411698D01*
X8105896Y-16411698D02*
X8115420Y-16421222D01*
X8115420Y-16421222D02*
X8124944Y-16440269D01*
X8124944Y-16440269D02*
X8124944Y-16487888D01*
X8124944Y-16487888D02*
X8115420Y-16506936D01*
X8115420Y-16506936D02*
X8105896Y-16516460D01*
X8105896Y-16516460D02*
X8086848Y-16525984D01*
X8086848Y-16525984D02*
X8039229Y-16525984D01*
X8039229Y-16525984D02*
X8020182Y-16516460D01*
X8020182Y-16516460D02*
X8010658Y-16506936D01*
X8201134Y-16325984D02*
X8201134Y-16364079D01*
X8277325Y-16325984D02*
X8277325Y-16364079D01*
X8572563Y-16602174D02*
X8563039Y-16592650D01*
X8563039Y-16592650D02*
X8543991Y-16564079D01*
X8543991Y-16564079D02*
X8534468Y-16545031D01*
X8534468Y-16545031D02*
X8524944Y-16516460D01*
X8524944Y-16516460D02*
X8515420Y-16468841D01*
X8515420Y-16468841D02*
X8515420Y-16430746D01*
X8515420Y-16430746D02*
X8524944Y-16383127D01*
X8524944Y-16383127D02*
X8534468Y-16354555D01*
X8534468Y-16354555D02*
X8543991Y-16335508D01*
X8543991Y-16335508D02*
X8563039Y-16306936D01*
X8563039Y-16306936D02*
X8572563Y-16297412D01*
X8629706Y-16325984D02*
X8753515Y-16325984D01*
X8753515Y-16325984D02*
X8686849Y-16402174D01*
X8686849Y-16402174D02*
X8715420Y-16402174D01*
X8715420Y-16402174D02*
X8734468Y-16411698D01*
X8734468Y-16411698D02*
X8743991Y-16421222D01*
X8743991Y-16421222D02*
X8753515Y-16440269D01*
X8753515Y-16440269D02*
X8753515Y-16487888D01*
X8753515Y-16487888D02*
X8743991Y-16506936D01*
X8743991Y-16506936D02*
X8734468Y-16516460D01*
X8734468Y-16516460D02*
X8715420Y-16525984D01*
X8715420Y-16525984D02*
X8658277Y-16525984D01*
X8658277Y-16525984D02*
X8639230Y-16516460D01*
X8639230Y-16516460D02*
X8629706Y-16506936D01*
X8867801Y-16411698D02*
X8848753Y-16402174D01*
X8848753Y-16402174D02*
X8839230Y-16392650D01*
X8839230Y-16392650D02*
X8829706Y-16373603D01*
X8829706Y-16373603D02*
X8829706Y-16364079D01*
X8829706Y-16364079D02*
X8839230Y-16345031D01*
X8839230Y-16345031D02*
X8848753Y-16335508D01*
X8848753Y-16335508D02*
X8867801Y-16325984D01*
X8867801Y-16325984D02*
X8905896Y-16325984D01*
X8905896Y-16325984D02*
X8924944Y-16335508D01*
X8924944Y-16335508D02*
X8934468Y-16345031D01*
X8934468Y-16345031D02*
X8943991Y-16364079D01*
X8943991Y-16364079D02*
X8943991Y-16373603D01*
X8943991Y-16373603D02*
X8934468Y-16392650D01*
X8934468Y-16392650D02*
X8924944Y-16402174D01*
X8924944Y-16402174D02*
X8905896Y-16411698D01*
X8905896Y-16411698D02*
X8867801Y-16411698D01*
X8867801Y-16411698D02*
X8848753Y-16421222D01*
X8848753Y-16421222D02*
X8839230Y-16430746D01*
X8839230Y-16430746D02*
X8829706Y-16449793D01*
X8829706Y-16449793D02*
X8829706Y-16487888D01*
X8829706Y-16487888D02*
X8839230Y-16506936D01*
X8839230Y-16506936D02*
X8848753Y-16516460D01*
X8848753Y-16516460D02*
X8867801Y-16525984D01*
X8867801Y-16525984D02*
X8905896Y-16525984D01*
X8905896Y-16525984D02*
X8924944Y-16516460D01*
X8924944Y-16516460D02*
X8934468Y-16506936D01*
X8934468Y-16506936D02*
X8943991Y-16487888D01*
X8943991Y-16487888D02*
X8943991Y-16449793D01*
X8943991Y-16449793D02*
X8934468Y-16430746D01*
X8934468Y-16430746D02*
X8924944Y-16421222D01*
X8924944Y-16421222D02*
X8905896Y-16411698D01*
X9182087Y-16525984D02*
X9182087Y-16325984D01*
X9267801Y-16525984D02*
X9267801Y-16421222D01*
X9267801Y-16421222D02*
X9258277Y-16402174D01*
X9258277Y-16402174D02*
X9239230Y-16392650D01*
X9239230Y-16392650D02*
X9210658Y-16392650D01*
X9210658Y-16392650D02*
X9191611Y-16402174D01*
X9191611Y-16402174D02*
X9182087Y-16411698D01*
X9391611Y-16525984D02*
X9372563Y-16516460D01*
X9372563Y-16516460D02*
X9363039Y-16506936D01*
X9363039Y-16506936D02*
X9353515Y-16487888D01*
X9353515Y-16487888D02*
X9353515Y-16430746D01*
X9353515Y-16430746D02*
X9363039Y-16411698D01*
X9363039Y-16411698D02*
X9372563Y-16402174D01*
X9372563Y-16402174D02*
X9391611Y-16392650D01*
X9391611Y-16392650D02*
X9420182Y-16392650D01*
X9420182Y-16392650D02*
X9439230Y-16402174D01*
X9439230Y-16402174D02*
X9448753Y-16411698D01*
X9448753Y-16411698D02*
X9458277Y-16430746D01*
X9458277Y-16430746D02*
X9458277Y-16487888D01*
X9458277Y-16487888D02*
X9448753Y-16506936D01*
X9448753Y-16506936D02*
X9439230Y-16516460D01*
X9439230Y-16516460D02*
X9420182Y-16525984D01*
X9420182Y-16525984D02*
X9391611Y-16525984D01*
X9572563Y-16525984D02*
X9553515Y-16516460D01*
X9553515Y-16516460D02*
X9543992Y-16497412D01*
X9543992Y-16497412D02*
X9543992Y-16325984D01*
X9724944Y-16516460D02*
X9705896Y-16525984D01*
X9705896Y-16525984D02*
X9667801Y-16525984D01*
X9667801Y-16525984D02*
X9648753Y-16516460D01*
X9648753Y-16516460D02*
X9639230Y-16497412D01*
X9639230Y-16497412D02*
X9639230Y-16421222D01*
X9639230Y-16421222D02*
X9648753Y-16402174D01*
X9648753Y-16402174D02*
X9667801Y-16392650D01*
X9667801Y-16392650D02*
X9705896Y-16392650D01*
X9705896Y-16392650D02*
X9724944Y-16402174D01*
X9724944Y-16402174D02*
X9734468Y-16421222D01*
X9734468Y-16421222D02*
X9734468Y-16440269D01*
X9734468Y-16440269D02*
X9639230Y-16459317D01*
X9810658Y-16516460D02*
X9829706Y-16525984D01*
X9829706Y-16525984D02*
X9867801Y-16525984D01*
X9867801Y-16525984D02*
X9886849Y-16516460D01*
X9886849Y-16516460D02*
X9896373Y-16497412D01*
X9896373Y-16497412D02*
X9896373Y-16487888D01*
X9896373Y-16487888D02*
X9886849Y-16468841D01*
X9886849Y-16468841D02*
X9867801Y-16459317D01*
X9867801Y-16459317D02*
X9839230Y-16459317D01*
X9839230Y-16459317D02*
X9820182Y-16449793D01*
X9820182Y-16449793D02*
X9810658Y-16430746D01*
X9810658Y-16430746D02*
X9810658Y-16421222D01*
X9810658Y-16421222D02*
X9820182Y-16402174D01*
X9820182Y-16402174D02*
X9839230Y-16392650D01*
X9839230Y-16392650D02*
X9867801Y-16392650D01*
X9867801Y-16392650D02*
X9886849Y-16402174D01*
X9963039Y-16602174D02*
X9972563Y-16592650D01*
X9972563Y-16592650D02*
X9991611Y-16564079D01*
X9991611Y-16564079D02*
X10001134Y-16545031D01*
X10001134Y-16545031D02*
X10010658Y-16516460D01*
X10010658Y-16516460D02*
X10020182Y-16468841D01*
X10020182Y-16468841D02*
X10020182Y-16430746D01*
X10020182Y-16430746D02*
X10010658Y-16383127D01*
X10010658Y-16383127D02*
X10001134Y-16354555D01*
X10001134Y-16354555D02*
X9991611Y-16335508D01*
X9991611Y-16335508D02*
X9972563Y-16306936D01*
X9972563Y-16306936D02*
X9963039Y-16297412D01*
D12*
X4952500Y-16743500D02*
X4997500Y-16698500D01*
X4952500Y-16653500D01*
X4907500Y-16698500D01*
X4952500Y-16743500D01*
D11*
X5296372Y-16589984D02*
X5315420Y-16589984D01*
X5315420Y-16589984D02*
X5334467Y-16599508D01*
X5334467Y-16599508D02*
X5343991Y-16609031D01*
X5343991Y-16609031D02*
X5353515Y-16628079D01*
X5353515Y-16628079D02*
X5363039Y-16666174D01*
X5363039Y-16666174D02*
X5363039Y-16713793D01*
X5363039Y-16713793D02*
X5353515Y-16751888D01*
X5353515Y-16751888D02*
X5343991Y-16770936D01*
X5343991Y-16770936D02*
X5334467Y-16780460D01*
X5334467Y-16780460D02*
X5315420Y-16789984D01*
X5315420Y-16789984D02*
X5296372Y-16789984D01*
X5296372Y-16789984D02*
X5277324Y-16780460D01*
X5277324Y-16780460D02*
X5267801Y-16770936D01*
X5267801Y-16770936D02*
X5258277Y-16751888D01*
X5258277Y-16751888D02*
X5248753Y-16713793D01*
X5248753Y-16713793D02*
X5248753Y-16666174D01*
X5248753Y-16666174D02*
X5258277Y-16628079D01*
X5258277Y-16628079D02*
X5267801Y-16609031D01*
X5267801Y-16609031D02*
X5277324Y-16599508D01*
X5277324Y-16599508D02*
X5296372Y-16589984D01*
X5448753Y-16770936D02*
X5458277Y-16780460D01*
X5458277Y-16780460D02*
X5448753Y-16789984D01*
X5448753Y-16789984D02*
X5439229Y-16780460D01*
X5439229Y-16780460D02*
X5448753Y-16770936D01*
X5448753Y-16770936D02*
X5448753Y-16789984D01*
X5553515Y-16789984D02*
X5591610Y-16789984D01*
X5591610Y-16789984D02*
X5610658Y-16780460D01*
X5610658Y-16780460D02*
X5620182Y-16770936D01*
X5620182Y-16770936D02*
X5639229Y-16742365D01*
X5639229Y-16742365D02*
X5648753Y-16704269D01*
X5648753Y-16704269D02*
X5648753Y-16628079D01*
X5648753Y-16628079D02*
X5639229Y-16609031D01*
X5639229Y-16609031D02*
X5629705Y-16599508D01*
X5629705Y-16599508D02*
X5610658Y-16589984D01*
X5610658Y-16589984D02*
X5572563Y-16589984D01*
X5572563Y-16589984D02*
X5553515Y-16599508D01*
X5553515Y-16599508D02*
X5543991Y-16609031D01*
X5543991Y-16609031D02*
X5534467Y-16628079D01*
X5534467Y-16628079D02*
X5534467Y-16675698D01*
X5534467Y-16675698D02*
X5543991Y-16694746D01*
X5543991Y-16694746D02*
X5553515Y-16704269D01*
X5553515Y-16704269D02*
X5572563Y-16713793D01*
X5572563Y-16713793D02*
X5610658Y-16713793D01*
X5610658Y-16713793D02*
X5629705Y-16704269D01*
X5629705Y-16704269D02*
X5639229Y-16694746D01*
X5639229Y-16694746D02*
X5648753Y-16675698D01*
X5772562Y-16589984D02*
X5791610Y-16589984D01*
X5791610Y-16589984D02*
X5810658Y-16599508D01*
X5810658Y-16599508D02*
X5820182Y-16609031D01*
X5820182Y-16609031D02*
X5829705Y-16628079D01*
X5829705Y-16628079D02*
X5839229Y-16666174D01*
X5839229Y-16666174D02*
X5839229Y-16713793D01*
X5839229Y-16713793D02*
X5829705Y-16751888D01*
X5829705Y-16751888D02*
X5820182Y-16770936D01*
X5820182Y-16770936D02*
X5810658Y-16780460D01*
X5810658Y-16780460D02*
X5791610Y-16789984D01*
X5791610Y-16789984D02*
X5772562Y-16789984D01*
X5772562Y-16789984D02*
X5753515Y-16780460D01*
X5753515Y-16780460D02*
X5743991Y-16770936D01*
X5743991Y-16770936D02*
X5734467Y-16751888D01*
X5734467Y-16751888D02*
X5724943Y-16713793D01*
X5724943Y-16713793D02*
X5724943Y-16666174D01*
X5724943Y-16666174D02*
X5734467Y-16628079D01*
X5734467Y-16628079D02*
X5743991Y-16609031D01*
X5743991Y-16609031D02*
X5753515Y-16599508D01*
X5753515Y-16599508D02*
X5772562Y-16589984D01*
X5963039Y-16589984D02*
X5982086Y-16589984D01*
X5982086Y-16589984D02*
X6001134Y-16599508D01*
X6001134Y-16599508D02*
X6010658Y-16609031D01*
X6010658Y-16609031D02*
X6020182Y-16628079D01*
X6020182Y-16628079D02*
X6029705Y-16666174D01*
X6029705Y-16666174D02*
X6029705Y-16713793D01*
X6029705Y-16713793D02*
X6020182Y-16751888D01*
X6020182Y-16751888D02*
X6010658Y-16770936D01*
X6010658Y-16770936D02*
X6001134Y-16780460D01*
X6001134Y-16780460D02*
X5982086Y-16789984D01*
X5982086Y-16789984D02*
X5963039Y-16789984D01*
X5963039Y-16789984D02*
X5943991Y-16780460D01*
X5943991Y-16780460D02*
X5934467Y-16770936D01*
X5934467Y-16770936D02*
X5924943Y-16751888D01*
X5924943Y-16751888D02*
X5915420Y-16713793D01*
X5915420Y-16713793D02*
X5915420Y-16666174D01*
X5915420Y-16666174D02*
X5924943Y-16628079D01*
X5924943Y-16628079D02*
X5934467Y-16609031D01*
X5934467Y-16609031D02*
X5943991Y-16599508D01*
X5943991Y-16599508D02*
X5963039Y-16589984D01*
X6115420Y-16789984D02*
X6115420Y-16656650D01*
X6115420Y-16675698D02*
X6124943Y-16666174D01*
X6124943Y-16666174D02*
X6143991Y-16656650D01*
X6143991Y-16656650D02*
X6172563Y-16656650D01*
X6172563Y-16656650D02*
X6191610Y-16666174D01*
X6191610Y-16666174D02*
X6201134Y-16685222D01*
X6201134Y-16685222D02*
X6201134Y-16789984D01*
X6201134Y-16685222D02*
X6210658Y-16666174D01*
X6210658Y-16666174D02*
X6229705Y-16656650D01*
X6229705Y-16656650D02*
X6258277Y-16656650D01*
X6258277Y-16656650D02*
X6277324Y-16666174D01*
X6277324Y-16666174D02*
X6286848Y-16685222D01*
X6286848Y-16685222D02*
X6286848Y-16789984D01*
X6382086Y-16789984D02*
X6382086Y-16656650D01*
X6382086Y-16675698D02*
X6391610Y-16666174D01*
X6391610Y-16666174D02*
X6410658Y-16656650D01*
X6410658Y-16656650D02*
X6439229Y-16656650D01*
X6439229Y-16656650D02*
X6458277Y-16666174D01*
X6458277Y-16666174D02*
X6467801Y-16685222D01*
X6467801Y-16685222D02*
X6467801Y-16789984D01*
X6467801Y-16685222D02*
X6477324Y-16666174D01*
X6477324Y-16666174D02*
X6496372Y-16656650D01*
X6496372Y-16656650D02*
X6524943Y-16656650D01*
X6524943Y-16656650D02*
X6543991Y-16666174D01*
X6543991Y-16666174D02*
X6553515Y-16685222D01*
X6553515Y-16685222D02*
X6553515Y-16789984D01*
X6943991Y-16580460D02*
X6772563Y-16837603D01*
X7201134Y-16589984D02*
X7220182Y-16589984D01*
X7220182Y-16589984D02*
X7239229Y-16599508D01*
X7239229Y-16599508D02*
X7248753Y-16609031D01*
X7248753Y-16609031D02*
X7258277Y-16628079D01*
X7258277Y-16628079D02*
X7267801Y-16666174D01*
X7267801Y-16666174D02*
X7267801Y-16713793D01*
X7267801Y-16713793D02*
X7258277Y-16751888D01*
X7258277Y-16751888D02*
X7248753Y-16770936D01*
X7248753Y-16770936D02*
X7239229Y-16780460D01*
X7239229Y-16780460D02*
X7220182Y-16789984D01*
X7220182Y-16789984D02*
X7201134Y-16789984D01*
X7201134Y-16789984D02*
X7182086Y-16780460D01*
X7182086Y-16780460D02*
X7172563Y-16770936D01*
X7172563Y-16770936D02*
X7163039Y-16751888D01*
X7163039Y-16751888D02*
X7153515Y-16713793D01*
X7153515Y-16713793D02*
X7153515Y-16666174D01*
X7153515Y-16666174D02*
X7163039Y-16628079D01*
X7163039Y-16628079D02*
X7172563Y-16609031D01*
X7172563Y-16609031D02*
X7182086Y-16599508D01*
X7182086Y-16599508D02*
X7201134Y-16589984D01*
X7353515Y-16770936D02*
X7363039Y-16780460D01*
X7363039Y-16780460D02*
X7353515Y-16789984D01*
X7353515Y-16789984D02*
X7343991Y-16780460D01*
X7343991Y-16780460D02*
X7353515Y-16770936D01*
X7353515Y-16770936D02*
X7353515Y-16789984D01*
X7486848Y-16589984D02*
X7505896Y-16589984D01*
X7505896Y-16589984D02*
X7524944Y-16599508D01*
X7524944Y-16599508D02*
X7534467Y-16609031D01*
X7534467Y-16609031D02*
X7543991Y-16628079D01*
X7543991Y-16628079D02*
X7553515Y-16666174D01*
X7553515Y-16666174D02*
X7553515Y-16713793D01*
X7553515Y-16713793D02*
X7543991Y-16751888D01*
X7543991Y-16751888D02*
X7534467Y-16770936D01*
X7534467Y-16770936D02*
X7524944Y-16780460D01*
X7524944Y-16780460D02*
X7505896Y-16789984D01*
X7505896Y-16789984D02*
X7486848Y-16789984D01*
X7486848Y-16789984D02*
X7467801Y-16780460D01*
X7467801Y-16780460D02*
X7458277Y-16770936D01*
X7458277Y-16770936D02*
X7448753Y-16751888D01*
X7448753Y-16751888D02*
X7439229Y-16713793D01*
X7439229Y-16713793D02*
X7439229Y-16666174D01*
X7439229Y-16666174D02*
X7448753Y-16628079D01*
X7448753Y-16628079D02*
X7458277Y-16609031D01*
X7458277Y-16609031D02*
X7467801Y-16599508D01*
X7467801Y-16599508D02*
X7486848Y-16589984D01*
X7620182Y-16589984D02*
X7743991Y-16589984D01*
X7743991Y-16589984D02*
X7677325Y-16666174D01*
X7677325Y-16666174D02*
X7705896Y-16666174D01*
X7705896Y-16666174D02*
X7724944Y-16675698D01*
X7724944Y-16675698D02*
X7734467Y-16685222D01*
X7734467Y-16685222D02*
X7743991Y-16704269D01*
X7743991Y-16704269D02*
X7743991Y-16751888D01*
X7743991Y-16751888D02*
X7734467Y-16770936D01*
X7734467Y-16770936D02*
X7724944Y-16780460D01*
X7724944Y-16780460D02*
X7705896Y-16789984D01*
X7705896Y-16789984D02*
X7648753Y-16789984D01*
X7648753Y-16789984D02*
X7629706Y-16780460D01*
X7629706Y-16780460D02*
X7620182Y-16770936D01*
X7924944Y-16589984D02*
X7829706Y-16589984D01*
X7829706Y-16589984D02*
X7820182Y-16685222D01*
X7820182Y-16685222D02*
X7829706Y-16675698D01*
X7829706Y-16675698D02*
X7848753Y-16666174D01*
X7848753Y-16666174D02*
X7896372Y-16666174D01*
X7896372Y-16666174D02*
X7915420Y-16675698D01*
X7915420Y-16675698D02*
X7924944Y-16685222D01*
X7924944Y-16685222D02*
X7934467Y-16704269D01*
X7934467Y-16704269D02*
X7934467Y-16751888D01*
X7934467Y-16751888D02*
X7924944Y-16770936D01*
X7924944Y-16770936D02*
X7915420Y-16780460D01*
X7915420Y-16780460D02*
X7896372Y-16789984D01*
X7896372Y-16789984D02*
X7848753Y-16789984D01*
X7848753Y-16789984D02*
X7829706Y-16780460D01*
X7829706Y-16780460D02*
X7820182Y-16770936D01*
X8105896Y-16656650D02*
X8105896Y-16789984D01*
X8058277Y-16580460D02*
X8010658Y-16723317D01*
X8010658Y-16723317D02*
X8134467Y-16723317D01*
X8201134Y-16589984D02*
X8201134Y-16628079D01*
X8277325Y-16589984D02*
X8277325Y-16628079D01*
X8572563Y-16866174D02*
X8563039Y-16856650D01*
X8563039Y-16856650D02*
X8543991Y-16828079D01*
X8543991Y-16828079D02*
X8534468Y-16809031D01*
X8534468Y-16809031D02*
X8524944Y-16780460D01*
X8524944Y-16780460D02*
X8515420Y-16732841D01*
X8515420Y-16732841D02*
X8515420Y-16694746D01*
X8515420Y-16694746D02*
X8524944Y-16647127D01*
X8524944Y-16647127D02*
X8534468Y-16618555D01*
X8534468Y-16618555D02*
X8543991Y-16599508D01*
X8543991Y-16599508D02*
X8563039Y-16570936D01*
X8563039Y-16570936D02*
X8572563Y-16561412D01*
X8677325Y-16675698D02*
X8658277Y-16666174D01*
X8658277Y-16666174D02*
X8648753Y-16656650D01*
X8648753Y-16656650D02*
X8639230Y-16637603D01*
X8639230Y-16637603D02*
X8639230Y-16628079D01*
X8639230Y-16628079D02*
X8648753Y-16609031D01*
X8648753Y-16609031D02*
X8658277Y-16599508D01*
X8658277Y-16599508D02*
X8677325Y-16589984D01*
X8677325Y-16589984D02*
X8715420Y-16589984D01*
X8715420Y-16589984D02*
X8734468Y-16599508D01*
X8734468Y-16599508D02*
X8743991Y-16609031D01*
X8743991Y-16609031D02*
X8753515Y-16628079D01*
X8753515Y-16628079D02*
X8753515Y-16637603D01*
X8753515Y-16637603D02*
X8743991Y-16656650D01*
X8743991Y-16656650D02*
X8734468Y-16666174D01*
X8734468Y-16666174D02*
X8715420Y-16675698D01*
X8715420Y-16675698D02*
X8677325Y-16675698D01*
X8677325Y-16675698D02*
X8658277Y-16685222D01*
X8658277Y-16685222D02*
X8648753Y-16694746D01*
X8648753Y-16694746D02*
X8639230Y-16713793D01*
X8639230Y-16713793D02*
X8639230Y-16751888D01*
X8639230Y-16751888D02*
X8648753Y-16770936D01*
X8648753Y-16770936D02*
X8658277Y-16780460D01*
X8658277Y-16780460D02*
X8677325Y-16789984D01*
X8677325Y-16789984D02*
X8715420Y-16789984D01*
X8715420Y-16789984D02*
X8734468Y-16780460D01*
X8734468Y-16780460D02*
X8743991Y-16770936D01*
X8743991Y-16770936D02*
X8753515Y-16751888D01*
X8753515Y-16751888D02*
X8753515Y-16713793D01*
X8753515Y-16713793D02*
X8743991Y-16694746D01*
X8743991Y-16694746D02*
X8734468Y-16685222D01*
X8734468Y-16685222D02*
X8715420Y-16675698D01*
X8991611Y-16789984D02*
X8991611Y-16589984D01*
X9077325Y-16789984D02*
X9077325Y-16685222D01*
X9077325Y-16685222D02*
X9067801Y-16666174D01*
X9067801Y-16666174D02*
X9048753Y-16656650D01*
X9048753Y-16656650D02*
X9020182Y-16656650D01*
X9020182Y-16656650D02*
X9001134Y-16666174D01*
X9001134Y-16666174D02*
X8991611Y-16675698D01*
X9201134Y-16789984D02*
X9182087Y-16780460D01*
X9182087Y-16780460D02*
X9172563Y-16770936D01*
X9172563Y-16770936D02*
X9163039Y-16751888D01*
X9163039Y-16751888D02*
X9163039Y-16694746D01*
X9163039Y-16694746D02*
X9172563Y-16675698D01*
X9172563Y-16675698D02*
X9182087Y-16666174D01*
X9182087Y-16666174D02*
X9201134Y-16656650D01*
X9201134Y-16656650D02*
X9229706Y-16656650D01*
X9229706Y-16656650D02*
X9248753Y-16666174D01*
X9248753Y-16666174D02*
X9258277Y-16675698D01*
X9258277Y-16675698D02*
X9267801Y-16694746D01*
X9267801Y-16694746D02*
X9267801Y-16751888D01*
X9267801Y-16751888D02*
X9258277Y-16770936D01*
X9258277Y-16770936D02*
X9248753Y-16780460D01*
X9248753Y-16780460D02*
X9229706Y-16789984D01*
X9229706Y-16789984D02*
X9201134Y-16789984D01*
X9382087Y-16789984D02*
X9363039Y-16780460D01*
X9363039Y-16780460D02*
X9353515Y-16761412D01*
X9353515Y-16761412D02*
X9353515Y-16589984D01*
X9534468Y-16780460D02*
X9515420Y-16789984D01*
X9515420Y-16789984D02*
X9477325Y-16789984D01*
X9477325Y-16789984D02*
X9458277Y-16780460D01*
X9458277Y-16780460D02*
X9448753Y-16761412D01*
X9448753Y-16761412D02*
X9448753Y-16685222D01*
X9448753Y-16685222D02*
X9458277Y-16666174D01*
X9458277Y-16666174D02*
X9477325Y-16656650D01*
X9477325Y-16656650D02*
X9515420Y-16656650D01*
X9515420Y-16656650D02*
X9534468Y-16666174D01*
X9534468Y-16666174D02*
X9543992Y-16685222D01*
X9543992Y-16685222D02*
X9543992Y-16704269D01*
X9543992Y-16704269D02*
X9448753Y-16723317D01*
X9620182Y-16780460D02*
X9639230Y-16789984D01*
X9639230Y-16789984D02*
X9677325Y-16789984D01*
X9677325Y-16789984D02*
X9696373Y-16780460D01*
X9696373Y-16780460D02*
X9705896Y-16761412D01*
X9705896Y-16761412D02*
X9705896Y-16751888D01*
X9705896Y-16751888D02*
X9696373Y-16732841D01*
X9696373Y-16732841D02*
X9677325Y-16723317D01*
X9677325Y-16723317D02*
X9648753Y-16723317D01*
X9648753Y-16723317D02*
X9629706Y-16713793D01*
X9629706Y-16713793D02*
X9620182Y-16694746D01*
X9620182Y-16694746D02*
X9620182Y-16685222D01*
X9620182Y-16685222D02*
X9629706Y-16666174D01*
X9629706Y-16666174D02*
X9648753Y-16656650D01*
X9648753Y-16656650D02*
X9677325Y-16656650D01*
X9677325Y-16656650D02*
X9696373Y-16666174D01*
X9772563Y-16866174D02*
X9782087Y-16856650D01*
X9782087Y-16856650D02*
X9801134Y-16828079D01*
X9801134Y-16828079D02*
X9810658Y-16809031D01*
X9810658Y-16809031D02*
X9820182Y-16780460D01*
X9820182Y-16780460D02*
X9829706Y-16732841D01*
X9829706Y-16732841D02*
X9829706Y-16694746D01*
X9829706Y-16694746D02*
X9820182Y-16647127D01*
X9820182Y-16647127D02*
X9810658Y-16618555D01*
X9810658Y-16618555D02*
X9801134Y-16599508D01*
X9801134Y-16599508D02*
X9782087Y-16570936D01*
X9782087Y-16570936D02*
X9772563Y-16561412D01*
D12*
X4897500Y-16912500D02*
X4997500Y-17012500D01*
X4997500Y-16912500D02*
X4897500Y-17012500D01*
X4997500Y-16962500D02*
G75*
G02*
X4897500Y-16962500I-50000J0D01*
G01*
X4897500Y-16962500D02*
G75*
G02*
X4997500Y-16962500I50000J0D01*
G01*
D11*
X5363039Y-17053984D02*
X5248753Y-17053984D01*
X5305896Y-17053984D02*
X5305896Y-16853984D01*
X5305896Y-16853984D02*
X5286848Y-16882555D01*
X5286848Y-16882555D02*
X5267801Y-16901603D01*
X5267801Y-16901603D02*
X5248753Y-16911127D01*
X5448753Y-17034936D02*
X5458277Y-17044460D01*
X5458277Y-17044460D02*
X5448753Y-17053984D01*
X5448753Y-17053984D02*
X5439229Y-17044460D01*
X5439229Y-17044460D02*
X5448753Y-17034936D01*
X5448753Y-17034936D02*
X5448753Y-17053984D01*
X5582086Y-16853984D02*
X5601134Y-16853984D01*
X5601134Y-16853984D02*
X5620182Y-16863508D01*
X5620182Y-16863508D02*
X5629705Y-16873031D01*
X5629705Y-16873031D02*
X5639229Y-16892079D01*
X5639229Y-16892079D02*
X5648753Y-16930174D01*
X5648753Y-16930174D02*
X5648753Y-16977793D01*
X5648753Y-16977793D02*
X5639229Y-17015889D01*
X5639229Y-17015889D02*
X5629705Y-17034936D01*
X5629705Y-17034936D02*
X5620182Y-17044460D01*
X5620182Y-17044460D02*
X5601134Y-17053984D01*
X5601134Y-17053984D02*
X5582086Y-17053984D01*
X5582086Y-17053984D02*
X5563039Y-17044460D01*
X5563039Y-17044460D02*
X5553515Y-17034936D01*
X5553515Y-17034936D02*
X5543991Y-17015889D01*
X5543991Y-17015889D02*
X5534467Y-16977793D01*
X5534467Y-16977793D02*
X5534467Y-16930174D01*
X5534467Y-16930174D02*
X5543991Y-16892079D01*
X5543991Y-16892079D02*
X5553515Y-16873031D01*
X5553515Y-16873031D02*
X5563039Y-16863508D01*
X5563039Y-16863508D02*
X5582086Y-16853984D01*
X5772562Y-16853984D02*
X5791610Y-16853984D01*
X5791610Y-16853984D02*
X5810658Y-16863508D01*
X5810658Y-16863508D02*
X5820182Y-16873031D01*
X5820182Y-16873031D02*
X5829705Y-16892079D01*
X5829705Y-16892079D02*
X5839229Y-16930174D01*
X5839229Y-16930174D02*
X5839229Y-16977793D01*
X5839229Y-16977793D02*
X5829705Y-17015889D01*
X5829705Y-17015889D02*
X5820182Y-17034936D01*
X5820182Y-17034936D02*
X5810658Y-17044460D01*
X5810658Y-17044460D02*
X5791610Y-17053984D01*
X5791610Y-17053984D02*
X5772562Y-17053984D01*
X5772562Y-17053984D02*
X5753515Y-17044460D01*
X5753515Y-17044460D02*
X5743991Y-17034936D01*
X5743991Y-17034936D02*
X5734467Y-17015889D01*
X5734467Y-17015889D02*
X5724943Y-16977793D01*
X5724943Y-16977793D02*
X5724943Y-16930174D01*
X5724943Y-16930174D02*
X5734467Y-16892079D01*
X5734467Y-16892079D02*
X5743991Y-16873031D01*
X5743991Y-16873031D02*
X5753515Y-16863508D01*
X5753515Y-16863508D02*
X5772562Y-16853984D01*
X5963039Y-16853984D02*
X5982086Y-16853984D01*
X5982086Y-16853984D02*
X6001134Y-16863508D01*
X6001134Y-16863508D02*
X6010658Y-16873031D01*
X6010658Y-16873031D02*
X6020182Y-16892079D01*
X6020182Y-16892079D02*
X6029705Y-16930174D01*
X6029705Y-16930174D02*
X6029705Y-16977793D01*
X6029705Y-16977793D02*
X6020182Y-17015889D01*
X6020182Y-17015889D02*
X6010658Y-17034936D01*
X6010658Y-17034936D02*
X6001134Y-17044460D01*
X6001134Y-17044460D02*
X5982086Y-17053984D01*
X5982086Y-17053984D02*
X5963039Y-17053984D01*
X5963039Y-17053984D02*
X5943991Y-17044460D01*
X5943991Y-17044460D02*
X5934467Y-17034936D01*
X5934467Y-17034936D02*
X5924943Y-17015889D01*
X5924943Y-17015889D02*
X5915420Y-16977793D01*
X5915420Y-16977793D02*
X5915420Y-16930174D01*
X5915420Y-16930174D02*
X5924943Y-16892079D01*
X5924943Y-16892079D02*
X5934467Y-16873031D01*
X5934467Y-16873031D02*
X5943991Y-16863508D01*
X5943991Y-16863508D02*
X5963039Y-16853984D01*
X6115420Y-17053984D02*
X6115420Y-16920650D01*
X6115420Y-16939698D02*
X6124943Y-16930174D01*
X6124943Y-16930174D02*
X6143991Y-16920650D01*
X6143991Y-16920650D02*
X6172563Y-16920650D01*
X6172563Y-16920650D02*
X6191610Y-16930174D01*
X6191610Y-16930174D02*
X6201134Y-16949222D01*
X6201134Y-16949222D02*
X6201134Y-17053984D01*
X6201134Y-16949222D02*
X6210658Y-16930174D01*
X6210658Y-16930174D02*
X6229705Y-16920650D01*
X6229705Y-16920650D02*
X6258277Y-16920650D01*
X6258277Y-16920650D02*
X6277324Y-16930174D01*
X6277324Y-16930174D02*
X6286848Y-16949222D01*
X6286848Y-16949222D02*
X6286848Y-17053984D01*
X6382086Y-17053984D02*
X6382086Y-16920650D01*
X6382086Y-16939698D02*
X6391610Y-16930174D01*
X6391610Y-16930174D02*
X6410658Y-16920650D01*
X6410658Y-16920650D02*
X6439229Y-16920650D01*
X6439229Y-16920650D02*
X6458277Y-16930174D01*
X6458277Y-16930174D02*
X6467801Y-16949222D01*
X6467801Y-16949222D02*
X6467801Y-17053984D01*
X6467801Y-16949222D02*
X6477324Y-16930174D01*
X6477324Y-16930174D02*
X6496372Y-16920650D01*
X6496372Y-16920650D02*
X6524943Y-16920650D01*
X6524943Y-16920650D02*
X6543991Y-16930174D01*
X6543991Y-16930174D02*
X6553515Y-16949222D01*
X6553515Y-16949222D02*
X6553515Y-17053984D01*
X6943991Y-16844460D02*
X6772563Y-17101603D01*
X7201134Y-16853984D02*
X7220182Y-16853984D01*
X7220182Y-16853984D02*
X7239229Y-16863508D01*
X7239229Y-16863508D02*
X7248753Y-16873031D01*
X7248753Y-16873031D02*
X7258277Y-16892079D01*
X7258277Y-16892079D02*
X7267801Y-16930174D01*
X7267801Y-16930174D02*
X7267801Y-16977793D01*
X7267801Y-16977793D02*
X7258277Y-17015889D01*
X7258277Y-17015889D02*
X7248753Y-17034936D01*
X7248753Y-17034936D02*
X7239229Y-17044460D01*
X7239229Y-17044460D02*
X7220182Y-17053984D01*
X7220182Y-17053984D02*
X7201134Y-17053984D01*
X7201134Y-17053984D02*
X7182086Y-17044460D01*
X7182086Y-17044460D02*
X7172563Y-17034936D01*
X7172563Y-17034936D02*
X7163039Y-17015889D01*
X7163039Y-17015889D02*
X7153515Y-16977793D01*
X7153515Y-16977793D02*
X7153515Y-16930174D01*
X7153515Y-16930174D02*
X7163039Y-16892079D01*
X7163039Y-16892079D02*
X7172563Y-16873031D01*
X7172563Y-16873031D02*
X7182086Y-16863508D01*
X7182086Y-16863508D02*
X7201134Y-16853984D01*
X7353515Y-17034936D02*
X7363039Y-17044460D01*
X7363039Y-17044460D02*
X7353515Y-17053984D01*
X7353515Y-17053984D02*
X7343991Y-17044460D01*
X7343991Y-17044460D02*
X7353515Y-17034936D01*
X7353515Y-17034936D02*
X7353515Y-17053984D01*
X7486848Y-16853984D02*
X7505896Y-16853984D01*
X7505896Y-16853984D02*
X7524944Y-16863508D01*
X7524944Y-16863508D02*
X7534467Y-16873031D01*
X7534467Y-16873031D02*
X7543991Y-16892079D01*
X7543991Y-16892079D02*
X7553515Y-16930174D01*
X7553515Y-16930174D02*
X7553515Y-16977793D01*
X7553515Y-16977793D02*
X7543991Y-17015889D01*
X7543991Y-17015889D02*
X7534467Y-17034936D01*
X7534467Y-17034936D02*
X7524944Y-17044460D01*
X7524944Y-17044460D02*
X7505896Y-17053984D01*
X7505896Y-17053984D02*
X7486848Y-17053984D01*
X7486848Y-17053984D02*
X7467801Y-17044460D01*
X7467801Y-17044460D02*
X7458277Y-17034936D01*
X7458277Y-17034936D02*
X7448753Y-17015889D01*
X7448753Y-17015889D02*
X7439229Y-16977793D01*
X7439229Y-16977793D02*
X7439229Y-16930174D01*
X7439229Y-16930174D02*
X7448753Y-16892079D01*
X7448753Y-16892079D02*
X7458277Y-16873031D01*
X7458277Y-16873031D02*
X7467801Y-16863508D01*
X7467801Y-16863508D02*
X7486848Y-16853984D01*
X7620182Y-16853984D02*
X7743991Y-16853984D01*
X7743991Y-16853984D02*
X7677325Y-16930174D01*
X7677325Y-16930174D02*
X7705896Y-16930174D01*
X7705896Y-16930174D02*
X7724944Y-16939698D01*
X7724944Y-16939698D02*
X7734467Y-16949222D01*
X7734467Y-16949222D02*
X7743991Y-16968270D01*
X7743991Y-16968270D02*
X7743991Y-17015889D01*
X7743991Y-17015889D02*
X7734467Y-17034936D01*
X7734467Y-17034936D02*
X7724944Y-17044460D01*
X7724944Y-17044460D02*
X7705896Y-17053984D01*
X7705896Y-17053984D02*
X7648753Y-17053984D01*
X7648753Y-17053984D02*
X7629706Y-17044460D01*
X7629706Y-17044460D02*
X7620182Y-17034936D01*
X7839229Y-17053984D02*
X7877325Y-17053984D01*
X7877325Y-17053984D02*
X7896372Y-17044460D01*
X7896372Y-17044460D02*
X7905896Y-17034936D01*
X7905896Y-17034936D02*
X7924944Y-17006365D01*
X7924944Y-17006365D02*
X7934467Y-16968270D01*
X7934467Y-16968270D02*
X7934467Y-16892079D01*
X7934467Y-16892079D02*
X7924944Y-16873031D01*
X7924944Y-16873031D02*
X7915420Y-16863508D01*
X7915420Y-16863508D02*
X7896372Y-16853984D01*
X7896372Y-16853984D02*
X7858277Y-16853984D01*
X7858277Y-16853984D02*
X7839229Y-16863508D01*
X7839229Y-16863508D02*
X7829706Y-16873031D01*
X7829706Y-16873031D02*
X7820182Y-16892079D01*
X7820182Y-16892079D02*
X7820182Y-16939698D01*
X7820182Y-16939698D02*
X7829706Y-16958746D01*
X7829706Y-16958746D02*
X7839229Y-16968270D01*
X7839229Y-16968270D02*
X7858277Y-16977793D01*
X7858277Y-16977793D02*
X7896372Y-16977793D01*
X7896372Y-16977793D02*
X7915420Y-16968270D01*
X7915420Y-16968270D02*
X7924944Y-16958746D01*
X7924944Y-16958746D02*
X7934467Y-16939698D01*
X8105896Y-16920650D02*
X8105896Y-17053984D01*
X8058277Y-16844460D02*
X8010658Y-16987317D01*
X8010658Y-16987317D02*
X8134467Y-16987317D01*
X8201134Y-16853984D02*
X8201134Y-16892079D01*
X8277325Y-16853984D02*
X8277325Y-16892079D01*
X8572563Y-17130174D02*
X8563039Y-17120650D01*
X8563039Y-17120650D02*
X8543991Y-17092079D01*
X8543991Y-17092079D02*
X8534468Y-17073031D01*
X8534468Y-17073031D02*
X8524944Y-17044460D01*
X8524944Y-17044460D02*
X8515420Y-16996841D01*
X8515420Y-16996841D02*
X8515420Y-16958746D01*
X8515420Y-16958746D02*
X8524944Y-16911127D01*
X8524944Y-16911127D02*
X8534468Y-16882555D01*
X8534468Y-16882555D02*
X8543991Y-16863508D01*
X8543991Y-16863508D02*
X8563039Y-16834936D01*
X8563039Y-16834936D02*
X8572563Y-16825412D01*
X8734468Y-16853984D02*
X8696372Y-16853984D01*
X8696372Y-16853984D02*
X8677325Y-16863508D01*
X8677325Y-16863508D02*
X8667801Y-16873031D01*
X8667801Y-16873031D02*
X8648753Y-16901603D01*
X8648753Y-16901603D02*
X8639230Y-16939698D01*
X8639230Y-16939698D02*
X8639230Y-17015889D01*
X8639230Y-17015889D02*
X8648753Y-17034936D01*
X8648753Y-17034936D02*
X8658277Y-17044460D01*
X8658277Y-17044460D02*
X8677325Y-17053984D01*
X8677325Y-17053984D02*
X8715420Y-17053984D01*
X8715420Y-17053984D02*
X8734468Y-17044460D01*
X8734468Y-17044460D02*
X8743991Y-17034936D01*
X8743991Y-17034936D02*
X8753515Y-17015889D01*
X8753515Y-17015889D02*
X8753515Y-16968270D01*
X8753515Y-16968270D02*
X8743991Y-16949222D01*
X8743991Y-16949222D02*
X8734468Y-16939698D01*
X8734468Y-16939698D02*
X8715420Y-16930174D01*
X8715420Y-16930174D02*
X8677325Y-16930174D01*
X8677325Y-16930174D02*
X8658277Y-16939698D01*
X8658277Y-16939698D02*
X8648753Y-16949222D01*
X8648753Y-16949222D02*
X8639230Y-16968270D01*
X8877325Y-16853984D02*
X8896372Y-16853984D01*
X8896372Y-16853984D02*
X8915420Y-16863508D01*
X8915420Y-16863508D02*
X8924944Y-16873031D01*
X8924944Y-16873031D02*
X8934468Y-16892079D01*
X8934468Y-16892079D02*
X8943991Y-16930174D01*
X8943991Y-16930174D02*
X8943991Y-16977793D01*
X8943991Y-16977793D02*
X8934468Y-17015889D01*
X8934468Y-17015889D02*
X8924944Y-17034936D01*
X8924944Y-17034936D02*
X8915420Y-17044460D01*
X8915420Y-17044460D02*
X8896372Y-17053984D01*
X8896372Y-17053984D02*
X8877325Y-17053984D01*
X8877325Y-17053984D02*
X8858277Y-17044460D01*
X8858277Y-17044460D02*
X8848753Y-17034936D01*
X8848753Y-17034936D02*
X8839230Y-17015889D01*
X8839230Y-17015889D02*
X8829706Y-16977793D01*
X8829706Y-16977793D02*
X8829706Y-16930174D01*
X8829706Y-16930174D02*
X8839230Y-16892079D01*
X8839230Y-16892079D02*
X8848753Y-16873031D01*
X8848753Y-16873031D02*
X8858277Y-16863508D01*
X8858277Y-16863508D02*
X8877325Y-16853984D01*
X9182087Y-17053984D02*
X9182087Y-16853984D01*
X9267801Y-17053984D02*
X9267801Y-16949222D01*
X9267801Y-16949222D02*
X9258277Y-16930174D01*
X9258277Y-16930174D02*
X9239230Y-16920650D01*
X9239230Y-16920650D02*
X9210658Y-16920650D01*
X9210658Y-16920650D02*
X9191611Y-16930174D01*
X9191611Y-16930174D02*
X9182087Y-16939698D01*
X9391611Y-17053984D02*
X9372563Y-17044460D01*
X9372563Y-17044460D02*
X9363039Y-17034936D01*
X9363039Y-17034936D02*
X9353515Y-17015889D01*
X9353515Y-17015889D02*
X9353515Y-16958746D01*
X9353515Y-16958746D02*
X9363039Y-16939698D01*
X9363039Y-16939698D02*
X9372563Y-16930174D01*
X9372563Y-16930174D02*
X9391611Y-16920650D01*
X9391611Y-16920650D02*
X9420182Y-16920650D01*
X9420182Y-16920650D02*
X9439230Y-16930174D01*
X9439230Y-16930174D02*
X9448753Y-16939698D01*
X9448753Y-16939698D02*
X9458277Y-16958746D01*
X9458277Y-16958746D02*
X9458277Y-17015889D01*
X9458277Y-17015889D02*
X9448753Y-17034936D01*
X9448753Y-17034936D02*
X9439230Y-17044460D01*
X9439230Y-17044460D02*
X9420182Y-17053984D01*
X9420182Y-17053984D02*
X9391611Y-17053984D01*
X9572563Y-17053984D02*
X9553515Y-17044460D01*
X9553515Y-17044460D02*
X9543992Y-17025412D01*
X9543992Y-17025412D02*
X9543992Y-16853984D01*
X9724944Y-17044460D02*
X9705896Y-17053984D01*
X9705896Y-17053984D02*
X9667801Y-17053984D01*
X9667801Y-17053984D02*
X9648753Y-17044460D01*
X9648753Y-17044460D02*
X9639230Y-17025412D01*
X9639230Y-17025412D02*
X9639230Y-16949222D01*
X9639230Y-16949222D02*
X9648753Y-16930174D01*
X9648753Y-16930174D02*
X9667801Y-16920650D01*
X9667801Y-16920650D02*
X9705896Y-16920650D01*
X9705896Y-16920650D02*
X9724944Y-16930174D01*
X9724944Y-16930174D02*
X9734468Y-16949222D01*
X9734468Y-16949222D02*
X9734468Y-16968270D01*
X9734468Y-16968270D02*
X9639230Y-16987317D01*
X9810658Y-17044460D02*
X9829706Y-17053984D01*
X9829706Y-17053984D02*
X9867801Y-17053984D01*
X9867801Y-17053984D02*
X9886849Y-17044460D01*
X9886849Y-17044460D02*
X9896373Y-17025412D01*
X9896373Y-17025412D02*
X9896373Y-17015889D01*
X9896373Y-17015889D02*
X9886849Y-16996841D01*
X9886849Y-16996841D02*
X9867801Y-16987317D01*
X9867801Y-16987317D02*
X9839230Y-16987317D01*
X9839230Y-16987317D02*
X9820182Y-16977793D01*
X9820182Y-16977793D02*
X9810658Y-16958746D01*
X9810658Y-16958746D02*
X9810658Y-16949222D01*
X9810658Y-16949222D02*
X9820182Y-16930174D01*
X9820182Y-16930174D02*
X9839230Y-16920650D01*
X9839230Y-16920650D02*
X9867801Y-16920650D01*
X9867801Y-16920650D02*
X9886849Y-16930174D01*
X9963039Y-17130174D02*
X9972563Y-17120650D01*
X9972563Y-17120650D02*
X9991611Y-17092079D01*
X9991611Y-17092079D02*
X10001134Y-17073031D01*
X10001134Y-17073031D02*
X10010658Y-17044460D01*
X10010658Y-17044460D02*
X10020182Y-16996841D01*
X10020182Y-16996841D02*
X10020182Y-16958746D01*
X10020182Y-16958746D02*
X10010658Y-16911127D01*
X10010658Y-16911127D02*
X10001134Y-16882555D01*
X10001134Y-16882555D02*
X9991611Y-16863508D01*
X9991611Y-16863508D02*
X9972563Y-16834936D01*
X9972563Y-16834936D02*
X9963039Y-16825412D01*
D13*
X4895900Y-17175700D02*
X4997500Y-17277300D01*
X4997500Y-17175700D02*
X4895900Y-17277300D01*
X4946700Y-17175700D02*
X4946700Y-17277300D01*
X4895900Y-17226500D02*
X4997500Y-17226500D01*
D11*
X5363039Y-17317984D02*
X5248753Y-17317984D01*
X5305896Y-17317984D02*
X5305896Y-17117984D01*
X5305896Y-17117984D02*
X5286848Y-17146555D01*
X5286848Y-17146555D02*
X5267801Y-17165603D01*
X5267801Y-17165603D02*
X5248753Y-17175127D01*
X5448753Y-17298936D02*
X5458277Y-17308460D01*
X5458277Y-17308460D02*
X5448753Y-17317984D01*
X5448753Y-17317984D02*
X5439229Y-17308460D01*
X5439229Y-17308460D02*
X5448753Y-17298936D01*
X5448753Y-17298936D02*
X5448753Y-17317984D01*
X5582086Y-17117984D02*
X5601134Y-17117984D01*
X5601134Y-17117984D02*
X5620182Y-17127508D01*
X5620182Y-17127508D02*
X5629705Y-17137031D01*
X5629705Y-17137031D02*
X5639229Y-17156079D01*
X5639229Y-17156079D02*
X5648753Y-17194174D01*
X5648753Y-17194174D02*
X5648753Y-17241793D01*
X5648753Y-17241793D02*
X5639229Y-17279889D01*
X5639229Y-17279889D02*
X5629705Y-17298936D01*
X5629705Y-17298936D02*
X5620182Y-17308460D01*
X5620182Y-17308460D02*
X5601134Y-17317984D01*
X5601134Y-17317984D02*
X5582086Y-17317984D01*
X5582086Y-17317984D02*
X5563039Y-17308460D01*
X5563039Y-17308460D02*
X5553515Y-17298936D01*
X5553515Y-17298936D02*
X5543991Y-17279889D01*
X5543991Y-17279889D02*
X5534467Y-17241793D01*
X5534467Y-17241793D02*
X5534467Y-17194174D01*
X5534467Y-17194174D02*
X5543991Y-17156079D01*
X5543991Y-17156079D02*
X5553515Y-17137031D01*
X5553515Y-17137031D02*
X5563039Y-17127508D01*
X5563039Y-17127508D02*
X5582086Y-17117984D01*
X5839229Y-17317984D02*
X5724943Y-17317984D01*
X5782086Y-17317984D02*
X5782086Y-17117984D01*
X5782086Y-17117984D02*
X5763039Y-17146555D01*
X5763039Y-17146555D02*
X5743991Y-17165603D01*
X5743991Y-17165603D02*
X5724943Y-17175127D01*
X6010658Y-17117984D02*
X5972562Y-17117984D01*
X5972562Y-17117984D02*
X5953515Y-17127508D01*
X5953515Y-17127508D02*
X5943991Y-17137031D01*
X5943991Y-17137031D02*
X5924943Y-17165603D01*
X5924943Y-17165603D02*
X5915420Y-17203698D01*
X5915420Y-17203698D02*
X5915420Y-17279889D01*
X5915420Y-17279889D02*
X5924943Y-17298936D01*
X5924943Y-17298936D02*
X5934467Y-17308460D01*
X5934467Y-17308460D02*
X5953515Y-17317984D01*
X5953515Y-17317984D02*
X5991610Y-17317984D01*
X5991610Y-17317984D02*
X6010658Y-17308460D01*
X6010658Y-17308460D02*
X6020182Y-17298936D01*
X6020182Y-17298936D02*
X6029705Y-17279889D01*
X6029705Y-17279889D02*
X6029705Y-17232270D01*
X6029705Y-17232270D02*
X6020182Y-17213222D01*
X6020182Y-17213222D02*
X6010658Y-17203698D01*
X6010658Y-17203698D02*
X5991610Y-17194174D01*
X5991610Y-17194174D02*
X5953515Y-17194174D01*
X5953515Y-17194174D02*
X5934467Y-17203698D01*
X5934467Y-17203698D02*
X5924943Y-17213222D01*
X5924943Y-17213222D02*
X5915420Y-17232270D01*
X6115420Y-17317984D02*
X6115420Y-17184650D01*
X6115420Y-17203698D02*
X6124943Y-17194174D01*
X6124943Y-17194174D02*
X6143991Y-17184650D01*
X6143991Y-17184650D02*
X6172563Y-17184650D01*
X6172563Y-17184650D02*
X6191610Y-17194174D01*
X6191610Y-17194174D02*
X6201134Y-17213222D01*
X6201134Y-17213222D02*
X6201134Y-17317984D01*
X6201134Y-17213222D02*
X6210658Y-17194174D01*
X6210658Y-17194174D02*
X6229705Y-17184650D01*
X6229705Y-17184650D02*
X6258277Y-17184650D01*
X6258277Y-17184650D02*
X6277324Y-17194174D01*
X6277324Y-17194174D02*
X6286848Y-17213222D01*
X6286848Y-17213222D02*
X6286848Y-17317984D01*
X6382086Y-17317984D02*
X6382086Y-17184650D01*
X6382086Y-17203698D02*
X6391610Y-17194174D01*
X6391610Y-17194174D02*
X6410658Y-17184650D01*
X6410658Y-17184650D02*
X6439229Y-17184650D01*
X6439229Y-17184650D02*
X6458277Y-17194174D01*
X6458277Y-17194174D02*
X6467801Y-17213222D01*
X6467801Y-17213222D02*
X6467801Y-17317984D01*
X6467801Y-17213222D02*
X6477324Y-17194174D01*
X6477324Y-17194174D02*
X6496372Y-17184650D01*
X6496372Y-17184650D02*
X6524943Y-17184650D01*
X6524943Y-17184650D02*
X6543991Y-17194174D01*
X6543991Y-17194174D02*
X6553515Y-17213222D01*
X6553515Y-17213222D02*
X6553515Y-17317984D01*
X6943991Y-17108460D02*
X6772563Y-17365603D01*
X7201134Y-17117984D02*
X7220182Y-17117984D01*
X7220182Y-17117984D02*
X7239229Y-17127508D01*
X7239229Y-17127508D02*
X7248753Y-17137031D01*
X7248753Y-17137031D02*
X7258277Y-17156079D01*
X7258277Y-17156079D02*
X7267801Y-17194174D01*
X7267801Y-17194174D02*
X7267801Y-17241793D01*
X7267801Y-17241793D02*
X7258277Y-17279889D01*
X7258277Y-17279889D02*
X7248753Y-17298936D01*
X7248753Y-17298936D02*
X7239229Y-17308460D01*
X7239229Y-17308460D02*
X7220182Y-17317984D01*
X7220182Y-17317984D02*
X7201134Y-17317984D01*
X7201134Y-17317984D02*
X7182086Y-17308460D01*
X7182086Y-17308460D02*
X7172563Y-17298936D01*
X7172563Y-17298936D02*
X7163039Y-17279889D01*
X7163039Y-17279889D02*
X7153515Y-17241793D01*
X7153515Y-17241793D02*
X7153515Y-17194174D01*
X7153515Y-17194174D02*
X7163039Y-17156079D01*
X7163039Y-17156079D02*
X7172563Y-17137031D01*
X7172563Y-17137031D02*
X7182086Y-17127508D01*
X7182086Y-17127508D02*
X7201134Y-17117984D01*
X7353515Y-17298936D02*
X7363039Y-17308460D01*
X7363039Y-17308460D02*
X7353515Y-17317984D01*
X7353515Y-17317984D02*
X7343991Y-17308460D01*
X7343991Y-17308460D02*
X7353515Y-17298936D01*
X7353515Y-17298936D02*
X7353515Y-17317984D01*
X7486848Y-17117984D02*
X7505896Y-17117984D01*
X7505896Y-17117984D02*
X7524944Y-17127508D01*
X7524944Y-17127508D02*
X7534467Y-17137031D01*
X7534467Y-17137031D02*
X7543991Y-17156079D01*
X7543991Y-17156079D02*
X7553515Y-17194174D01*
X7553515Y-17194174D02*
X7553515Y-17241793D01*
X7553515Y-17241793D02*
X7543991Y-17279889D01*
X7543991Y-17279889D02*
X7534467Y-17298936D01*
X7534467Y-17298936D02*
X7524944Y-17308460D01*
X7524944Y-17308460D02*
X7505896Y-17317984D01*
X7505896Y-17317984D02*
X7486848Y-17317984D01*
X7486848Y-17317984D02*
X7467801Y-17308460D01*
X7467801Y-17308460D02*
X7458277Y-17298936D01*
X7458277Y-17298936D02*
X7448753Y-17279889D01*
X7448753Y-17279889D02*
X7439229Y-17241793D01*
X7439229Y-17241793D02*
X7439229Y-17194174D01*
X7439229Y-17194174D02*
X7448753Y-17156079D01*
X7448753Y-17156079D02*
X7458277Y-17137031D01*
X7458277Y-17137031D02*
X7467801Y-17127508D01*
X7467801Y-17127508D02*
X7486848Y-17117984D01*
X7724944Y-17184650D02*
X7724944Y-17317984D01*
X7677325Y-17108460D02*
X7629706Y-17251317D01*
X7629706Y-17251317D02*
X7753515Y-17251317D01*
X7867801Y-17117984D02*
X7886848Y-17117984D01*
X7886848Y-17117984D02*
X7905896Y-17127508D01*
X7905896Y-17127508D02*
X7915420Y-17137031D01*
X7915420Y-17137031D02*
X7924944Y-17156079D01*
X7924944Y-17156079D02*
X7934467Y-17194174D01*
X7934467Y-17194174D02*
X7934467Y-17241793D01*
X7934467Y-17241793D02*
X7924944Y-17279889D01*
X7924944Y-17279889D02*
X7915420Y-17298936D01*
X7915420Y-17298936D02*
X7905896Y-17308460D01*
X7905896Y-17308460D02*
X7886848Y-17317984D01*
X7886848Y-17317984D02*
X7867801Y-17317984D01*
X7867801Y-17317984D02*
X7848753Y-17308460D01*
X7848753Y-17308460D02*
X7839229Y-17298936D01*
X7839229Y-17298936D02*
X7829706Y-17279889D01*
X7829706Y-17279889D02*
X7820182Y-17241793D01*
X7820182Y-17241793D02*
X7820182Y-17194174D01*
X7820182Y-17194174D02*
X7829706Y-17156079D01*
X7829706Y-17156079D02*
X7839229Y-17137031D01*
X7839229Y-17137031D02*
X7848753Y-17127508D01*
X7848753Y-17127508D02*
X7867801Y-17117984D01*
X8058277Y-17117984D02*
X8077325Y-17117984D01*
X8077325Y-17117984D02*
X8096372Y-17127508D01*
X8096372Y-17127508D02*
X8105896Y-17137031D01*
X8105896Y-17137031D02*
X8115420Y-17156079D01*
X8115420Y-17156079D02*
X8124944Y-17194174D01*
X8124944Y-17194174D02*
X8124944Y-17241793D01*
X8124944Y-17241793D02*
X8115420Y-17279889D01*
X8115420Y-17279889D02*
X8105896Y-17298936D01*
X8105896Y-17298936D02*
X8096372Y-17308460D01*
X8096372Y-17308460D02*
X8077325Y-17317984D01*
X8077325Y-17317984D02*
X8058277Y-17317984D01*
X8058277Y-17317984D02*
X8039229Y-17308460D01*
X8039229Y-17308460D02*
X8029706Y-17298936D01*
X8029706Y-17298936D02*
X8020182Y-17279889D01*
X8020182Y-17279889D02*
X8010658Y-17241793D01*
X8010658Y-17241793D02*
X8010658Y-17194174D01*
X8010658Y-17194174D02*
X8020182Y-17156079D01*
X8020182Y-17156079D02*
X8029706Y-17137031D01*
X8029706Y-17137031D02*
X8039229Y-17127508D01*
X8039229Y-17127508D02*
X8058277Y-17117984D01*
X8201134Y-17117984D02*
X8201134Y-17156079D01*
X8277325Y-17117984D02*
X8277325Y-17156079D01*
X8572563Y-17394174D02*
X8563039Y-17384650D01*
X8563039Y-17384650D02*
X8543991Y-17356079D01*
X8543991Y-17356079D02*
X8534468Y-17337031D01*
X8534468Y-17337031D02*
X8524944Y-17308460D01*
X8524944Y-17308460D02*
X8515420Y-17260841D01*
X8515420Y-17260841D02*
X8515420Y-17222746D01*
X8515420Y-17222746D02*
X8524944Y-17175127D01*
X8524944Y-17175127D02*
X8534468Y-17146555D01*
X8534468Y-17146555D02*
X8543991Y-17127508D01*
X8543991Y-17127508D02*
X8563039Y-17098936D01*
X8563039Y-17098936D02*
X8572563Y-17089412D01*
X8753515Y-17317984D02*
X8639230Y-17317984D01*
X8696372Y-17317984D02*
X8696372Y-17117984D01*
X8696372Y-17117984D02*
X8677325Y-17146555D01*
X8677325Y-17146555D02*
X8658277Y-17165603D01*
X8658277Y-17165603D02*
X8639230Y-17175127D01*
X8934468Y-17117984D02*
X8839230Y-17117984D01*
X8839230Y-17117984D02*
X8829706Y-17213222D01*
X8829706Y-17213222D02*
X8839230Y-17203698D01*
X8839230Y-17203698D02*
X8858277Y-17194174D01*
X8858277Y-17194174D02*
X8905896Y-17194174D01*
X8905896Y-17194174D02*
X8924944Y-17203698D01*
X8924944Y-17203698D02*
X8934468Y-17213222D01*
X8934468Y-17213222D02*
X8943991Y-17232270D01*
X8943991Y-17232270D02*
X8943991Y-17279889D01*
X8943991Y-17279889D02*
X8934468Y-17298936D01*
X8934468Y-17298936D02*
X8924944Y-17308460D01*
X8924944Y-17308460D02*
X8905896Y-17317984D01*
X8905896Y-17317984D02*
X8858277Y-17317984D01*
X8858277Y-17317984D02*
X8839230Y-17308460D01*
X8839230Y-17308460D02*
X8829706Y-17298936D01*
X9182087Y-17317984D02*
X9182087Y-17117984D01*
X9267801Y-17317984D02*
X9267801Y-17213222D01*
X9267801Y-17213222D02*
X9258277Y-17194174D01*
X9258277Y-17194174D02*
X9239230Y-17184650D01*
X9239230Y-17184650D02*
X9210658Y-17184650D01*
X9210658Y-17184650D02*
X9191611Y-17194174D01*
X9191611Y-17194174D02*
X9182087Y-17203698D01*
X9391611Y-17317984D02*
X9372563Y-17308460D01*
X9372563Y-17308460D02*
X9363039Y-17298936D01*
X9363039Y-17298936D02*
X9353515Y-17279889D01*
X9353515Y-17279889D02*
X9353515Y-17222746D01*
X9353515Y-17222746D02*
X9363039Y-17203698D01*
X9363039Y-17203698D02*
X9372563Y-17194174D01*
X9372563Y-17194174D02*
X9391611Y-17184650D01*
X9391611Y-17184650D02*
X9420182Y-17184650D01*
X9420182Y-17184650D02*
X9439230Y-17194174D01*
X9439230Y-17194174D02*
X9448753Y-17203698D01*
X9448753Y-17203698D02*
X9458277Y-17222746D01*
X9458277Y-17222746D02*
X9458277Y-17279889D01*
X9458277Y-17279889D02*
X9448753Y-17298936D01*
X9448753Y-17298936D02*
X9439230Y-17308460D01*
X9439230Y-17308460D02*
X9420182Y-17317984D01*
X9420182Y-17317984D02*
X9391611Y-17317984D01*
X9572563Y-17317984D02*
X9553515Y-17308460D01*
X9553515Y-17308460D02*
X9543992Y-17289412D01*
X9543992Y-17289412D02*
X9543992Y-17117984D01*
X9724944Y-17308460D02*
X9705896Y-17317984D01*
X9705896Y-17317984D02*
X9667801Y-17317984D01*
X9667801Y-17317984D02*
X9648753Y-17308460D01*
X9648753Y-17308460D02*
X9639230Y-17289412D01*
X9639230Y-17289412D02*
X9639230Y-17213222D01*
X9639230Y-17213222D02*
X9648753Y-17194174D01*
X9648753Y-17194174D02*
X9667801Y-17184650D01*
X9667801Y-17184650D02*
X9705896Y-17184650D01*
X9705896Y-17184650D02*
X9724944Y-17194174D01*
X9724944Y-17194174D02*
X9734468Y-17213222D01*
X9734468Y-17213222D02*
X9734468Y-17232270D01*
X9734468Y-17232270D02*
X9639230Y-17251317D01*
X9810658Y-17308460D02*
X9829706Y-17317984D01*
X9829706Y-17317984D02*
X9867801Y-17317984D01*
X9867801Y-17317984D02*
X9886849Y-17308460D01*
X9886849Y-17308460D02*
X9896373Y-17289412D01*
X9896373Y-17289412D02*
X9896373Y-17279889D01*
X9896373Y-17279889D02*
X9886849Y-17260841D01*
X9886849Y-17260841D02*
X9867801Y-17251317D01*
X9867801Y-17251317D02*
X9839230Y-17251317D01*
X9839230Y-17251317D02*
X9820182Y-17241793D01*
X9820182Y-17241793D02*
X9810658Y-17222746D01*
X9810658Y-17222746D02*
X9810658Y-17213222D01*
X9810658Y-17213222D02*
X9820182Y-17194174D01*
X9820182Y-17194174D02*
X9839230Y-17184650D01*
X9839230Y-17184650D02*
X9867801Y-17184650D01*
X9867801Y-17184650D02*
X9886849Y-17194174D01*
X9963039Y-17394174D02*
X9972563Y-17384650D01*
X9972563Y-17384650D02*
X9991611Y-17356079D01*
X9991611Y-17356079D02*
X10001134Y-17337031D01*
X10001134Y-17337031D02*
X10010658Y-17308460D01*
X10010658Y-17308460D02*
X10020182Y-17260841D01*
X10020182Y-17260841D02*
X10020182Y-17222746D01*
X10020182Y-17222746D02*
X10010658Y-17175127D01*
X10010658Y-17175127D02*
X10001134Y-17146555D01*
X10001134Y-17146555D02*
X9991611Y-17127508D01*
X9991611Y-17127508D02*
X9972563Y-17098936D01*
X9972563Y-17098936D02*
X9963039Y-17089412D01*
D14*
X4887500Y-17435500D02*
X4997500Y-17545500D01*
X4997500Y-17435500D02*
X4887500Y-17545500D01*
X4981391Y-17529391D02*
X4981391Y-17451609D01*
X4903609Y-17451609D01*
X4903609Y-17529391D01*
X4981391Y-17529391D01*
D11*
X5363039Y-17581984D02*
X5248753Y-17581984D01*
X5305896Y-17581984D02*
X5305896Y-17381984D01*
X5305896Y-17381984D02*
X5286848Y-17410555D01*
X5286848Y-17410555D02*
X5267801Y-17429603D01*
X5267801Y-17429603D02*
X5248753Y-17439127D01*
X5448753Y-17562936D02*
X5458277Y-17572460D01*
X5458277Y-17572460D02*
X5448753Y-17581984D01*
X5448753Y-17581984D02*
X5439229Y-17572460D01*
X5439229Y-17572460D02*
X5448753Y-17562936D01*
X5448753Y-17562936D02*
X5448753Y-17581984D01*
X5648753Y-17581984D02*
X5534467Y-17581984D01*
X5591610Y-17581984D02*
X5591610Y-17381984D01*
X5591610Y-17381984D02*
X5572563Y-17410555D01*
X5572563Y-17410555D02*
X5553515Y-17429603D01*
X5553515Y-17429603D02*
X5534467Y-17439127D01*
X5772562Y-17381984D02*
X5791610Y-17381984D01*
X5791610Y-17381984D02*
X5810658Y-17391508D01*
X5810658Y-17391508D02*
X5820182Y-17401031D01*
X5820182Y-17401031D02*
X5829705Y-17420079D01*
X5829705Y-17420079D02*
X5839229Y-17458174D01*
X5839229Y-17458174D02*
X5839229Y-17505793D01*
X5839229Y-17505793D02*
X5829705Y-17543889D01*
X5829705Y-17543889D02*
X5820182Y-17562936D01*
X5820182Y-17562936D02*
X5810658Y-17572460D01*
X5810658Y-17572460D02*
X5791610Y-17581984D01*
X5791610Y-17581984D02*
X5772562Y-17581984D01*
X5772562Y-17581984D02*
X5753515Y-17572460D01*
X5753515Y-17572460D02*
X5743991Y-17562936D01*
X5743991Y-17562936D02*
X5734467Y-17543889D01*
X5734467Y-17543889D02*
X5724943Y-17505793D01*
X5724943Y-17505793D02*
X5724943Y-17458174D01*
X5724943Y-17458174D02*
X5734467Y-17420079D01*
X5734467Y-17420079D02*
X5743991Y-17401031D01*
X5743991Y-17401031D02*
X5753515Y-17391508D01*
X5753515Y-17391508D02*
X5772562Y-17381984D01*
X5963039Y-17381984D02*
X5982086Y-17381984D01*
X5982086Y-17381984D02*
X6001134Y-17391508D01*
X6001134Y-17391508D02*
X6010658Y-17401031D01*
X6010658Y-17401031D02*
X6020182Y-17420079D01*
X6020182Y-17420079D02*
X6029705Y-17458174D01*
X6029705Y-17458174D02*
X6029705Y-17505793D01*
X6029705Y-17505793D02*
X6020182Y-17543889D01*
X6020182Y-17543889D02*
X6010658Y-17562936D01*
X6010658Y-17562936D02*
X6001134Y-17572460D01*
X6001134Y-17572460D02*
X5982086Y-17581984D01*
X5982086Y-17581984D02*
X5963039Y-17581984D01*
X5963039Y-17581984D02*
X5943991Y-17572460D01*
X5943991Y-17572460D02*
X5934467Y-17562936D01*
X5934467Y-17562936D02*
X5924943Y-17543889D01*
X5924943Y-17543889D02*
X5915420Y-17505793D01*
X5915420Y-17505793D02*
X5915420Y-17458174D01*
X5915420Y-17458174D02*
X5924943Y-17420079D01*
X5924943Y-17420079D02*
X5934467Y-17401031D01*
X5934467Y-17401031D02*
X5943991Y-17391508D01*
X5943991Y-17391508D02*
X5963039Y-17381984D01*
X6115420Y-17581984D02*
X6115420Y-17448650D01*
X6115420Y-17467698D02*
X6124943Y-17458174D01*
X6124943Y-17458174D02*
X6143991Y-17448650D01*
X6143991Y-17448650D02*
X6172563Y-17448650D01*
X6172563Y-17448650D02*
X6191610Y-17458174D01*
X6191610Y-17458174D02*
X6201134Y-17477222D01*
X6201134Y-17477222D02*
X6201134Y-17581984D01*
X6201134Y-17477222D02*
X6210658Y-17458174D01*
X6210658Y-17458174D02*
X6229705Y-17448650D01*
X6229705Y-17448650D02*
X6258277Y-17448650D01*
X6258277Y-17448650D02*
X6277324Y-17458174D01*
X6277324Y-17458174D02*
X6286848Y-17477222D01*
X6286848Y-17477222D02*
X6286848Y-17581984D01*
X6382086Y-17581984D02*
X6382086Y-17448650D01*
X6382086Y-17467698D02*
X6391610Y-17458174D01*
X6391610Y-17458174D02*
X6410658Y-17448650D01*
X6410658Y-17448650D02*
X6439229Y-17448650D01*
X6439229Y-17448650D02*
X6458277Y-17458174D01*
X6458277Y-17458174D02*
X6467801Y-17477222D01*
X6467801Y-17477222D02*
X6467801Y-17581984D01*
X6467801Y-17477222D02*
X6477324Y-17458174D01*
X6477324Y-17458174D02*
X6496372Y-17448650D01*
X6496372Y-17448650D02*
X6524943Y-17448650D01*
X6524943Y-17448650D02*
X6543991Y-17458174D01*
X6543991Y-17458174D02*
X6553515Y-17477222D01*
X6553515Y-17477222D02*
X6553515Y-17581984D01*
X6943991Y-17372460D02*
X6772563Y-17629603D01*
X7201134Y-17381984D02*
X7220182Y-17381984D01*
X7220182Y-17381984D02*
X7239229Y-17391508D01*
X7239229Y-17391508D02*
X7248753Y-17401031D01*
X7248753Y-17401031D02*
X7258277Y-17420079D01*
X7258277Y-17420079D02*
X7267801Y-17458174D01*
X7267801Y-17458174D02*
X7267801Y-17505793D01*
X7267801Y-17505793D02*
X7258277Y-17543889D01*
X7258277Y-17543889D02*
X7248753Y-17562936D01*
X7248753Y-17562936D02*
X7239229Y-17572460D01*
X7239229Y-17572460D02*
X7220182Y-17581984D01*
X7220182Y-17581984D02*
X7201134Y-17581984D01*
X7201134Y-17581984D02*
X7182086Y-17572460D01*
X7182086Y-17572460D02*
X7172563Y-17562936D01*
X7172563Y-17562936D02*
X7163039Y-17543889D01*
X7163039Y-17543889D02*
X7153515Y-17505793D01*
X7153515Y-17505793D02*
X7153515Y-17458174D01*
X7153515Y-17458174D02*
X7163039Y-17420079D01*
X7163039Y-17420079D02*
X7172563Y-17401031D01*
X7172563Y-17401031D02*
X7182086Y-17391508D01*
X7182086Y-17391508D02*
X7201134Y-17381984D01*
X7353515Y-17562936D02*
X7363039Y-17572460D01*
X7363039Y-17572460D02*
X7353515Y-17581984D01*
X7353515Y-17581984D02*
X7343991Y-17572460D01*
X7343991Y-17572460D02*
X7353515Y-17562936D01*
X7353515Y-17562936D02*
X7353515Y-17581984D01*
X7486848Y-17381984D02*
X7505896Y-17381984D01*
X7505896Y-17381984D02*
X7524944Y-17391508D01*
X7524944Y-17391508D02*
X7534467Y-17401031D01*
X7534467Y-17401031D02*
X7543991Y-17420079D01*
X7543991Y-17420079D02*
X7553515Y-17458174D01*
X7553515Y-17458174D02*
X7553515Y-17505793D01*
X7553515Y-17505793D02*
X7543991Y-17543889D01*
X7543991Y-17543889D02*
X7534467Y-17562936D01*
X7534467Y-17562936D02*
X7524944Y-17572460D01*
X7524944Y-17572460D02*
X7505896Y-17581984D01*
X7505896Y-17581984D02*
X7486848Y-17581984D01*
X7486848Y-17581984D02*
X7467801Y-17572460D01*
X7467801Y-17572460D02*
X7458277Y-17562936D01*
X7458277Y-17562936D02*
X7448753Y-17543889D01*
X7448753Y-17543889D02*
X7439229Y-17505793D01*
X7439229Y-17505793D02*
X7439229Y-17458174D01*
X7439229Y-17458174D02*
X7448753Y-17420079D01*
X7448753Y-17420079D02*
X7458277Y-17401031D01*
X7458277Y-17401031D02*
X7467801Y-17391508D01*
X7467801Y-17391508D02*
X7486848Y-17381984D01*
X7724944Y-17448650D02*
X7724944Y-17581984D01*
X7677325Y-17372460D02*
X7629706Y-17515317D01*
X7629706Y-17515317D02*
X7753515Y-17515317D01*
X7810658Y-17381984D02*
X7934467Y-17381984D01*
X7934467Y-17381984D02*
X7867801Y-17458174D01*
X7867801Y-17458174D02*
X7896372Y-17458174D01*
X7896372Y-17458174D02*
X7915420Y-17467698D01*
X7915420Y-17467698D02*
X7924944Y-17477222D01*
X7924944Y-17477222D02*
X7934467Y-17496270D01*
X7934467Y-17496270D02*
X7934467Y-17543889D01*
X7934467Y-17543889D02*
X7924944Y-17562936D01*
X7924944Y-17562936D02*
X7915420Y-17572460D01*
X7915420Y-17572460D02*
X7896372Y-17581984D01*
X7896372Y-17581984D02*
X7839229Y-17581984D01*
X7839229Y-17581984D02*
X7820182Y-17572460D01*
X7820182Y-17572460D02*
X7810658Y-17562936D01*
X8001134Y-17381984D02*
X8124944Y-17381984D01*
X8124944Y-17381984D02*
X8058277Y-17458174D01*
X8058277Y-17458174D02*
X8086848Y-17458174D01*
X8086848Y-17458174D02*
X8105896Y-17467698D01*
X8105896Y-17467698D02*
X8115420Y-17477222D01*
X8115420Y-17477222D02*
X8124944Y-17496270D01*
X8124944Y-17496270D02*
X8124944Y-17543889D01*
X8124944Y-17543889D02*
X8115420Y-17562936D01*
X8115420Y-17562936D02*
X8105896Y-17572460D01*
X8105896Y-17572460D02*
X8086848Y-17581984D01*
X8086848Y-17581984D02*
X8029706Y-17581984D01*
X8029706Y-17581984D02*
X8010658Y-17572460D01*
X8010658Y-17572460D02*
X8001134Y-17562936D01*
X8201134Y-17381984D02*
X8201134Y-17420079D01*
X8277325Y-17381984D02*
X8277325Y-17420079D01*
X8572563Y-17658174D02*
X8563039Y-17648650D01*
X8563039Y-17648650D02*
X8543991Y-17620079D01*
X8543991Y-17620079D02*
X8534468Y-17601031D01*
X8534468Y-17601031D02*
X8524944Y-17572460D01*
X8524944Y-17572460D02*
X8515420Y-17524841D01*
X8515420Y-17524841D02*
X8515420Y-17486746D01*
X8515420Y-17486746D02*
X8524944Y-17439127D01*
X8524944Y-17439127D02*
X8534468Y-17410555D01*
X8534468Y-17410555D02*
X8543991Y-17391508D01*
X8543991Y-17391508D02*
X8563039Y-17362936D01*
X8563039Y-17362936D02*
X8572563Y-17353412D01*
X8753515Y-17581984D02*
X8639230Y-17581984D01*
X8696372Y-17581984D02*
X8696372Y-17381984D01*
X8696372Y-17381984D02*
X8677325Y-17410555D01*
X8677325Y-17410555D02*
X8658277Y-17429603D01*
X8658277Y-17429603D02*
X8639230Y-17439127D01*
X8820182Y-17381984D02*
X8953515Y-17381984D01*
X8953515Y-17381984D02*
X8867801Y-17581984D01*
X9182087Y-17581984D02*
X9182087Y-17381984D01*
X9267801Y-17581984D02*
X9267801Y-17477222D01*
X9267801Y-17477222D02*
X9258277Y-17458174D01*
X9258277Y-17458174D02*
X9239230Y-17448650D01*
X9239230Y-17448650D02*
X9210658Y-17448650D01*
X9210658Y-17448650D02*
X9191611Y-17458174D01*
X9191611Y-17458174D02*
X9182087Y-17467698D01*
X9391611Y-17581984D02*
X9372563Y-17572460D01*
X9372563Y-17572460D02*
X9363039Y-17562936D01*
X9363039Y-17562936D02*
X9353515Y-17543889D01*
X9353515Y-17543889D02*
X9353515Y-17486746D01*
X9353515Y-17486746D02*
X9363039Y-17467698D01*
X9363039Y-17467698D02*
X9372563Y-17458174D01*
X9372563Y-17458174D02*
X9391611Y-17448650D01*
X9391611Y-17448650D02*
X9420182Y-17448650D01*
X9420182Y-17448650D02*
X9439230Y-17458174D01*
X9439230Y-17458174D02*
X9448753Y-17467698D01*
X9448753Y-17467698D02*
X9458277Y-17486746D01*
X9458277Y-17486746D02*
X9458277Y-17543889D01*
X9458277Y-17543889D02*
X9448753Y-17562936D01*
X9448753Y-17562936D02*
X9439230Y-17572460D01*
X9439230Y-17572460D02*
X9420182Y-17581984D01*
X9420182Y-17581984D02*
X9391611Y-17581984D01*
X9572563Y-17581984D02*
X9553515Y-17572460D01*
X9553515Y-17572460D02*
X9543992Y-17553412D01*
X9543992Y-17553412D02*
X9543992Y-17381984D01*
X9724944Y-17572460D02*
X9705896Y-17581984D01*
X9705896Y-17581984D02*
X9667801Y-17581984D01*
X9667801Y-17581984D02*
X9648753Y-17572460D01*
X9648753Y-17572460D02*
X9639230Y-17553412D01*
X9639230Y-17553412D02*
X9639230Y-17477222D01*
X9639230Y-17477222D02*
X9648753Y-17458174D01*
X9648753Y-17458174D02*
X9667801Y-17448650D01*
X9667801Y-17448650D02*
X9705896Y-17448650D01*
X9705896Y-17448650D02*
X9724944Y-17458174D01*
X9724944Y-17458174D02*
X9734468Y-17477222D01*
X9734468Y-17477222D02*
X9734468Y-17496270D01*
X9734468Y-17496270D02*
X9639230Y-17515317D01*
X9810658Y-17572460D02*
X9829706Y-17581984D01*
X9829706Y-17581984D02*
X9867801Y-17581984D01*
X9867801Y-17581984D02*
X9886849Y-17572460D01*
X9886849Y-17572460D02*
X9896373Y-17553412D01*
X9896373Y-17553412D02*
X9896373Y-17543889D01*
X9896373Y-17543889D02*
X9886849Y-17524841D01*
X9886849Y-17524841D02*
X9867801Y-17515317D01*
X9867801Y-17515317D02*
X9839230Y-17515317D01*
X9839230Y-17515317D02*
X9820182Y-17505793D01*
X9820182Y-17505793D02*
X9810658Y-17486746D01*
X9810658Y-17486746D02*
X9810658Y-17477222D01*
X9810658Y-17477222D02*
X9820182Y-17458174D01*
X9820182Y-17458174D02*
X9839230Y-17448650D01*
X9839230Y-17448650D02*
X9867801Y-17448650D01*
X9867801Y-17448650D02*
X9886849Y-17458174D01*
X9963039Y-17658174D02*
X9972563Y-17648650D01*
X9972563Y-17648650D02*
X9991611Y-17620079D01*
X9991611Y-17620079D02*
X10001134Y-17601031D01*
X10001134Y-17601031D02*
X10010658Y-17572460D01*
X10010658Y-17572460D02*
X10020182Y-17524841D01*
X10020182Y-17524841D02*
X10020182Y-17486746D01*
X10020182Y-17486746D02*
X10010658Y-17439127D01*
X10010658Y-17439127D02*
X10001134Y-17410555D01*
X10001134Y-17410555D02*
X9991611Y-17391508D01*
X9991611Y-17391508D02*
X9972563Y-17362936D01*
X9972563Y-17362936D02*
X9963039Y-17353412D01*
D15*
X4867500Y-17689500D02*
X4997500Y-17819500D01*
X4997500Y-17689500D02*
X4867500Y-17819500D01*
X4932500Y-17819500D02*
X4997500Y-17754500D01*
X4932500Y-17689500D01*
X4867500Y-17754500D01*
X4932500Y-17819500D01*
D11*
X5363039Y-17845984D02*
X5248753Y-17845984D01*
X5305896Y-17845984D02*
X5305896Y-17645984D01*
X5305896Y-17645984D02*
X5286848Y-17674555D01*
X5286848Y-17674555D02*
X5267801Y-17693603D01*
X5267801Y-17693603D02*
X5248753Y-17703127D01*
X5448753Y-17826936D02*
X5458277Y-17836460D01*
X5458277Y-17836460D02*
X5448753Y-17845984D01*
X5448753Y-17845984D02*
X5439229Y-17836460D01*
X5439229Y-17836460D02*
X5448753Y-17826936D01*
X5448753Y-17826936D02*
X5448753Y-17845984D01*
X5524944Y-17645984D02*
X5648753Y-17645984D01*
X5648753Y-17645984D02*
X5582086Y-17722174D01*
X5582086Y-17722174D02*
X5610658Y-17722174D01*
X5610658Y-17722174D02*
X5629705Y-17731698D01*
X5629705Y-17731698D02*
X5639229Y-17741222D01*
X5639229Y-17741222D02*
X5648753Y-17760270D01*
X5648753Y-17760270D02*
X5648753Y-17807889D01*
X5648753Y-17807889D02*
X5639229Y-17826936D01*
X5639229Y-17826936D02*
X5629705Y-17836460D01*
X5629705Y-17836460D02*
X5610658Y-17845984D01*
X5610658Y-17845984D02*
X5553515Y-17845984D01*
X5553515Y-17845984D02*
X5534467Y-17836460D01*
X5534467Y-17836460D02*
X5524944Y-17826936D01*
X5772562Y-17645984D02*
X5791610Y-17645984D01*
X5791610Y-17645984D02*
X5810658Y-17655508D01*
X5810658Y-17655508D02*
X5820182Y-17665031D01*
X5820182Y-17665031D02*
X5829705Y-17684079D01*
X5829705Y-17684079D02*
X5839229Y-17722174D01*
X5839229Y-17722174D02*
X5839229Y-17769793D01*
X5839229Y-17769793D02*
X5829705Y-17807889D01*
X5829705Y-17807889D02*
X5820182Y-17826936D01*
X5820182Y-17826936D02*
X5810658Y-17836460D01*
X5810658Y-17836460D02*
X5791610Y-17845984D01*
X5791610Y-17845984D02*
X5772562Y-17845984D01*
X5772562Y-17845984D02*
X5753515Y-17836460D01*
X5753515Y-17836460D02*
X5743991Y-17826936D01*
X5743991Y-17826936D02*
X5734467Y-17807889D01*
X5734467Y-17807889D02*
X5724943Y-17769793D01*
X5724943Y-17769793D02*
X5724943Y-17722174D01*
X5724943Y-17722174D02*
X5734467Y-17684079D01*
X5734467Y-17684079D02*
X5743991Y-17665031D01*
X5743991Y-17665031D02*
X5753515Y-17655508D01*
X5753515Y-17655508D02*
X5772562Y-17645984D01*
X5963039Y-17645984D02*
X5982086Y-17645984D01*
X5982086Y-17645984D02*
X6001134Y-17655508D01*
X6001134Y-17655508D02*
X6010658Y-17665031D01*
X6010658Y-17665031D02*
X6020182Y-17684079D01*
X6020182Y-17684079D02*
X6029705Y-17722174D01*
X6029705Y-17722174D02*
X6029705Y-17769793D01*
X6029705Y-17769793D02*
X6020182Y-17807889D01*
X6020182Y-17807889D02*
X6010658Y-17826936D01*
X6010658Y-17826936D02*
X6001134Y-17836460D01*
X6001134Y-17836460D02*
X5982086Y-17845984D01*
X5982086Y-17845984D02*
X5963039Y-17845984D01*
X5963039Y-17845984D02*
X5943991Y-17836460D01*
X5943991Y-17836460D02*
X5934467Y-17826936D01*
X5934467Y-17826936D02*
X5924943Y-17807889D01*
X5924943Y-17807889D02*
X5915420Y-17769793D01*
X5915420Y-17769793D02*
X5915420Y-17722174D01*
X5915420Y-17722174D02*
X5924943Y-17684079D01*
X5924943Y-17684079D02*
X5934467Y-17665031D01*
X5934467Y-17665031D02*
X5943991Y-17655508D01*
X5943991Y-17655508D02*
X5963039Y-17645984D01*
X6115420Y-17845984D02*
X6115420Y-17712650D01*
X6115420Y-17731698D02*
X6124943Y-17722174D01*
X6124943Y-17722174D02*
X6143991Y-17712650D01*
X6143991Y-17712650D02*
X6172563Y-17712650D01*
X6172563Y-17712650D02*
X6191610Y-17722174D01*
X6191610Y-17722174D02*
X6201134Y-17741222D01*
X6201134Y-17741222D02*
X6201134Y-17845984D01*
X6201134Y-17741222D02*
X6210658Y-17722174D01*
X6210658Y-17722174D02*
X6229705Y-17712650D01*
X6229705Y-17712650D02*
X6258277Y-17712650D01*
X6258277Y-17712650D02*
X6277324Y-17722174D01*
X6277324Y-17722174D02*
X6286848Y-17741222D01*
X6286848Y-17741222D02*
X6286848Y-17845984D01*
X6382086Y-17845984D02*
X6382086Y-17712650D01*
X6382086Y-17731698D02*
X6391610Y-17722174D01*
X6391610Y-17722174D02*
X6410658Y-17712650D01*
X6410658Y-17712650D02*
X6439229Y-17712650D01*
X6439229Y-17712650D02*
X6458277Y-17722174D01*
X6458277Y-17722174D02*
X6467801Y-17741222D01*
X6467801Y-17741222D02*
X6467801Y-17845984D01*
X6467801Y-17741222D02*
X6477324Y-17722174D01*
X6477324Y-17722174D02*
X6496372Y-17712650D01*
X6496372Y-17712650D02*
X6524943Y-17712650D01*
X6524943Y-17712650D02*
X6543991Y-17722174D01*
X6543991Y-17722174D02*
X6553515Y-17741222D01*
X6553515Y-17741222D02*
X6553515Y-17845984D01*
X6943991Y-17636460D02*
X6772563Y-17893603D01*
X7201134Y-17645984D02*
X7220182Y-17645984D01*
X7220182Y-17645984D02*
X7239229Y-17655508D01*
X7239229Y-17655508D02*
X7248753Y-17665031D01*
X7248753Y-17665031D02*
X7258277Y-17684079D01*
X7258277Y-17684079D02*
X7267801Y-17722174D01*
X7267801Y-17722174D02*
X7267801Y-17769793D01*
X7267801Y-17769793D02*
X7258277Y-17807889D01*
X7258277Y-17807889D02*
X7248753Y-17826936D01*
X7248753Y-17826936D02*
X7239229Y-17836460D01*
X7239229Y-17836460D02*
X7220182Y-17845984D01*
X7220182Y-17845984D02*
X7201134Y-17845984D01*
X7201134Y-17845984D02*
X7182086Y-17836460D01*
X7182086Y-17836460D02*
X7172563Y-17826936D01*
X7172563Y-17826936D02*
X7163039Y-17807889D01*
X7163039Y-17807889D02*
X7153515Y-17769793D01*
X7153515Y-17769793D02*
X7153515Y-17722174D01*
X7153515Y-17722174D02*
X7163039Y-17684079D01*
X7163039Y-17684079D02*
X7172563Y-17665031D01*
X7172563Y-17665031D02*
X7182086Y-17655508D01*
X7182086Y-17655508D02*
X7201134Y-17645984D01*
X7353515Y-17826936D02*
X7363039Y-17836460D01*
X7363039Y-17836460D02*
X7353515Y-17845984D01*
X7353515Y-17845984D02*
X7343991Y-17836460D01*
X7343991Y-17836460D02*
X7353515Y-17826936D01*
X7353515Y-17826936D02*
X7353515Y-17845984D01*
X7486848Y-17645984D02*
X7505896Y-17645984D01*
X7505896Y-17645984D02*
X7524944Y-17655508D01*
X7524944Y-17655508D02*
X7534467Y-17665031D01*
X7534467Y-17665031D02*
X7543991Y-17684079D01*
X7543991Y-17684079D02*
X7553515Y-17722174D01*
X7553515Y-17722174D02*
X7553515Y-17769793D01*
X7553515Y-17769793D02*
X7543991Y-17807889D01*
X7543991Y-17807889D02*
X7534467Y-17826936D01*
X7534467Y-17826936D02*
X7524944Y-17836460D01*
X7524944Y-17836460D02*
X7505896Y-17845984D01*
X7505896Y-17845984D02*
X7486848Y-17845984D01*
X7486848Y-17845984D02*
X7467801Y-17836460D01*
X7467801Y-17836460D02*
X7458277Y-17826936D01*
X7458277Y-17826936D02*
X7448753Y-17807889D01*
X7448753Y-17807889D02*
X7439229Y-17769793D01*
X7439229Y-17769793D02*
X7439229Y-17722174D01*
X7439229Y-17722174D02*
X7448753Y-17684079D01*
X7448753Y-17684079D02*
X7458277Y-17665031D01*
X7458277Y-17665031D02*
X7467801Y-17655508D01*
X7467801Y-17655508D02*
X7486848Y-17645984D01*
X7734467Y-17645984D02*
X7639229Y-17645984D01*
X7639229Y-17645984D02*
X7629706Y-17741222D01*
X7629706Y-17741222D02*
X7639229Y-17731698D01*
X7639229Y-17731698D02*
X7658277Y-17722174D01*
X7658277Y-17722174D02*
X7705896Y-17722174D01*
X7705896Y-17722174D02*
X7724944Y-17731698D01*
X7724944Y-17731698D02*
X7734467Y-17741222D01*
X7734467Y-17741222D02*
X7743991Y-17760270D01*
X7743991Y-17760270D02*
X7743991Y-17807889D01*
X7743991Y-17807889D02*
X7734467Y-17826936D01*
X7734467Y-17826936D02*
X7724944Y-17836460D01*
X7724944Y-17836460D02*
X7705896Y-17845984D01*
X7705896Y-17845984D02*
X7658277Y-17845984D01*
X7658277Y-17845984D02*
X7639229Y-17836460D01*
X7639229Y-17836460D02*
X7629706Y-17826936D01*
X7934467Y-17845984D02*
X7820182Y-17845984D01*
X7877325Y-17845984D02*
X7877325Y-17645984D01*
X7877325Y-17645984D02*
X7858277Y-17674555D01*
X7858277Y-17674555D02*
X7839229Y-17693603D01*
X7839229Y-17693603D02*
X7820182Y-17703127D01*
X8010658Y-17665031D02*
X8020182Y-17655508D01*
X8020182Y-17655508D02*
X8039229Y-17645984D01*
X8039229Y-17645984D02*
X8086848Y-17645984D01*
X8086848Y-17645984D02*
X8105896Y-17655508D01*
X8105896Y-17655508D02*
X8115420Y-17665031D01*
X8115420Y-17665031D02*
X8124944Y-17684079D01*
X8124944Y-17684079D02*
X8124944Y-17703127D01*
X8124944Y-17703127D02*
X8115420Y-17731698D01*
X8115420Y-17731698D02*
X8001134Y-17845984D01*
X8001134Y-17845984D02*
X8124944Y-17845984D01*
X8201134Y-17645984D02*
X8201134Y-17684079D01*
X8277325Y-17645984D02*
X8277325Y-17684079D01*
X8572563Y-17922174D02*
X8563039Y-17912650D01*
X8563039Y-17912650D02*
X8543991Y-17884079D01*
X8543991Y-17884079D02*
X8534468Y-17865031D01*
X8534468Y-17865031D02*
X8524944Y-17836460D01*
X8524944Y-17836460D02*
X8515420Y-17788841D01*
X8515420Y-17788841D02*
X8515420Y-17750746D01*
X8515420Y-17750746D02*
X8524944Y-17703127D01*
X8524944Y-17703127D02*
X8534468Y-17674555D01*
X8534468Y-17674555D02*
X8543991Y-17655508D01*
X8543991Y-17655508D02*
X8563039Y-17626936D01*
X8563039Y-17626936D02*
X8572563Y-17617412D01*
X8753515Y-17845984D02*
X8639230Y-17845984D01*
X8696372Y-17845984D02*
X8696372Y-17645984D01*
X8696372Y-17645984D02*
X8677325Y-17674555D01*
X8677325Y-17674555D02*
X8658277Y-17693603D01*
X8658277Y-17693603D02*
X8639230Y-17703127D01*
X8943991Y-17845984D02*
X8829706Y-17845984D01*
X8886849Y-17845984D02*
X8886849Y-17645984D01*
X8886849Y-17645984D02*
X8867801Y-17674555D01*
X8867801Y-17674555D02*
X8848753Y-17693603D01*
X8848753Y-17693603D02*
X8829706Y-17703127D01*
X9182087Y-17845984D02*
X9182087Y-17645984D01*
X9267801Y-17845984D02*
X9267801Y-17741222D01*
X9267801Y-17741222D02*
X9258277Y-17722174D01*
X9258277Y-17722174D02*
X9239230Y-17712650D01*
X9239230Y-17712650D02*
X9210658Y-17712650D01*
X9210658Y-17712650D02*
X9191611Y-17722174D01*
X9191611Y-17722174D02*
X9182087Y-17731698D01*
X9391611Y-17845984D02*
X9372563Y-17836460D01*
X9372563Y-17836460D02*
X9363039Y-17826936D01*
X9363039Y-17826936D02*
X9353515Y-17807889D01*
X9353515Y-17807889D02*
X9353515Y-17750746D01*
X9353515Y-17750746D02*
X9363039Y-17731698D01*
X9363039Y-17731698D02*
X9372563Y-17722174D01*
X9372563Y-17722174D02*
X9391611Y-17712650D01*
X9391611Y-17712650D02*
X9420182Y-17712650D01*
X9420182Y-17712650D02*
X9439230Y-17722174D01*
X9439230Y-17722174D02*
X9448753Y-17731698D01*
X9448753Y-17731698D02*
X9458277Y-17750746D01*
X9458277Y-17750746D02*
X9458277Y-17807889D01*
X9458277Y-17807889D02*
X9448753Y-17826936D01*
X9448753Y-17826936D02*
X9439230Y-17836460D01*
X9439230Y-17836460D02*
X9420182Y-17845984D01*
X9420182Y-17845984D02*
X9391611Y-17845984D01*
X9572563Y-17845984D02*
X9553515Y-17836460D01*
X9553515Y-17836460D02*
X9543992Y-17817412D01*
X9543992Y-17817412D02*
X9543992Y-17645984D01*
X9724944Y-17836460D02*
X9705896Y-17845984D01*
X9705896Y-17845984D02*
X9667801Y-17845984D01*
X9667801Y-17845984D02*
X9648753Y-17836460D01*
X9648753Y-17836460D02*
X9639230Y-17817412D01*
X9639230Y-17817412D02*
X9639230Y-17741222D01*
X9639230Y-17741222D02*
X9648753Y-17722174D01*
X9648753Y-17722174D02*
X9667801Y-17712650D01*
X9667801Y-17712650D02*
X9705896Y-17712650D01*
X9705896Y-17712650D02*
X9724944Y-17722174D01*
X9724944Y-17722174D02*
X9734468Y-17741222D01*
X9734468Y-17741222D02*
X9734468Y-17760270D01*
X9734468Y-17760270D02*
X9639230Y-17779317D01*
X9810658Y-17836460D02*
X9829706Y-17845984D01*
X9829706Y-17845984D02*
X9867801Y-17845984D01*
X9867801Y-17845984D02*
X9886849Y-17836460D01*
X9886849Y-17836460D02*
X9896373Y-17817412D01*
X9896373Y-17817412D02*
X9896373Y-17807889D01*
X9896373Y-17807889D02*
X9886849Y-17788841D01*
X9886849Y-17788841D02*
X9867801Y-17779317D01*
X9867801Y-17779317D02*
X9839230Y-17779317D01*
X9839230Y-17779317D02*
X9820182Y-17769793D01*
X9820182Y-17769793D02*
X9810658Y-17750746D01*
X9810658Y-17750746D02*
X9810658Y-17741222D01*
X9810658Y-17741222D02*
X9820182Y-17722174D01*
X9820182Y-17722174D02*
X9839230Y-17712650D01*
X9839230Y-17712650D02*
X9867801Y-17712650D01*
X9867801Y-17712650D02*
X9886849Y-17722174D01*
X9963039Y-17922174D02*
X9972563Y-17912650D01*
X9972563Y-17912650D02*
X9991611Y-17884079D01*
X9991611Y-17884079D02*
X10001134Y-17865031D01*
X10001134Y-17865031D02*
X10010658Y-17836460D01*
X10010658Y-17836460D02*
X10020182Y-17788841D01*
X10020182Y-17788841D02*
X10020182Y-17750746D01*
X10020182Y-17750746D02*
X10010658Y-17703127D01*
X10010658Y-17703127D02*
X10001134Y-17674555D01*
X10001134Y-17674555D02*
X9991611Y-17655508D01*
X9991611Y-17655508D02*
X9972563Y-17626936D01*
X9972563Y-17626936D02*
X9963039Y-17617412D01*
D16*
X4912500Y-17933500D02*
X4912500Y-18103500D01*
X4827500Y-18018500D02*
X4997500Y-18018500D01*
X4997500Y-18018500D02*
G75*
G02*
X4827500Y-18018500I-85000J0D01*
G01*
X4827500Y-18018500D02*
G75*
G02*
X4997500Y-18018500I85000J0D01*
G01*
D11*
X5363039Y-18109984D02*
X5248753Y-18109984D01*
X5305896Y-18109984D02*
X5305896Y-17909984D01*
X5305896Y-17909984D02*
X5286848Y-17938555D01*
X5286848Y-17938555D02*
X5267801Y-17957603D01*
X5267801Y-17957603D02*
X5248753Y-17967127D01*
X5448753Y-18090936D02*
X5458277Y-18100460D01*
X5458277Y-18100460D02*
X5448753Y-18109984D01*
X5448753Y-18109984D02*
X5439229Y-18100460D01*
X5439229Y-18100460D02*
X5448753Y-18090936D01*
X5448753Y-18090936D02*
X5448753Y-18109984D01*
X5524944Y-17909984D02*
X5658277Y-17909984D01*
X5658277Y-17909984D02*
X5572563Y-18109984D01*
X5772562Y-17909984D02*
X5791610Y-17909984D01*
X5791610Y-17909984D02*
X5810658Y-17919508D01*
X5810658Y-17919508D02*
X5820182Y-17929031D01*
X5820182Y-17929031D02*
X5829705Y-17948079D01*
X5829705Y-17948079D02*
X5839229Y-17986174D01*
X5839229Y-17986174D02*
X5839229Y-18033793D01*
X5839229Y-18033793D02*
X5829705Y-18071889D01*
X5829705Y-18071889D02*
X5820182Y-18090936D01*
X5820182Y-18090936D02*
X5810658Y-18100460D01*
X5810658Y-18100460D02*
X5791610Y-18109984D01*
X5791610Y-18109984D02*
X5772562Y-18109984D01*
X5772562Y-18109984D02*
X5753515Y-18100460D01*
X5753515Y-18100460D02*
X5743991Y-18090936D01*
X5743991Y-18090936D02*
X5734467Y-18071889D01*
X5734467Y-18071889D02*
X5724943Y-18033793D01*
X5724943Y-18033793D02*
X5724943Y-17986174D01*
X5724943Y-17986174D02*
X5734467Y-17948079D01*
X5734467Y-17948079D02*
X5743991Y-17929031D01*
X5743991Y-17929031D02*
X5753515Y-17919508D01*
X5753515Y-17919508D02*
X5772562Y-17909984D01*
X5963039Y-17909984D02*
X5982086Y-17909984D01*
X5982086Y-17909984D02*
X6001134Y-17919508D01*
X6001134Y-17919508D02*
X6010658Y-17929031D01*
X6010658Y-17929031D02*
X6020182Y-17948079D01*
X6020182Y-17948079D02*
X6029705Y-17986174D01*
X6029705Y-17986174D02*
X6029705Y-18033793D01*
X6029705Y-18033793D02*
X6020182Y-18071889D01*
X6020182Y-18071889D02*
X6010658Y-18090936D01*
X6010658Y-18090936D02*
X6001134Y-18100460D01*
X6001134Y-18100460D02*
X5982086Y-18109984D01*
X5982086Y-18109984D02*
X5963039Y-18109984D01*
X5963039Y-18109984D02*
X5943991Y-18100460D01*
X5943991Y-18100460D02*
X5934467Y-18090936D01*
X5934467Y-18090936D02*
X5924943Y-18071889D01*
X5924943Y-18071889D02*
X5915420Y-18033793D01*
X5915420Y-18033793D02*
X5915420Y-17986174D01*
X5915420Y-17986174D02*
X5924943Y-17948079D01*
X5924943Y-17948079D02*
X5934467Y-17929031D01*
X5934467Y-17929031D02*
X5943991Y-17919508D01*
X5943991Y-17919508D02*
X5963039Y-17909984D01*
X6115420Y-18109984D02*
X6115420Y-17976650D01*
X6115420Y-17995698D02*
X6124943Y-17986174D01*
X6124943Y-17986174D02*
X6143991Y-17976650D01*
X6143991Y-17976650D02*
X6172563Y-17976650D01*
X6172563Y-17976650D02*
X6191610Y-17986174D01*
X6191610Y-17986174D02*
X6201134Y-18005222D01*
X6201134Y-18005222D02*
X6201134Y-18109984D01*
X6201134Y-18005222D02*
X6210658Y-17986174D01*
X6210658Y-17986174D02*
X6229705Y-17976650D01*
X6229705Y-17976650D02*
X6258277Y-17976650D01*
X6258277Y-17976650D02*
X6277324Y-17986174D01*
X6277324Y-17986174D02*
X6286848Y-18005222D01*
X6286848Y-18005222D02*
X6286848Y-18109984D01*
X6382086Y-18109984D02*
X6382086Y-17976650D01*
X6382086Y-17995698D02*
X6391610Y-17986174D01*
X6391610Y-17986174D02*
X6410658Y-17976650D01*
X6410658Y-17976650D02*
X6439229Y-17976650D01*
X6439229Y-17976650D02*
X6458277Y-17986174D01*
X6458277Y-17986174D02*
X6467801Y-18005222D01*
X6467801Y-18005222D02*
X6467801Y-18109984D01*
X6467801Y-18005222D02*
X6477324Y-17986174D01*
X6477324Y-17986174D02*
X6496372Y-17976650D01*
X6496372Y-17976650D02*
X6524943Y-17976650D01*
X6524943Y-17976650D02*
X6543991Y-17986174D01*
X6543991Y-17986174D02*
X6553515Y-18005222D01*
X6553515Y-18005222D02*
X6553515Y-18109984D01*
X6943991Y-17900460D02*
X6772563Y-18157603D01*
X7201134Y-17909984D02*
X7220182Y-17909984D01*
X7220182Y-17909984D02*
X7239229Y-17919508D01*
X7239229Y-17919508D02*
X7248753Y-17929031D01*
X7248753Y-17929031D02*
X7258277Y-17948079D01*
X7258277Y-17948079D02*
X7267801Y-17986174D01*
X7267801Y-17986174D02*
X7267801Y-18033793D01*
X7267801Y-18033793D02*
X7258277Y-18071889D01*
X7258277Y-18071889D02*
X7248753Y-18090936D01*
X7248753Y-18090936D02*
X7239229Y-18100460D01*
X7239229Y-18100460D02*
X7220182Y-18109984D01*
X7220182Y-18109984D02*
X7201134Y-18109984D01*
X7201134Y-18109984D02*
X7182086Y-18100460D01*
X7182086Y-18100460D02*
X7172563Y-18090936D01*
X7172563Y-18090936D02*
X7163039Y-18071889D01*
X7163039Y-18071889D02*
X7153515Y-18033793D01*
X7153515Y-18033793D02*
X7153515Y-17986174D01*
X7153515Y-17986174D02*
X7163039Y-17948079D01*
X7163039Y-17948079D02*
X7172563Y-17929031D01*
X7172563Y-17929031D02*
X7182086Y-17919508D01*
X7182086Y-17919508D02*
X7201134Y-17909984D01*
X7353515Y-18090936D02*
X7363039Y-18100460D01*
X7363039Y-18100460D02*
X7353515Y-18109984D01*
X7353515Y-18109984D02*
X7343991Y-18100460D01*
X7343991Y-18100460D02*
X7353515Y-18090936D01*
X7353515Y-18090936D02*
X7353515Y-18109984D01*
X7486848Y-17909984D02*
X7505896Y-17909984D01*
X7505896Y-17909984D02*
X7524944Y-17919508D01*
X7524944Y-17919508D02*
X7534467Y-17929031D01*
X7534467Y-17929031D02*
X7543991Y-17948079D01*
X7543991Y-17948079D02*
X7553515Y-17986174D01*
X7553515Y-17986174D02*
X7553515Y-18033793D01*
X7553515Y-18033793D02*
X7543991Y-18071889D01*
X7543991Y-18071889D02*
X7534467Y-18090936D01*
X7534467Y-18090936D02*
X7524944Y-18100460D01*
X7524944Y-18100460D02*
X7505896Y-18109984D01*
X7505896Y-18109984D02*
X7486848Y-18109984D01*
X7486848Y-18109984D02*
X7467801Y-18100460D01*
X7467801Y-18100460D02*
X7458277Y-18090936D01*
X7458277Y-18090936D02*
X7448753Y-18071889D01*
X7448753Y-18071889D02*
X7439229Y-18033793D01*
X7439229Y-18033793D02*
X7439229Y-17986174D01*
X7439229Y-17986174D02*
X7448753Y-17948079D01*
X7448753Y-17948079D02*
X7458277Y-17929031D01*
X7458277Y-17929031D02*
X7467801Y-17919508D01*
X7467801Y-17919508D02*
X7486848Y-17909984D01*
X7724944Y-17909984D02*
X7686848Y-17909984D01*
X7686848Y-17909984D02*
X7667801Y-17919508D01*
X7667801Y-17919508D02*
X7658277Y-17929031D01*
X7658277Y-17929031D02*
X7639229Y-17957603D01*
X7639229Y-17957603D02*
X7629706Y-17995698D01*
X7629706Y-17995698D02*
X7629706Y-18071889D01*
X7629706Y-18071889D02*
X7639229Y-18090936D01*
X7639229Y-18090936D02*
X7648753Y-18100460D01*
X7648753Y-18100460D02*
X7667801Y-18109984D01*
X7667801Y-18109984D02*
X7705896Y-18109984D01*
X7705896Y-18109984D02*
X7724944Y-18100460D01*
X7724944Y-18100460D02*
X7734467Y-18090936D01*
X7734467Y-18090936D02*
X7743991Y-18071889D01*
X7743991Y-18071889D02*
X7743991Y-18024270D01*
X7743991Y-18024270D02*
X7734467Y-18005222D01*
X7734467Y-18005222D02*
X7724944Y-17995698D01*
X7724944Y-17995698D02*
X7705896Y-17986174D01*
X7705896Y-17986174D02*
X7667801Y-17986174D01*
X7667801Y-17986174D02*
X7648753Y-17995698D01*
X7648753Y-17995698D02*
X7639229Y-18005222D01*
X7639229Y-18005222D02*
X7629706Y-18024270D01*
X7915420Y-17909984D02*
X7877325Y-17909984D01*
X7877325Y-17909984D02*
X7858277Y-17919508D01*
X7858277Y-17919508D02*
X7848753Y-17929031D01*
X7848753Y-17929031D02*
X7829706Y-17957603D01*
X7829706Y-17957603D02*
X7820182Y-17995698D01*
X7820182Y-17995698D02*
X7820182Y-18071889D01*
X7820182Y-18071889D02*
X7829706Y-18090936D01*
X7829706Y-18090936D02*
X7839229Y-18100460D01*
X7839229Y-18100460D02*
X7858277Y-18109984D01*
X7858277Y-18109984D02*
X7896372Y-18109984D01*
X7896372Y-18109984D02*
X7915420Y-18100460D01*
X7915420Y-18100460D02*
X7924944Y-18090936D01*
X7924944Y-18090936D02*
X7934467Y-18071889D01*
X7934467Y-18071889D02*
X7934467Y-18024270D01*
X7934467Y-18024270D02*
X7924944Y-18005222D01*
X7924944Y-18005222D02*
X7915420Y-17995698D01*
X7915420Y-17995698D02*
X7896372Y-17986174D01*
X7896372Y-17986174D02*
X7858277Y-17986174D01*
X7858277Y-17986174D02*
X7839229Y-17995698D01*
X7839229Y-17995698D02*
X7829706Y-18005222D01*
X7829706Y-18005222D02*
X7820182Y-18024270D01*
X8029706Y-18109984D02*
X8067801Y-18109984D01*
X8067801Y-18109984D02*
X8086848Y-18100460D01*
X8086848Y-18100460D02*
X8096372Y-18090936D01*
X8096372Y-18090936D02*
X8115420Y-18062365D01*
X8115420Y-18062365D02*
X8124944Y-18024270D01*
X8124944Y-18024270D02*
X8124944Y-17948079D01*
X8124944Y-17948079D02*
X8115420Y-17929031D01*
X8115420Y-17929031D02*
X8105896Y-17919508D01*
X8105896Y-17919508D02*
X8086848Y-17909984D01*
X8086848Y-17909984D02*
X8048753Y-17909984D01*
X8048753Y-17909984D02*
X8029706Y-17919508D01*
X8029706Y-17919508D02*
X8020182Y-17929031D01*
X8020182Y-17929031D02*
X8010658Y-17948079D01*
X8010658Y-17948079D02*
X8010658Y-17995698D01*
X8010658Y-17995698D02*
X8020182Y-18014746D01*
X8020182Y-18014746D02*
X8029706Y-18024270D01*
X8029706Y-18024270D02*
X8048753Y-18033793D01*
X8048753Y-18033793D02*
X8086848Y-18033793D01*
X8086848Y-18033793D02*
X8105896Y-18024270D01*
X8105896Y-18024270D02*
X8115420Y-18014746D01*
X8115420Y-18014746D02*
X8124944Y-17995698D01*
X8201134Y-17909984D02*
X8201134Y-17948079D01*
X8277325Y-17909984D02*
X8277325Y-17948079D01*
X8572563Y-18186174D02*
X8563039Y-18176650D01*
X8563039Y-18176650D02*
X8543991Y-18148079D01*
X8543991Y-18148079D02*
X8534468Y-18129031D01*
X8534468Y-18129031D02*
X8524944Y-18100460D01*
X8524944Y-18100460D02*
X8515420Y-18052841D01*
X8515420Y-18052841D02*
X8515420Y-18014746D01*
X8515420Y-18014746D02*
X8524944Y-17967127D01*
X8524944Y-17967127D02*
X8534468Y-17938555D01*
X8534468Y-17938555D02*
X8543991Y-17919508D01*
X8543991Y-17919508D02*
X8563039Y-17890936D01*
X8563039Y-17890936D02*
X8572563Y-17881412D01*
X8677325Y-17995698D02*
X8658277Y-17986174D01*
X8658277Y-17986174D02*
X8648753Y-17976650D01*
X8648753Y-17976650D02*
X8639230Y-17957603D01*
X8639230Y-17957603D02*
X8639230Y-17948079D01*
X8639230Y-17948079D02*
X8648753Y-17929031D01*
X8648753Y-17929031D02*
X8658277Y-17919508D01*
X8658277Y-17919508D02*
X8677325Y-17909984D01*
X8677325Y-17909984D02*
X8715420Y-17909984D01*
X8715420Y-17909984D02*
X8734468Y-17919508D01*
X8734468Y-17919508D02*
X8743991Y-17929031D01*
X8743991Y-17929031D02*
X8753515Y-17948079D01*
X8753515Y-17948079D02*
X8753515Y-17957603D01*
X8753515Y-17957603D02*
X8743991Y-17976650D01*
X8743991Y-17976650D02*
X8734468Y-17986174D01*
X8734468Y-17986174D02*
X8715420Y-17995698D01*
X8715420Y-17995698D02*
X8677325Y-17995698D01*
X8677325Y-17995698D02*
X8658277Y-18005222D01*
X8658277Y-18005222D02*
X8648753Y-18014746D01*
X8648753Y-18014746D02*
X8639230Y-18033793D01*
X8639230Y-18033793D02*
X8639230Y-18071889D01*
X8639230Y-18071889D02*
X8648753Y-18090936D01*
X8648753Y-18090936D02*
X8658277Y-18100460D01*
X8658277Y-18100460D02*
X8677325Y-18109984D01*
X8677325Y-18109984D02*
X8715420Y-18109984D01*
X8715420Y-18109984D02*
X8734468Y-18100460D01*
X8734468Y-18100460D02*
X8743991Y-18090936D01*
X8743991Y-18090936D02*
X8753515Y-18071889D01*
X8753515Y-18071889D02*
X8753515Y-18033793D01*
X8753515Y-18033793D02*
X8743991Y-18014746D01*
X8743991Y-18014746D02*
X8734468Y-18005222D01*
X8734468Y-18005222D02*
X8715420Y-17995698D01*
X8991611Y-18109984D02*
X8991611Y-17909984D01*
X9077325Y-18109984D02*
X9077325Y-18005222D01*
X9077325Y-18005222D02*
X9067801Y-17986174D01*
X9067801Y-17986174D02*
X9048753Y-17976650D01*
X9048753Y-17976650D02*
X9020182Y-17976650D01*
X9020182Y-17976650D02*
X9001134Y-17986174D01*
X9001134Y-17986174D02*
X8991611Y-17995698D01*
X9201134Y-18109984D02*
X9182087Y-18100460D01*
X9182087Y-18100460D02*
X9172563Y-18090936D01*
X9172563Y-18090936D02*
X9163039Y-18071889D01*
X9163039Y-18071889D02*
X9163039Y-18014746D01*
X9163039Y-18014746D02*
X9172563Y-17995698D01*
X9172563Y-17995698D02*
X9182087Y-17986174D01*
X9182087Y-17986174D02*
X9201134Y-17976650D01*
X9201134Y-17976650D02*
X9229706Y-17976650D01*
X9229706Y-17976650D02*
X9248753Y-17986174D01*
X9248753Y-17986174D02*
X9258277Y-17995698D01*
X9258277Y-17995698D02*
X9267801Y-18014746D01*
X9267801Y-18014746D02*
X9267801Y-18071889D01*
X9267801Y-18071889D02*
X9258277Y-18090936D01*
X9258277Y-18090936D02*
X9248753Y-18100460D01*
X9248753Y-18100460D02*
X9229706Y-18109984D01*
X9229706Y-18109984D02*
X9201134Y-18109984D01*
X9382087Y-18109984D02*
X9363039Y-18100460D01*
X9363039Y-18100460D02*
X9353515Y-18081412D01*
X9353515Y-18081412D02*
X9353515Y-17909984D01*
X9534468Y-18100460D02*
X9515420Y-18109984D01*
X9515420Y-18109984D02*
X9477325Y-18109984D01*
X9477325Y-18109984D02*
X9458277Y-18100460D01*
X9458277Y-18100460D02*
X9448753Y-18081412D01*
X9448753Y-18081412D02*
X9448753Y-18005222D01*
X9448753Y-18005222D02*
X9458277Y-17986174D01*
X9458277Y-17986174D02*
X9477325Y-17976650D01*
X9477325Y-17976650D02*
X9515420Y-17976650D01*
X9515420Y-17976650D02*
X9534468Y-17986174D01*
X9534468Y-17986174D02*
X9543992Y-18005222D01*
X9543992Y-18005222D02*
X9543992Y-18024270D01*
X9543992Y-18024270D02*
X9448753Y-18043317D01*
X9620182Y-18100460D02*
X9639230Y-18109984D01*
X9639230Y-18109984D02*
X9677325Y-18109984D01*
X9677325Y-18109984D02*
X9696373Y-18100460D01*
X9696373Y-18100460D02*
X9705896Y-18081412D01*
X9705896Y-18081412D02*
X9705896Y-18071889D01*
X9705896Y-18071889D02*
X9696373Y-18052841D01*
X9696373Y-18052841D02*
X9677325Y-18043317D01*
X9677325Y-18043317D02*
X9648753Y-18043317D01*
X9648753Y-18043317D02*
X9629706Y-18033793D01*
X9629706Y-18033793D02*
X9620182Y-18014746D01*
X9620182Y-18014746D02*
X9620182Y-18005222D01*
X9620182Y-18005222D02*
X9629706Y-17986174D01*
X9629706Y-17986174D02*
X9648753Y-17976650D01*
X9648753Y-17976650D02*
X9677325Y-17976650D01*
X9677325Y-17976650D02*
X9696373Y-17986174D01*
X9772563Y-18186174D02*
X9782087Y-18176650D01*
X9782087Y-18176650D02*
X9801134Y-18148079D01*
X9801134Y-18148079D02*
X9810658Y-18129031D01*
X9810658Y-18129031D02*
X9820182Y-18100460D01*
X9820182Y-18100460D02*
X9829706Y-18052841D01*
X9829706Y-18052841D02*
X9829706Y-18014746D01*
X9829706Y-18014746D02*
X9820182Y-17967127D01*
X9820182Y-17967127D02*
X9810658Y-17938555D01*
X9810658Y-17938555D02*
X9801134Y-17919508D01*
X9801134Y-17919508D02*
X9782087Y-17890936D01*
X9782087Y-17890936D02*
X9772563Y-17881412D01*
M02*
