G04 #@! TF.GenerationSoftware,KiCad,Pcbnew,8.0.6*
G04 #@! TF.CreationDate,2024-12-29T21:13:16+01:00*
G04 #@! TF.ProjectId,HomeAutomationESP32C2mini_2024_2,486f6d65-4175-4746-9f6d-6174696f6e45,rev?*
G04 #@! TF.SameCoordinates,Original*
G04 #@! TF.FileFunction,Profile,NP*
%FSLAX46Y46*%
G04 Gerber Fmt 4.6, Leading zero omitted, Abs format (unit mm)*
G04 Created by KiCad (PCBNEW 8.0.6) date 2024-12-29 21:13:16*
%MOMM*%
%LPD*%
G01*
G04 APERTURE LIST*
G04 #@! TA.AperFunction,Profile*
%ADD10C,0.050000*%
G04 #@! TD*
G04 APERTURE END LIST*
D10*
X120000000Y-100000000D02*
X121000000Y-100000000D01*
X82000000Y-105000000D02*
X82000000Y-106000000D01*
X85000000Y-102500000D02*
X86000000Y-102500000D01*
X89500000Y-106000000D02*
X89500000Y-105000000D01*
X85000000Y-108000000D02*
X86000000Y-108000000D01*
X73000000Y-93000000D02*
X73000000Y-92000000D01*
X73000000Y-100000000D02*
X73000000Y-99000000D01*
X121000000Y-60000000D02*
X120000000Y-60000000D01*
X67000000Y-86500000D02*
X67000000Y-91500000D01*
X81500000Y-92000000D02*
X81500000Y-100000000D01*
X61500000Y-86500000D02*
X67000000Y-86500000D01*
X60500000Y-87500000D02*
X60500000Y-70500000D01*
X86000000Y-141000000D02*
X86000000Y-108000000D01*
X82000000Y-106000000D02*
X54000000Y-106000000D01*
X66000000Y-87500000D02*
X60500000Y-87500000D01*
X89500000Y-106000000D02*
X145000000Y-106000000D01*
X150000000Y-150000000D02*
X56000000Y-150000000D01*
X54000000Y-105000000D02*
X82000000Y-105000000D01*
X80500000Y-93000000D02*
X73000000Y-93000000D01*
X121000000Y-100000000D02*
X121000000Y-60000000D01*
X54000000Y-106000000D02*
X54000000Y-105000000D01*
X120000000Y-60000000D02*
X120000000Y-100000000D01*
X50000000Y-150000000D02*
X50000000Y-143000000D01*
X86000000Y-60000000D02*
X86000000Y-102500000D01*
X85000000Y-141000000D02*
X86000000Y-141000000D01*
X50000000Y-50000000D02*
X85000000Y-50000000D01*
X73000000Y-99000000D02*
X80500000Y-99000000D01*
X145000000Y-106000000D02*
X145000000Y-105000000D01*
X60500000Y-70500000D02*
X61500000Y-70500000D01*
X61500000Y-70500000D02*
X61500000Y-86500000D01*
X50000000Y-143000000D02*
X50000000Y-50000000D01*
X56000000Y-150000000D02*
X50000000Y-150000000D01*
X85000000Y-60000000D02*
X86000000Y-60000000D01*
X67000000Y-91500000D02*
X66000000Y-91500000D01*
X81500000Y-100000000D02*
X73000000Y-100000000D01*
X85000000Y-54000000D02*
X150000000Y-54000000D01*
X121000000Y-105000000D02*
X145000000Y-105000000D01*
X80500000Y-99000000D02*
X80500000Y-93000000D01*
X85000000Y-108000000D02*
X85000000Y-141000000D01*
X150000000Y-54000000D02*
X150000000Y-150000000D01*
X121000000Y-105000000D02*
X89500000Y-105000000D01*
X85000000Y-50000000D02*
X85000000Y-54000000D01*
X73000000Y-92000000D02*
X81500000Y-92000000D01*
X66000000Y-91500000D02*
X66000000Y-87500000D01*
X85000000Y-102500000D02*
X85000000Y-60000000D01*
M02*
